<svg xmlns="http://www.w3.org/2000/svg" xmlns:xlink="http://www.w3.org/1999/xlink" viewBox="0 0 64 64"><defs><style>.cls-1{fill:url(#linear-gradient);}.cls-2{fill:url(#linear-gradient-2);}.cls-3{fill:#c7cdd8;}.cls-4{fill:url(#linear-gradient-3);}.cls-5{fill:#8288a1;}.cls-6{fill:url(#linear-gradient-4);}.cls-7{fill:url(#linear-gradient-5);}.cls-8{fill:url(#linear-gradient-6);}.cls-9{fill:#9ca0ad;}.cls-10{fill:url(#linear-gradient-7);}.cls-11{fill:url(#linear-gradient-8);}.cls-12{fill:#fff;}.cls-13{fill:#cf4055;}.cls-14{fill:url(#linear-gradient-9);}</style><linearGradient id="linear-gradient" x1="41" y1="43" x2="63" y2="43" gradientUnits="userSpaceOnUse"><stop offset="0" stop-color="#d4d8e1"/><stop offset="1" stop-color="#f3f4f5"/></linearGradient><linearGradient id="linear-gradient-2" x1="21" y1="58" x2="21" y2="23" xlink:href="#linear-gradient"/><linearGradient id="linear-gradient-3" x1="51" y1="43" x2="51" y2="32" gradientUnits="userSpaceOnUse"><stop offset="0" stop-color="#9dd5df"/><stop offset="1" stop-color="#c3e1f5"/></linearGradient><linearGradient id="linear-gradient-4" x1="59" y1="51" x2="63" y2="51" gradientUnits="userSpaceOnUse"><stop offset="0" stop-color="#fbcc88"/><stop offset="1" stop-color="#ffe5c3"/></linearGradient><linearGradient id="linear-gradient-5" x1="49" y1="63" x2="49" y2="53" gradientUnits="userSpaceOnUse"><stop offset="0" stop-color="#474f72"/><stop offset="1" stop-color="#878c9f"/></linearGradient><linearGradient id="linear-gradient-6" x1="12" x2="12" xlink:href="#linear-gradient-5"/><linearGradient id="linear-gradient-7" x1="41" y1="47" x2="1" y2="47" gradientUnits="userSpaceOnUse"><stop offset="0" stop-color="#7aa8d7"/><stop offset="1" stop-color="#c3d2e7"/></linearGradient><linearGradient id="linear-gradient-8" x1="21" y1="41" x2="21" y2="27" gradientUnits="userSpaceOnUse"><stop offset="0" stop-color="#da5466"/><stop offset="1" stop-color="#f4929c"/></linearGradient><linearGradient id="linear-gradient-9" x1="32" y1="18" x2="32" y2="4" xlink:href="#linear-gradient-8"/></defs><title>Ambulance</title><g id="Ambulance"><path class="cls-1" d="M54,58h9V47.24a2,2,0,0,0-1.11-1.79L57,43,54.07,32l-.67-2.52A2,2,0,0,0,51.46,28H41V58h3"/><polyline class="cls-2" points="17 58 41 58 41 23 1 23 1 58 7 58"/><polyline class="cls-3" points="25.8 58 63 58 63 55 1 55 1 58 10.3 58"/><polygon class="cls-4" points="57 43 45 43 45 32 54.07 32 57 43"/><path class="cls-5" d="M47,48H45a1,1,0,0,1,0-2h2a1,1,0,0,1,0,2Z"/><path class="cls-6" d="M61,49h2a0,0,0,0,1,0,0v4a0,0,0,0,1,0,0H61a2,2,0,0,1-2-2v0A2,2,0,0,1,61,49Z"/><circle class="cls-7" cx="49" cy="58" r="5"/><circle class="cls-8" cx="12" cy="58" r="5"/><path class="cls-9" d="M12,60a2,2,0,1,1,2-2A2,2,0,0,1,12,60Zm0-2h0Zm0,0h0Zm0,0h0Zm0,0h0Zm0,0h0Zm0,0h0Zm0,0h0Zm0,0h0Z"/><path class="cls-9" d="M49,60a2,2,0,1,1,2-2A2,2,0,0,1,49,60Zm0-2h0Zm0,0h0Zm0,0h0Zm0,0h0Zm0,0h0Zm0,0h0Zm0,0h0Zm0,0h0Z"/><rect class="cls-10" x="1" y="45" width="40" height="4"/><circle class="cls-11" cx="21" cy="34" r="7"/><path class="cls-12" d="M24,33H22V31a1,1,0,0,0-2,0v2H18a1,1,0,0,0,0,2h2v2a1,1,0,0,0,2,0V35h2a1,1,0,0,0,0-2Z"/><rect class="cls-3" x="41" y="28" width="2" height="30"/><path class="cls-13" d="M37,7.05a1,1,0,0,1-.71-.29,1,1,0,0,1,0-1.42l2-2a1,1,0,1,1,1.42,1.42L37.66,6.76A1,1,0,0,1,37,7.05Z"/><path class="cls-13" d="M25,19a1,1,0,0,1-.71-.29,1,1,0,0,1,0-1.42l2.05-2a1,1,0,1,1,1.42,1.42l-2.05,2.05A1,1,0,0,1,25,19Z"/><path class="cls-13" d="M39,19a1,1,0,0,1-.71-.29l-2-2.05a1,1,0,0,1,1.42-1.42l2.05,2a1,1,0,0,1,0,1.42A1,1,0,0,1,39,19Z"/><path class="cls-13" d="M27.05,7.05a1,1,0,0,1-.71-.29l-2.05-2a1,1,0,0,1,1.42-1.42l2.05,2.05a1,1,0,0,1,0,1.42A1,1,0,0,1,27.05,7.05Z"/><circle class="cls-14" cx="32" cy="11" r="7"/><path class="cls-13" d="M39,11a7,7,0,0,1-14,0,5.47,5.47,0,0,1,.08-1,7,7,0,0,0,13.84,0A5.47,5.47,0,0,1,39,11Z"/><path class="cls-13" d="M32,6a1,1,0,0,1-1-1V2a1,1,0,0,1,2,0V5A1,1,0,0,1,32,6Z"/><path class="cls-13" d="M32,21a1,1,0,0,1-1-1V17a1,1,0,0,1,2,0v3A1,1,0,0,1,32,21Z"/><path class="cls-13" d="M41,12H38a1,1,0,0,1,0-2h3a1,1,0,0,1,0,2Z"/><path class="cls-13" d="M26,12H23a1,1,0,0,1,0-2h3a1,1,0,0,1,0,2Z"/><circle class="cls-13" cx="29.5" cy="9.5" r="1.5"/><circle class="cls-13" cx="35" cy="10" r="1"/><circle class="cls-13" cx="32" cy="13" r="1"/></g></svg>