<svg xmlns="http://www.w3.org/2000/svg" xmlns:xlink="http://www.w3.org/1999/xlink" viewBox="0 0 64 64"><defs><style>.cls-1{fill:url(#linear-gradient);}.cls-2{fill:#cba07a;}.cls-3{fill:url(#linear-gradient-2);}.cls-4{fill:#8a6762;}.cls-5{fill:url(#linear-gradient-3);}.cls-6{fill:url(#linear-gradient-4);}.cls-7{fill:url(#linear-gradient-5);}.cls-8{fill:url(#linear-gradient-6);}.cls-9{fill:#fff;}.cls-10{fill:url(#linear-gradient-8);}.cls-11{fill:#cf4055;}.cls-12{fill:url(#linear-gradient-9);}</style><linearGradient id="linear-gradient" x1="14.22" y1="35.53" x2="14.22" y2="8.16" gradientUnits="userSpaceOnUse"><stop offset="0" stop-color="#deb895"/><stop offset="1" stop-color="#f2d3b8"/></linearGradient><linearGradient id="linear-gradient-2" x1="66.65" y1="35.37" x2="66.65" y2="8" gradientTransform="matrix(-1, 0, 0, 1, 116.43, 0)" xlink:href="#linear-gradient"/><linearGradient id="linear-gradient-3" x1="26.43" y1="18.75" x2="26.43" y2="5" gradientUnits="userSpaceOnUse"><stop offset="0" stop-color="#9b756d"/><stop offset="1" stop-color="#bc9388"/></linearGradient><linearGradient id="linear-gradient-4" x1="37.58" y1="18.75" x2="37.58" y2="5" xlink:href="#linear-gradient-3"/><linearGradient id="linear-gradient-5" x1="32" y1="45" x2="32" y2="24.73" xlink:href="#linear-gradient-3"/><linearGradient id="linear-gradient-6" x1="32" y1="26.05" x2="32" y2="12.37" xlink:href="#linear-gradient-3"/><linearGradient id="linear-gradient-8" x1="49" y1="59" x2="49" y2="31" gradientUnits="userSpaceOnUse"><stop offset="0" stop-color="#9dd5df"/><stop offset="1" stop-color="#c3e1f5"/></linearGradient><linearGradient id="linear-gradient-9" x1="49" y1="52" x2="49" y2="38" gradientUnits="userSpaceOnUse"><stop offset="0" stop-color="#da5466"/><stop offset="1" stop-color="#f4929c"/></linearGradient></defs><title>Bat Virus</title><g id="Bat_Virus" data-name="Bat Virus"><path class="cls-1" d="M26.35,35.15a13.74,13.74,0,0,0-8.35.38,14.29,14.29,0,0,0-7-6.32c-1.9-.66-6,0-6,0,.28-.09.74-7.61,0-10.53s-4-7.36-4-7.36,5-3.16,9-3.16h8s1.47,13.12,9.43,16.89"/><path class="cls-2" d="M27.43,25.05l-1.08,10.1c-.36-.1-.64-3.09-.79-5.2A3.87,3.87,0,0,0,23.92,27C17.28,22.44,16,11,16,11H8a15.82,15.82,0,0,0-6.09,1.62c-.53-.79-.91-1.3-.91-1.3s5-3.16,9-3.16h8S19.47,21.28,27.43,25.05Z"/><path class="cls-3" d="M37.65,35a13.74,13.74,0,0,1,8.35.38,14.33,14.33,0,0,1,7-6.32c1.9-.66,6,0,6,0-.28-.09-.74-7.61,0-10.52.77-3.06,4-7.37,4-7.37S58,8,54,8H46s-1.47,13.13-9.43,16.89"/><path class="cls-2" d="M36.57,24.89,37.65,35c.36-.1.64-3.08.79-5.19a3.88,3.88,0,0,1,1.64-2.94c6.64-4.58,7.92-16,7.92-16h8a15.82,15.82,0,0,1,6.09,1.62c.53-.79.91-1.3.91-1.3S58,8,54,8H46S44.53,21.12,36.57,24.89Z"/><path class="cls-4" d="M27.86,24.15C20.74,20.78,19.11,9,19,8.1V7.54a4.67,4.67,0,0,0-1.27-3.23,1,1,0,0,0-1.46,1.38A2.56,2.56,0,0,1,17,7.16H10C5.76,7.16.68,10.33.47,10.47a1,1,0,0,0-.32,1.38,1,1,0,0,0,1.38.31c.05,0,4.81-3,8.47-3h5.86C9,17.43,8,19.65,7,23.72A1,1,0,1,0,9,24.18c.81-3.4,1.47-5.24,7-12a44,44,0,0,0-1,8.62,27.43,27.43,0,0,0,2.1,11,1,1,0,0,0,.9.57,1.12,1.12,0,0,0,.43-.1,1,1,0,0,0,.47-1.33A26,26,0,0,1,17,20.79a41.78,41.78,0,0,1,.9-8.07C19.07,17.08,21.63,23.41,27,26a1.11,1.11,0,0,0,.43.09,1,1,0,0,0,.43-1.9Z"/><path class="cls-4" d="M63.53,10.47c-.21-.13-5.29-3.31-9.53-3.31H47a2.64,2.64,0,0,1,.68-1.47,1,1,0,0,0-1.44-1.38A4.64,4.64,0,0,0,45,7.54V8.1c-.11.85-1.72,12.66-8.86,16a1,1,0,0,0,.43,1.9A1,1,0,0,0,37,26c5.37-2.54,7.93-8.87,9.1-13.23a41.78,41.78,0,0,1,.9,8.07,26,26,0,0,1-1.9,10.1,1,1,0,0,0,.47,1.33,1.12,1.12,0,0,0,.43.1,1,1,0,0,0,.9-.57,27.43,27.43,0,0,0,2.1-11,44,44,0,0,0-1-8.62c5.52,6.77,6.18,8.61,7,12A1,1,0,0,0,57,23.72C56,19.65,55,17.43,48.14,9.16H54c3.66,0,8.42,3,8.47,3a1,1,0,1,0,1.06-1.7Z"/><path class="cls-5" d="M29.85,12.89a7.79,7.79,0,0,0-4.2,4.29,8,8,0,0,0-.45,1.57A9.35,9.35,0,0,1,23,13.42,59.43,59.43,0,0,1,24,5s4,2.11,5,4.21A12.19,12.19,0,0,1,29.85,12.89Z"/><path class="cls-4" d="M29.85,12.89a7.79,7.79,0,0,0-4.2,4.29,8,8,0,0,0-.45,1.57c-.27-.35.49-2.94,1.47-4.57a5.26,5.26,0,0,0,.55-4.43A4.35,4.35,0,0,0,27,9.21,9.61,9.61,0,0,0,23.81,6.1C23.92,5.42,24,5,24,5s4,2.11,5,4.21A12.19,12.19,0,0,1,29.85,12.89Z"/><path class="cls-6" d="M41,13.42a9.35,9.35,0,0,1-2.2,5.33,8,8,0,0,0-.45-1.57,7.79,7.79,0,0,0-4.2-4.29A12.19,12.19,0,0,1,35,9.21C36,7.11,40,5,40,5A59.43,59.43,0,0,1,41,13.42Z"/><path class="cls-7" d="M38,32.37a11.89,11.89,0,0,1-.35,2.78h0C36.36,40.41,32,45,32,45s-4.36-4.59-5.64-9.85h0A11.89,11.89,0,0,1,26,32.37a19.38,19.38,0,0,1,.86-5.74c.17-.56.37-1.09.57-1.58.05-.11.09-.22.14-.32a8.38,8.38,0,0,0,1.92.89,7.54,7.54,0,0,0,5,0,8.38,8.38,0,0,0,1.92-.89c0,.1.09.21.14.32.2.49.4,1,.57,1.58A19.38,19.38,0,0,1,38,32.37Z"/><path class="cls-8" d="M39,20.79a4.83,4.83,0,0,1-2.57,3.94,8.38,8.38,0,0,1-1.92.89,7.54,7.54,0,0,1-5,0,8.38,8.38,0,0,1-1.92-.89A4.83,4.83,0,0,1,25,20.79a9.94,9.94,0,0,1,.2-2,8,8,0,0,1,.45-1.57,7.79,7.79,0,0,1,4.2-4.29.75.75,0,0,1,.13-.06,5.6,5.6,0,0,1,2-.46,5.6,5.6,0,0,1,2,.46.75.75,0,0,1,.13.06,7.79,7.79,0,0,1,4.2,4.29,8,8,0,0,1,.45,1.57A9.94,9.94,0,0,1,39,20.79Z"/><path class="cls-8" d="M39,20.79a4.83,4.83,0,0,1-2.57,3.94,8.38,8.38,0,0,1-1.92.89,7.54,7.54,0,0,1-5,0,8.38,8.38,0,0,1-1.92-.89A4.83,4.83,0,0,1,25,20.79a9.94,9.94,0,0,1,.2-2,8,8,0,0,1,.45-1.57,7.79,7.79,0,0,1,4.2-4.29.75.75,0,0,1,.13-.06,5.6,5.6,0,0,1,2-.46,5.6,5.6,0,0,1,2,.46.75.75,0,0,1,.13.06,7.79,7.79,0,0,1,4.2,4.29,8,8,0,0,1,.45,1.57A9.94,9.94,0,0,1,39,20.79Z"/><path class="cls-9" d="M30,22.84a1,1,0,0,1-1-1V20.79a1,1,0,0,1,2,0v1.05A1,1,0,0,1,30,22.84Z"/><path class="cls-9" d="M34,22.84a1,1,0,0,1-1-1V20.79a1,1,0,0,1,2,0v1.05A1,1,0,0,1,34,22.84Z"/><path class="cls-4" d="M35,21.79H29a1,1,0,0,1,0-2h6a1,1,0,0,1,0,2Z"/><circle class="cls-10" cx="49" cy="45" r="14"/><path class="cls-11" d="M54,41.05a1,1,0,0,1-.71-.29,1,1,0,0,1,0-1.42l2-2.05a1,1,0,0,1,1.42,1.42l-2.05,2A1,1,0,0,1,54,41.05Z"/><path class="cls-11" d="M42,53a1,1,0,0,1-.71-.29,1,1,0,0,1,0-1.42l2.05-2a1,1,0,0,1,1.42,1.42l-2,2.05A1,1,0,0,1,42,53Z"/><path class="cls-11" d="M56,53a1,1,0,0,1-.71-.29l-2-2.05a1,1,0,0,1,1.42-1.42l2.05,2a1,1,0,0,1,0,1.42A1,1,0,0,1,56,53Z"/><path class="cls-11" d="M44.05,41.05a1,1,0,0,1-.71-.29l-2.05-2a1,1,0,0,1,1.42-1.42l2,2.05a1,1,0,0,1,0,1.42A1,1,0,0,1,44.05,41.05Z"/><circle class="cls-12" cx="49" cy="45" r="7"/><path class="cls-11" d="M56,45a7,7,0,0,1-14,0,5.47,5.47,0,0,1,.08-1,7,7,0,0,0,13.84,0A5.47,5.47,0,0,1,56,45Z"/><path class="cls-11" d="M49,40a1,1,0,0,1-1-1V36a1,1,0,0,1,2,0v3A1,1,0,0,1,49,40Z"/><path class="cls-11" d="M49,55a1,1,0,0,1-1-1V51a1,1,0,0,1,2,0v3A1,1,0,0,1,49,55Z"/><path class="cls-11" d="M58,46H55a1,1,0,0,1,0-2h3a1,1,0,0,1,0,2Z"/><path class="cls-11" d="M43,46H40a1,1,0,0,1,0-2h3a1,1,0,0,1,0,2Z"/><circle class="cls-11" cx="46.5" cy="43.5" r="1.5"/><circle class="cls-11" cx="52" cy="44" r="1"/><circle class="cls-11" cx="49" cy="47" r="1"/><path class="cls-4" d="M34.15,12.89a7.79,7.79,0,0,1,4.2,4.29,8,8,0,0,1,.45,1.57c.27-.35-.49-2.94-1.47-4.57a5.26,5.26,0,0,1-.55-4.43A4.35,4.35,0,0,1,37,9.21,9.61,9.61,0,0,1,40.19,6.1C40.08,5.42,40,5,40,5s-4,2.11-5,4.21A12.19,12.19,0,0,0,34.15,12.89Z"/></g></svg>