<svg xmlns="http://www.w3.org/2000/svg" xmlns:xlink="http://www.w3.org/1999/xlink" viewBox="0 0 64 64"><defs><style>.cls-1{fill:url(#linear-gradient);}.cls-2{fill:url(#linear-gradient-2);}.cls-3{fill:url(#linear-gradient-3);}.cls-4{fill:url(#linear-gradient-4);}.cls-5{fill:#dd8b37;}.cls-6{fill:#cf4055;}.cls-7{fill:url(#linear-gradient-5);}.cls-8{fill:url(#linear-gradient-6);}.cls-9{fill:url(#linear-gradient-7);}.cls-10{fill:url(#linear-gradient-8);}.cls-11{fill:url(#linear-gradient-9);}</style><linearGradient id="linear-gradient" x1="8" y1="63" x2="8" y2="41" gradientUnits="userSpaceOnUse"><stop offset="0" stop-color="#e9a254"/><stop offset="1" stop-color="#f4bb79"/></linearGradient><linearGradient id="linear-gradient-2" x1="40" x2="40" y2="49" gradientTransform="translate(80 112) rotate(-180)" xlink:href="#linear-gradient"/><linearGradient id="linear-gradient-3" x1="24" x2="24" y2="35" gradientTransform="translate(48 98) rotate(-180)" xlink:href="#linear-gradient"/><linearGradient id="linear-gradient-4" x1="56" x2="56" y2="21" xlink:href="#linear-gradient"/><linearGradient id="linear-gradient-5" x1="32" y1="23" x2="32" y2="5" gradientUnits="userSpaceOnUse"><stop offset="0" stop-color="#da5466"/><stop offset="1" stop-color="#f4929c"/></linearGradient><linearGradient id="linear-gradient-6" x1="41.19" y1="6.81" x2="41.19" y2="2.81" xlink:href="#linear-gradient-5"/><linearGradient id="linear-gradient-7" x1="22.81" y1="6.81" x2="22.81" y2="2.81" xlink:href="#linear-gradient-5"/><linearGradient id="linear-gradient-8" x1="41.19" y1="24.81" x2="41.19" y2="20.81" xlink:href="#linear-gradient-5"/><linearGradient id="linear-gradient-9" x1="22.81" y1="24.81" x2="22.81" y2="20.81" xlink:href="#linear-gradient-5"/></defs><title>Chart</title><g id="Chart"><rect class="cls-1" x="4" y="41" width="8" height="22"/><rect class="cls-2" x="36" y="49" width="8" height="14" transform="translate(80 112) rotate(180)"/><rect class="cls-3" x="20" y="35" width="8" height="28" transform="translate(48 98) rotate(180)"/><rect class="cls-4" x="52" y="21" width="8" height="42"/><rect class="cls-5" x="4" y="60" width="8" height="3"/><rect class="cls-5" x="20" y="60" width="8" height="3"/><rect class="cls-5" x="36" y="60" width="8" height="3"/><rect class="cls-5" x="52" y="60" width="8" height="3"/><path class="cls-6" d="M23,15H20a1,1,0,0,1,0-2h3a1,1,0,1,1,0,2Z"/><path class="cls-6" d="M44,15H41a1,1,0,0,1,0-2h3a1,1,0,0,1,0,2Z"/><path class="cls-6" d="M32,6a1,1,0,0,1-1-1V2a1,1,0,0,1,2,0V5A1,1,0,0,1,32,6Z"/><path class="cls-6" d="M32,26a1,1,0,0,1-1-1V22a1,1,0,1,1,2,0v3A1,1,0,0,1,32,26Z"/><circle class="cls-7" cx="32" cy="14" r="9"/><path class="cls-6" d="M38.36,20.36A9,9,0,0,1,23.06,13a9,9,0,0,0,17.88,0A8.92,8.92,0,0,1,38.36,20.36Z"/><path class="cls-6" d="M27.05,10.05a1,1,0,0,1-.7-.29L22.81,6.23a1,1,0,1,1,1.42-1.42l3.53,3.54a1,1,0,0,1,0,1.41A1,1,0,0,1,27.05,10.05Z"/><path class="cls-6" d="M40.48,23.48a1,1,0,0,1-.71-.29l-3.53-3.54a1,1,0,0,1,1.41-1.41l3.54,3.54a1,1,0,0,1,0,1.41A1,1,0,0,1,40.48,23.48Z"/><path class="cls-6" d="M37,10.05a1,1,0,0,1-.71-.29,1,1,0,0,1,0-1.41l3.53-3.54a1,1,0,1,1,1.42,1.42L37.65,9.76A1,1,0,0,1,37,10.05Z"/><path class="cls-6" d="M23.52,23.48a1,1,0,0,1-.71-.29,1,1,0,0,1,0-1.41l3.54-3.54a1,1,0,0,1,1.41,1.41l-3.53,3.54A1,1,0,0,1,23.52,23.48Z"/><path class="cls-6" d="M28.47,15.29a2,2,0,0,1-1.42-3.41,2.06,2.06,0,0,1,2.83,0h0a2,2,0,0,1,0,2.83A2,2,0,0,1,28.47,15.29Zm0-2h0Z"/><circle class="cls-6" cx="34.83" cy="11.88" r="1.5"/><circle class="cls-6" cx="32" cy="18.24" r="1"/><path class="cls-8" d="M41.19,6.81a2,2,0,1,1,1.41-.58A2,2,0,0,1,41.19,6.81Zm0-2Z"/><path class="cls-9" d="M22.81,6.81a2,2,0,0,1-1.41-.58,2,2,0,1,1,1.41.58Zm0-2Z"/><path class="cls-10" d="M41.19,24.81a2,2,0,1,1,1.41-.58A2,2,0,0,1,41.19,24.81Zm0-2Z"/><path class="cls-11" d="M22.81,24.81a2,2,0,0,1-1.41-.58,2,2,0,1,1,1.41.58Zm0-2Z"/></g></svg>