<svg xmlns="http://www.w3.org/2000/svg" xmlns:xlink="http://www.w3.org/1999/xlink" viewBox="0 0 64 64"><defs><style>.cls-1{fill:url(#linear-gradient);}.cls-2{fill:#77cacb;}.cls-3{fill:url(#linear-gradient-2);}.cls-4{fill:#f6b756;}.cls-5{fill:url(#linear-gradient-3);}.cls-6{fill:#cf4055;}.cls-7{fill:url(#linear-gradient-4);}.cls-8{fill:url(#linear-gradient-5);}.cls-9{fill:url(#linear-gradient-6);}.cls-10{fill:url(#linear-gradient-7);}.cls-11{fill:url(#linear-gradient-8);}</style><linearGradient id="linear-gradient" x1="24" y1="63" x2="24" y2="5" gradientUnits="userSpaceOnUse"><stop offset="0" stop-color="#9dd5df"/><stop offset="1" stop-color="#c3e1f5"/></linearGradient><linearGradient id="linear-gradient-2" x1="24" y1="59" x2="24" y2="37.85" gradientUnits="userSpaceOnUse"><stop offset="0" stop-color="#fbcc88"/><stop offset="1" stop-color="#ffe5c3"/></linearGradient><linearGradient id="linear-gradient-3" x1="16" y1="3" x2="32" y2="3" xlink:href="#linear-gradient"/><linearGradient id="linear-gradient-4" x1="50" y1="23" x2="50" y2="5" gradientUnits="userSpaceOnUse"><stop offset="0" stop-color="#da5466"/><stop offset="1" stop-color="#f4929c"/></linearGradient><linearGradient id="linear-gradient-5" x1="59.19" y1="6.81" x2="59.19" y2="2.81" xlink:href="#linear-gradient-4"/><linearGradient id="linear-gradient-6" x1="40.81" y1="6.81" x2="40.81" y2="2.81" xlink:href="#linear-gradient-4"/><linearGradient id="linear-gradient-7" x1="59.19" y1="24.81" x2="59.19" y2="20.81" xlink:href="#linear-gradient-4"/><linearGradient id="linear-gradient-8" x1="40.81" y1="24.81" x2="40.81" y2="20.81" xlink:href="#linear-gradient-4"/></defs><title>Chemical</title><g id="Chemical"><path class="cls-1" d="M30,29V5H18V29L2,53.46a6.24,6.24,0,0,0-1,3.38H1A6.16,6.16,0,0,0,7.16,63H40.84A6.16,6.16,0,0,0,47,56.84h0a6.24,6.24,0,0,0-1-3.38Z"/><path class="cls-2" d="M47,56.84A6.16,6.16,0,0,1,40.84,63H7.16A6.15,6.15,0,0,1,1,56.84a5.77,5.77,0,0,1,.09-1A6.11,6.11,0,0,0,7.16,61H40.84a6.14,6.14,0,0,0,6.07-5.18A5.77,5.77,0,0,1,47,56.84Z"/><path class="cls-3" d="M43,56.84A2.16,2.16,0,0,1,40.84,59H7.16a2.17,2.17,0,0,1-1.81-3.35l11-16.81c7.62-3.58,8.74,4,15.48.25L42.65,55.65A2.15,2.15,0,0,1,43,56.84Z"/><path class="cls-4" d="M43,56.84A2.16,2.16,0,0,1,40.84,59H7.16a2.17,2.17,0,0,1-1.81-3.35l.22-.34A2.21,2.21,0,0,0,7.16,56H40.84a2.21,2.21,0,0,0,1.59-.69l.22.34A2.15,2.15,0,0,1,43,56.84Z"/><rect class="cls-5" x="16" y="1" width="16" height="4" rx="2"/><path class="cls-6" d="M41,15H38a1,1,0,0,1,0-2h3a1,1,0,0,1,0,2Z"/><path class="cls-6" d="M62,15H59a1,1,0,0,1,0-2h3a1,1,0,0,1,0,2Z"/><path class="cls-6" d="M50,6a1,1,0,0,1-1-1V2a1,1,0,0,1,2,0V5A1,1,0,0,1,50,6Z"/><path class="cls-6" d="M50,26a1,1,0,0,1-1-1V22a1,1,0,1,1,2,0v3A1,1,0,0,1,50,26Z"/><circle class="cls-7" cx="50" cy="14" r="9"/><path class="cls-6" d="M56.36,20.36A9,9,0,0,1,41.06,13a9,9,0,0,0,17.88,0A8.92,8.92,0,0,1,56.36,20.36Z"/><path class="cls-6" d="M45.05,10.05a1,1,0,0,1-.7-.29L40.81,6.23a1,1,0,1,1,1.42-1.42l3.53,3.54a1,1,0,0,1,0,1.41A1,1,0,0,1,45.05,10.05Z"/><path class="cls-6" d="M58.48,23.48a1,1,0,0,1-.71-.29l-3.53-3.54a1,1,0,0,1,1.41-1.41l3.54,3.54a1,1,0,0,1,0,1.41A1,1,0,0,1,58.48,23.48Z"/><path class="cls-6" d="M55,10.05a1,1,0,0,1-.71-.29,1,1,0,0,1,0-1.41l3.53-3.54a1,1,0,1,1,1.42,1.42L55.65,9.76A1,1,0,0,1,55,10.05Z"/><path class="cls-6" d="M41.52,23.48a1,1,0,0,1-.71-.29,1,1,0,0,1,0-1.41l3.54-3.54a1,1,0,0,1,1.41,1.41l-3.53,3.54A1,1,0,0,1,41.52,23.48Z"/><path class="cls-6" d="M46.47,15.29a2,2,0,0,1-1.42-3.41,2.06,2.06,0,0,1,2.83,0h0a2,2,0,0,1,0,2.83A2,2,0,0,1,46.47,15.29Zm0-2h0Z"/><circle class="cls-6" cx="52.83" cy="11.88" r="1.5"/><circle class="cls-6" cx="50" cy="18.24" r="1"/><path class="cls-8" d="M59.19,6.81a2,2,0,1,1,1.41-.58A2,2,0,0,1,59.19,6.81Zm0-2Z"/><path class="cls-9" d="M40.81,6.81a2,2,0,0,1-1.41-.58,2,2,0,1,1,1.41.58Zm0-2Z"/><path class="cls-10" d="M59.19,24.81a2,2,0,1,1,1.41-.58A2,2,0,0,1,59.19,24.81Zm0-2Z"/><path class="cls-11" d="M40.81,24.81a2,2,0,0,1-1.41-.58,2,2,0,1,1,1.41.58Zm0-2Z"/></g></svg>