<svg xmlns="http://www.w3.org/2000/svg" xmlns:xlink="http://www.w3.org/1999/xlink" viewBox="0 0 64 64"><defs><style>.cls-1{fill:#dd8b37;}.cls-2{fill:url(#linear-gradient);}.cls-3{fill:#d7dbe2;}.cls-4{fill:url(#linear-gradient-2);}.cls-5{fill:url(#linear-gradient-3);}.cls-6{fill:#42455e;}.cls-7{fill:url(#linear-gradient-4);}.cls-8{fill:url(#linear-gradient-5);}.cls-9{fill:url(#linear-gradient-6);}.cls-10{fill:#9ca0ad;}.cls-11{fill:url(#linear-gradient-7);}</style><linearGradient id="linear-gradient" x1="32" y1="63" x2="32" y2="16.14" gradientUnits="userSpaceOnUse"><stop offset="0" stop-color="#9dd5df"/><stop offset="1" stop-color="#c3e1f5"/></linearGradient><linearGradient id="linear-gradient-2" x1="19" y1="63" x2="19" y2="39" gradientUnits="userSpaceOnUse"><stop offset="0" stop-color="#474f72"/><stop offset="1" stop-color="#878c9f"/></linearGradient><linearGradient id="linear-gradient-3" x1="32" y1="22" x2="32" y2="9" gradientUnits="userSpaceOnUse"><stop offset="0" stop-color="#e9a254"/><stop offset="1" stop-color="#f4bb79"/></linearGradient><linearGradient id="linear-gradient-4" x1="46" x2="46" y2="40" xlink:href="#linear-gradient-2"/><linearGradient id="linear-gradient-5" x1="51.5" y1="63" x2="51.5" y2="47" gradientUnits="userSpaceOnUse"><stop offset="0" stop-color="#a0a6ba"/><stop offset="1" stop-color="#c6ccda"/></linearGradient><linearGradient id="linear-gradient-6" x1="14" x2="14" y2="49" xlink:href="#linear-gradient-5"/><linearGradient id="linear-gradient-7" x1="33" x2="33" y2="35" xlink:href="#linear-gradient-5"/></defs><title>City Lockdown</title><g id="City_Lockdown" data-name="City Lockdown"><path class="cls-1" d="M37,11a1,1,0,0,1-1-1V7a4,4,0,0,0-8,0v3a1,1,0,0,1-2,0V7A6,6,0,0,1,38,7v3A1,1,0,0,1,37,11Z"/><path class="cls-2" d="M40,16.14C53.24,20,63,33.25,63,49V63H1V49c0-15.75,9.76-29,23-32.86"/><path class="cls-3" d="M33,32a1,1,0,0,1-1-1V26a1,1,0,0,1,2,0v5A1,1,0,0,1,33,32Z"/><polyline class="cls-4" points="13 45 13 39 25 39 25 63 21 63 13 63"/><rect class="cls-5" x="24" y="9" width="16" height="13"/><path class="cls-6" d="M34,14a2,2,0,1,0-3,1.72V18a1,1,0,0,0,2,0V15.72A2,2,0,0,0,34,14Z"/><polyline class="cls-7" points="51 47 51 40 41 40 41 63 46 63 51 63"/><rect class="cls-8" x="46" y="47" width="11" height="16"/><rect class="cls-9" x="7" y="49" width="14" height="14"/><rect class="cls-10" x="9" y="45" width="10" height="4"/><polyline class="cls-11" points="41 40 41 35 39 35 27 35 25 35 25 63 36 63 41 63"/><rect class="cls-10" x="27" y="31" width="12" height="4"/><path class="cls-3" d="M29,41a1,1,0,0,1-1-1V39a1,1,0,0,1,2,0v1A1,1,0,0,1,29,41Z"/><path class="cls-3" d="M33,41a1,1,0,0,1-1-1V39a1,1,0,0,1,2,0v1A1,1,0,0,1,33,41Z"/><path class="cls-3" d="M37,41a1,1,0,0,1-1-1V39a1,1,0,0,1,2,0v1A1,1,0,0,1,37,41Z"/><path class="cls-3" d="M29,46a1,1,0,0,1-1-1V44a1,1,0,0,1,2,0v1A1,1,0,0,1,29,46Z"/><path class="cls-3" d="M33,46a1,1,0,0,1-1-1V44a1,1,0,0,1,2,0v1A1,1,0,0,1,33,46Z"/><path class="cls-3" d="M37,46a1,1,0,0,1-1-1V44a1,1,0,0,1,2,0v1A1,1,0,0,1,37,46Z"/><path class="cls-3" d="M29,51a1,1,0,0,1-1-1V49a1,1,0,0,1,2,0v1A1,1,0,0,1,29,51Z"/><path class="cls-3" d="M33,51a1,1,0,0,1-1-1V49a1,1,0,0,1,2,0v1A1,1,0,0,1,33,51Z"/><path class="cls-3" d="M37,51a1,1,0,0,1-1-1V49a1,1,0,0,1,2,0v1A1,1,0,0,1,37,51Z"/><path class="cls-3" d="M29,56a1,1,0,0,1-1-1V54a1,1,0,0,1,2,0v1A1,1,0,0,1,29,56Z"/><path class="cls-3" d="M33,56a1,1,0,0,1-1-1V54a1,1,0,0,1,2,0v1A1,1,0,0,1,33,56Z"/><path class="cls-3" d="M37,56a1,1,0,0,1-1-1V54a1,1,0,0,1,2,0v1A1,1,0,0,1,37,56Z"/><path class="cls-3" d="M29,61a1,1,0,0,1-1-1V59a1,1,0,0,1,2,0v1A1,1,0,0,1,29,61Z"/><path class="cls-3" d="M33,61a1,1,0,0,1-1-1V59a1,1,0,0,1,2,0v1A1,1,0,0,1,33,61Z"/><path class="cls-3" d="M37,61a1,1,0,0,1-1-1V59a1,1,0,0,1,2,0v1A1,1,0,0,1,37,61Z"/><path class="cls-3" d="M53,52H50a1,1,0,0,1,0-2h3a1,1,0,0,1,0,2Z"/><path class="cls-3" d="M53,56H50a1,1,0,0,1,0-2h3a1,1,0,0,1,0,2Z"/><path class="cls-3" d="M53,60H50a1,1,0,0,1,0-2h3a1,1,0,0,1,0,2Z"/><path class="cls-3" d="M13,53V63H11V53a1,1,0,0,1,2,0Z"/><path class="cls-3" d="M17,53V63H15V53a1,1,0,0,1,2,0Z"/></g></svg>