<svg xmlns="http://www.w3.org/2000/svg" xmlns:xlink="http://www.w3.org/1999/xlink" viewBox="0 0 64 64"><defs><style>.cls-1{fill:url(#linear-gradient);}.cls-2{fill:url(#linear-gradient-2);}.cls-3{fill:url(#linear-gradient-3);}.cls-4{fill:url(#linear-gradient-4);}</style><linearGradient id="linear-gradient" x1="24.45" y1="63" x2="24.45" y2="1" gradientUnits="userSpaceOnUse"><stop offset="0" stop-color="#f2c4b0"/><stop offset="1" stop-color="#ffe3d7"/></linearGradient><linearGradient id="linear-gradient-2" x1="47" y1="40" x2="60" y2="40" gradientUnits="userSpaceOnUse"><stop offset="0" stop-color="#da5466"/><stop offset="1" stop-color="#f4929c"/></linearGradient><linearGradient id="linear-gradient-3" x1="47" y1="52" x2="60" y2="52" xlink:href="#linear-gradient-2"/><linearGradient id="linear-gradient-4" x1="45" y1="46" x2="63" y2="46" xlink:href="#linear-gradient-2"/></defs><title>Cough</title><g id="Cough"><path class="cls-1" d="M28,63V55l6.17,1.76a6.05,6.05,0,0,0,1.69.24h0A6.14,6.14,0,0,0,42,50.86V50l.79-1.18a1.17,1.17,0,0,0-1-1.82H40a2,2,0,0,1-2-2h0a2,2,0,0,1,2-2h2.17A1.17,1.17,0,0,0,43,41h0V39l2.89-.58A2.63,2.63,0,0,0,48,35.84h0a2.63,2.63,0,0,0-.49-1.53l-3.58-5a2.69,2.69,0,0,1-.21-2.75h0A2.74,2.74,0,0,0,44,25.37V22.5A21.51,21.51,0,0,0,22.5,1h0A21.59,21.59,0,0,0,.91,22.5v1a30.8,30.8,0,0,0,2.38,12l.06.16A31,31,0,0,1,5.69,49.21C5.37,55.22,5,63,5,63Z"/><path class="cls-2" d="M48,43a1,1,0,0,1-.34-1.94l11-4a1,1,0,1,1,.68,1.88l-11,4A1,1,0,0,1,48,43Z"/><path class="cls-3" d="M59,55a1,1,0,0,1-.34-.06l-11-4a1,1,0,1,1,.68-1.88l11,4A1,1,0,0,1,59,55Z"/><path class="cls-4" d="M62,47H46a1,1,0,0,1,0-2H62a1,1,0,0,1,0,2Z"/></g></svg>