<svg xmlns="http://www.w3.org/2000/svg" xmlns:xlink="http://www.w3.org/1999/xlink" viewBox="0 0 64 64"><defs><style>.cls-1{fill:url(#linear-gradient);}.cls-2{fill:url(#linear-gradient-2);}.cls-3{fill:#5b8dc9;}.cls-4{fill:url(#linear-gradient-3);}.cls-5{fill:url(#linear-gradient-4);}.cls-6{fill:#cf4055;}.cls-7{fill:url(#linear-gradient-5);}</style><linearGradient id="linear-gradient" x1="32" y1="37" x2="32" y2="3" gradientUnits="userSpaceOnUse"><stop offset="0" stop-color="#d4d8e1"/><stop offset="1" stop-color="#f3f4f5"/></linearGradient><linearGradient id="linear-gradient-2" x1="32" y1="33" x2="32" y2="3" gradientUnits="userSpaceOnUse"><stop offset="0" stop-color="#7aa8d7"/><stop offset="1" stop-color="#c3d2e7"/></linearGradient><linearGradient id="linear-gradient-3" x1="32" y1="20" x2="32" y2="12" gradientUnits="userSpaceOnUse"><stop offset="0" stop-color="#474f72"/><stop offset="1" stop-color="#878c9f"/></linearGradient><linearGradient id="linear-gradient-4" x1="49" y1="61" x2="49" y2="33" gradientUnits="userSpaceOnUse"><stop offset="0" stop-color="#9dd5df"/><stop offset="1" stop-color="#c3e1f5"/></linearGradient><linearGradient id="linear-gradient-5" x1="49" y1="54" x2="49" y2="40" gradientUnits="userSpaceOnUse"><stop offset="0" stop-color="#da5466"/><stop offset="1" stop-color="#f4929c"/></linearGradient></defs><title>Eye Infected</title><g id="Eye_Infected" data-name="Eye Infected"><path class="cls-1" d="M49.61,33C55.74,30,60.5,25.41,63,20,59.91,13.31,53.36,7.9,45,5.09A41.72,41.72,0,0,0,19,5.09C10.64,7.9,4.09,13.31,1,20c4.57,9.91,16.73,17,31,17a41.7,41.7,0,0,0,8.08-.78Z"/><path class="cls-2" d="M49,16A17,17,0,1,1,19,5.09,41.72,41.72,0,0,1,45,5.09,16.93,16.93,0,0,1,49,16Z"/><circle class="cls-3" cx="32" cy="16" r="9"/><circle class="cls-4" cx="32" cy="16" r="4"/><circle class="cls-5" cx="49" cy="47" r="14"/><path class="cls-6" d="M54,43.05a1,1,0,0,1-.71-.29,1,1,0,0,1,0-1.42l2-2.05a1,1,0,0,1,1.42,1.42l-2.05,2A1,1,0,0,1,54,43.05Z"/><path class="cls-6" d="M42,55a1,1,0,0,1-.71-.29,1,1,0,0,1,0-1.42l2.05-2a1,1,0,0,1,1.42,1.42l-2,2.05A1,1,0,0,1,42,55Z"/><path class="cls-6" d="M56,55a1,1,0,0,1-.71-.29l-2-2.05a1,1,0,0,1,1.42-1.42l2.05,2a1,1,0,0,1,0,1.42A1,1,0,0,1,56,55Z"/><path class="cls-6" d="M44.05,43.05a1,1,0,0,1-.71-.29l-2.05-2a1,1,0,0,1,1.42-1.42l2,2.05a1,1,0,0,1,0,1.42A1,1,0,0,1,44.05,43.05Z"/><circle class="cls-7" cx="49" cy="47" r="7"/><path class="cls-6" d="M56,47a7,7,0,0,1-14,0,5.47,5.47,0,0,1,.08-1,7,7,0,0,0,13.84,0A5.47,5.47,0,0,1,56,47Z"/><path class="cls-6" d="M49,42a1,1,0,0,1-1-1V38a1,1,0,0,1,2,0v3A1,1,0,0,1,49,42Z"/><path class="cls-6" d="M49,57a1,1,0,0,1-1-1V53a1,1,0,0,1,2,0v3A1,1,0,0,1,49,57Z"/><path class="cls-6" d="M58,48H55a1,1,0,0,1,0-2h3a1,1,0,0,1,0,2Z"/><path class="cls-6" d="M43,48H40a1,1,0,0,1,0-2h3a1,1,0,0,1,0,2Z"/><circle class="cls-6" cx="46.5" cy="45.5" r="1.5"/><circle class="cls-6" cx="52" cy="46" r="1"/><circle class="cls-6" cx="49" cy="49" r="1"/></g></svg>