<svg xmlns="http://www.w3.org/2000/svg" xmlns:xlink="http://www.w3.org/1999/xlink" viewBox="0 0 64 64"><defs><style>.cls-1{fill:url(#linear-gradient);}.cls-2{fill:#eab39b;}.cls-3{fill:url(#linear-gradient-2);}.cls-4{fill:#cf4055;}.cls-5{fill:url(#linear-gradient-3);}</style><linearGradient id="linear-gradient" x1="25" y1="44" x2="25" y2="1" gradientUnits="userSpaceOnUse"><stop offset="0" stop-color="#f2c4b0"/><stop offset="1" stop-color="#ffe3d7"/></linearGradient><linearGradient id="linear-gradient-2" x1="17" y1="63" x2="17" y2="45" gradientUnits="userSpaceOnUse"><stop offset="0" stop-color="#8cdd79"/><stop offset="1" stop-color="#d4e6b6"/></linearGradient><linearGradient id="linear-gradient-3" x1="53" y1="18" x2="53" y2="4" gradientUnits="userSpaceOnUse"><stop offset="0" stop-color="#da5466"/><stop offset="1" stop-color="#f4929c"/></linearGradient></defs><title>Flu</title><g id="Flu"><path class="cls-1" d="M34.83,1C36.09,8.52,37.91,16.91,40,19c3.54,3.54,9,8,9,14,0,8-6,10-10,10a8.76,8.76,0,0,1-6-2s-4,3-8,3-8-3-8-3a8.76,8.76,0,0,1-6,2C7,43,1,41,1,33c0-6,5.46-10.46,9-14,2.09-2.09,3.91-10.48,5.17-18Z"/><path class="cls-2" d="M49,33c0,8-6,10-10,10a8.76,8.76,0,0,1-6-2s-4,3-8,3-8-3-8-3a8.76,8.76,0,0,1-6,2C7,43,1,41,1,33a6.85,6.85,0,0,1,.05-.91C1.56,39.18,7.19,41,11,41a8.76,8.76,0,0,0,6-2s4,3,8,3,8-3,8-3a8.76,8.76,0,0,0,6,2c3.81,0,9.44-1.82,10-8.91A6.85,6.85,0,0,1,49,33Z"/><path class="cls-2" d="M25,44c-3.68,0-6-2-7.93-3.7C15.65,39.07,14.42,38,13,38c-2.44,0-3.31.72-3.32.73a1,1,0,0,1-1.4-.06,1,1,0,0,1,0-1.38C8.51,37.08,9.75,36,13,36c2.17,0,3.8,1.42,5.38,2.79C20.2,40.37,22.07,42,25,42s4.8-1.63,6.62-3.21C33.2,37.42,34.83,36,37,36c3.25,0,4.49,1.08,4.71,1.29a1,1,0,0,1-1.39,1.44c-.06,0-1-.73-3.32-.73-1.42,0-2.65,1.07-4.07,2.3C31,42,28.68,44,25,44Z"/><path class="cls-3" d="M23,57a6,6,0,0,1-12,0c0-5,6-12,6-12S23,52,23,57Z"/><path class="cls-4" d="M58,7.05a1,1,0,0,1-.71-.29,1,1,0,0,1,0-1.42l2-2a1,1,0,1,1,1.42,1.42L58.66,6.76A1,1,0,0,1,58,7.05Z"/><path class="cls-4" d="M46,19a1,1,0,0,1-.71-.29,1,1,0,0,1,0-1.42l2.05-2a1,1,0,0,1,1.42,1.42l-2,2.05A1,1,0,0,1,46,19Z"/><path class="cls-4" d="M60,19a1,1,0,0,1-.71-.29l-2-2.05a1,1,0,0,1,1.42-1.42l2.05,2a1,1,0,0,1,0,1.42A1,1,0,0,1,60,19Z"/><path class="cls-4" d="M48.05,7.05a1,1,0,0,1-.71-.29l-2.05-2a1,1,0,0,1,1.42-1.42l2,2.05a1,1,0,0,1,0,1.42A1,1,0,0,1,48.05,7.05Z"/><circle class="cls-5" cx="53" cy="11" r="7"/><path class="cls-4" d="M60,11a7,7,0,0,1-14,0,5.47,5.47,0,0,1,.08-1,7,7,0,0,0,13.84,0A5.47,5.47,0,0,1,60,11Z"/><path class="cls-4" d="M53,6a1,1,0,0,1-1-1V2a1,1,0,0,1,2,0V5A1,1,0,0,1,53,6Z"/><path class="cls-4" d="M53,21a1,1,0,0,1-1-1V17a1,1,0,0,1,2,0v3A1,1,0,0,1,53,21Z"/><path class="cls-4" d="M62,12H59a1,1,0,0,1,0-2h3a1,1,0,0,1,0,2Z"/><path class="cls-4" d="M47,12H44a1,1,0,0,1,0-2h3a1,1,0,0,1,0,2Z"/><circle class="cls-4" cx="50.5" cy="9.5" r="1.5"/><circle class="cls-4" cx="56" cy="10" r="1"/><circle class="cls-4" cx="53" cy="13" r="1"/></g></svg>