<svg xmlns="http://www.w3.org/2000/svg" xmlns:xlink="http://www.w3.org/1999/xlink" viewBox="0 0 64 64"><defs><style>.cls-1{fill:url(#linear-gradient);}.cls-2{fill:#eab39b;}.cls-3{fill:url(#linear-gradient-2);}.cls-4{fill:#cf4055;}.cls-5{fill:url(#linear-gradient-3);}</style><linearGradient id="linear-gradient" x1="21" y1="63" x2="21" y2="1" gradientUnits="userSpaceOnUse"><stop offset="0" stop-color="#f2c4b0"/><stop offset="1" stop-color="#ffe3d7"/></linearGradient><linearGradient id="linear-gradient-2" x1="47" y1="63" x2="47" y2="35" gradientUnits="userSpaceOnUse"><stop offset="0" stop-color="#9dd5df"/><stop offset="1" stop-color="#c3e1f5"/></linearGradient><linearGradient id="linear-gradient-3" x1="47" y1="56" x2="47" y2="42" gradientUnits="userSpaceOnUse"><stop offset="0" stop-color="#da5466"/><stop offset="1" stop-color="#f4929c"/></linearGradient></defs><title>Hand Infected</title><g id="Hand_Infected" data-name="Hand Infected"><path class="cls-1" d="M39,11.6V34.78c0,.94,0,1.87-.06,2.78L34,54.19V63H12V55.57A8,8,0,0,0,9.53,49.8,19,19,0,0,1,3,34.78V22a2,2,0,0,1,2-2,5.88,5.88,0,0,1,4,1.54A6,6,0,0,1,11,26V6.6a3.56,3.56,0,0,1,2.77-3.52A3.5,3.5,0,0,1,18,6.5v-2a3.5,3.5,0,0,1,4.23-3.42,3.36,3.36,0,0,1,1.77,1A3.67,3.67,0,0,1,25,4.6V6.5a3.5,3.5,0,0,1,4.23-3.42,3.36,3.36,0,0,1,1.77,1A3.67,3.67,0,0,1,32,6.6v4.9a3.5,3.5,0,0,1,4.23-3.42A3.56,3.56,0,0,1,39,11.6Z"/><path class="cls-2" d="M33,9.05V28a1,1,0,0,1-2,0V4.07A3.67,3.67,0,0,1,32,6.6v4.9A3.49,3.49,0,0,1,33,9.05Z"/><path class="cls-2" d="M26,4.05V28a1,1,0,0,1-2,0V2.07A3.67,3.67,0,0,1,25,4.6V6.5A3.49,3.49,0,0,1,26,4.05Z"/><path class="cls-2" d="M19,2.05V28a1,1,0,0,1-2,0V4.05A3.49,3.49,0,0,1,18,6.5v-2A3.49,3.49,0,0,1,19,2.05Z"/><path class="cls-2" d="M20,45a1,1,0,0,1-2,0,10.16,10.16,0,0,0-8-10l-.22,0A1,1,0,0,1,9,34V21.54A6,6,0,0,1,11,26v7.21A12.14,12.14,0,0,1,20,45Z"/><circle class="cls-3" cx="47" cy="49" r="14"/><path class="cls-4" d="M52,45.05a1,1,0,0,1-.71-.29,1,1,0,0,1,0-1.42l2-2.05a1,1,0,0,1,1.42,1.42l-2.05,2A1,1,0,0,1,52,45.05Z"/><path class="cls-4" d="M40,57a1,1,0,0,1-.71-.29,1,1,0,0,1,0-1.42l2.05-2a1,1,0,0,1,1.42,1.42l-2,2.05A1,1,0,0,1,40,57Z"/><path class="cls-4" d="M54,57a1,1,0,0,1-.71-.29l-2-2.05a1,1,0,0,1,1.42-1.42l2.05,2a1,1,0,0,1,0,1.42A1,1,0,0,1,54,57Z"/><path class="cls-4" d="M42.05,45.05a1,1,0,0,1-.71-.29l-2.05-2a1,1,0,0,1,1.42-1.42l2,2.05a1,1,0,0,1,0,1.42A1,1,0,0,1,42.05,45.05Z"/><circle class="cls-5" cx="47" cy="49" r="7"/><path class="cls-4" d="M54,49a7,7,0,0,1-14,0,5.47,5.47,0,0,1,.08-1,7,7,0,0,0,13.84,0A5.47,5.47,0,0,1,54,49Z"/><path class="cls-4" d="M47,44a1,1,0,0,1-1-1V40a1,1,0,0,1,2,0v3A1,1,0,0,1,47,44Z"/><path class="cls-4" d="M47,59a1,1,0,0,1-1-1V55a1,1,0,0,1,2,0v3A1,1,0,0,1,47,59Z"/><path class="cls-4" d="M56,50H53a1,1,0,0,1,0-2h3a1,1,0,0,1,0,2Z"/><path class="cls-4" d="M41,50H38a1,1,0,0,1,0-2h3a1,1,0,0,1,0,2Z"/><circle class="cls-4" cx="44.5" cy="47.5" r="1.5"/><circle class="cls-4" cx="50" cy="48" r="1"/><circle class="cls-4" cx="47" cy="51" r="1"/></g></svg>