<svg xmlns="http://www.w3.org/2000/svg" xmlns:xlink="http://www.w3.org/1999/xlink" viewBox="0 0 64 64"><defs><style>.cls-1{fill:url(#linear-gradient);}.cls-2{fill:url(#linear-gradient-2);}.cls-3{fill:#eab39b;}.cls-4{fill:url(#linear-gradient-3);}.cls-5{fill:url(#linear-gradient-4);}.cls-6{fill:url(#linear-gradient-5);}.cls-7{fill:url(#linear-gradient-6);}.cls-8{fill:#cf4055;}.cls-9{fill:url(#linear-gradient-7);}.cls-10{fill:url(#linear-gradient-8);}.cls-11{fill:url(#linear-gradient-9);}.cls-12{fill:url(#linear-gradient-10);}.cls-13{fill:url(#linear-gradient-11);}</style><linearGradient id="linear-gradient" x1="32" y1="43" x2="32" y2="30" gradientUnits="userSpaceOnUse"><stop offset="0" stop-color="#f2c4b0"/><stop offset="1" stop-color="#ffe3d7"/></linearGradient><linearGradient id="linear-gradient-2" y1="63" y2="43" xlink:href="#linear-gradient"/><linearGradient id="linear-gradient-3" x1="54" y1="43" x2="54" y2="30" xlink:href="#linear-gradient"/><linearGradient id="linear-gradient-4" x1="54" y1="63" x2="54" y2="43" xlink:href="#linear-gradient"/><linearGradient id="linear-gradient-5" x1="10" y1="43" x2="10" y2="30" xlink:href="#linear-gradient"/><linearGradient id="linear-gradient-6" x1="10" y1="63" x2="10" y2="43" xlink:href="#linear-gradient"/><linearGradient id="linear-gradient-7" x1="32" y1="23" x2="32" y2="5" gradientUnits="userSpaceOnUse"><stop offset="0" stop-color="#da5466"/><stop offset="1" stop-color="#f4929c"/></linearGradient><linearGradient id="linear-gradient-8" x1="41.19" y1="6.81" x2="41.19" y2="2.81" xlink:href="#linear-gradient-7"/><linearGradient id="linear-gradient-9" x1="22.81" y1="6.81" x2="22.81" y2="2.81" xlink:href="#linear-gradient-7"/><linearGradient id="linear-gradient-10" x1="41.19" y1="24.81" x2="41.19" y2="20.81" xlink:href="#linear-gradient-7"/><linearGradient id="linear-gradient-11" x1="22.81" y1="24.81" x2="22.81" y2="20.81" xlink:href="#linear-gradient-7"/></defs><title>Infected Crowd</title><g id="Infected_Crowd" data-name="Infected Crowd"><rect class="cls-1" x="27" y="30" width="10" height="13" rx="5"/><path class="cls-2" d="M42,49V61a2,2,0,0,1-2,2,1.85,1.85,0,0,1-.81-.18h0A2,2,0,0,1,38,61v2H26V61a2,2,0,0,1-1.18,1.82h0A1.85,1.85,0,0,1,24,63a2,2,0,0,1-2-2V49a6,6,0,0,1,6-6h8A6,6,0,0,1,42,49Z"/><path class="cls-3" d="M27.87,48.88V49l-.73,11-.2,3H26V47A1.88,1.88,0,0,1,27.87,48.88Z"/><path class="cls-3" d="M38,47V63h-.93l-.21-3-.73-11v-.12A1.88,1.88,0,0,1,38,47Z"/><path class="cls-3" d="M37,36v2a5,5,0,0,1-10,0V36a5,5,0,0,0,10,0Z"/><rect class="cls-4" x="49" y="30" width="10" height="13" rx="5"/><path class="cls-5" d="M64,49V61a2,2,0,0,1-2,2,1.85,1.85,0,0,1-.81-.18h0A2,2,0,0,1,60,61v2H48V61a2,2,0,0,1-1.18,1.82h0A1.85,1.85,0,0,1,46,63a2,2,0,0,1-2-2V49a6,6,0,0,1,6-6h8A6,6,0,0,1,64,49Z"/><path class="cls-3" d="M49.87,48.88V49l-.73,11-.2,3H48V47A1.88,1.88,0,0,1,49.87,48.88Z"/><path class="cls-3" d="M60,47V63h-.93l-.21-3-.73-11v-.12A1.88,1.88,0,0,1,60,47Z"/><path class="cls-3" d="M59,36v2a5,5,0,0,1-10,0V36a5,5,0,0,0,10,0Z"/><rect class="cls-6" x="5" y="30" width="10" height="13" rx="5"/><path class="cls-7" d="M20,49V61a2,2,0,0,1-2,2,1.85,1.85,0,0,1-.81-.18h0A2,2,0,0,1,16,61v2H4V61a2,2,0,0,1-1.18,1.82h0A1.85,1.85,0,0,1,2,63a2,2,0,0,1-2-2V49a6,6,0,0,1,6-6h8A6,6,0,0,1,20,49Z"/><path class="cls-3" d="M5.87,48.88V49L5.14,60l-.2,3H4V47A1.88,1.88,0,0,1,5.87,48.88Z"/><path class="cls-3" d="M16,47V63h-.93l-.21-3-.73-11v-.12A1.88,1.88,0,0,1,16,47Z"/><path class="cls-3" d="M15,36v2A5,5,0,0,1,5,38V36a5,5,0,0,0,10,0Z"/><path class="cls-8" d="M23,15H20a1,1,0,0,1,0-2h3a1,1,0,1,1,0,2Z"/><path class="cls-8" d="M44,15H41a1,1,0,0,1,0-2h3a1,1,0,0,1,0,2Z"/><path class="cls-8" d="M32,6a1,1,0,0,1-1-1V2a1,1,0,0,1,2,0V5A1,1,0,0,1,32,6Z"/><path class="cls-8" d="M32,26a1,1,0,0,1-1-1V22a1,1,0,1,1,2,0v3A1,1,0,0,1,32,26Z"/><circle class="cls-9" cx="32" cy="14" r="9"/><path class="cls-8" d="M38.36,20.36A9,9,0,0,1,23.06,13a9,9,0,0,0,17.88,0A8.92,8.92,0,0,1,38.36,20.36Z"/><path class="cls-8" d="M27.05,10.05a1,1,0,0,1-.7-.29L22.81,6.23a1,1,0,1,1,1.42-1.42l3.53,3.54a1,1,0,0,1,0,1.41A1,1,0,0,1,27.05,10.05Z"/><path class="cls-8" d="M40.48,23.48a1,1,0,0,1-.71-.29l-3.53-3.54a1,1,0,0,1,1.41-1.41l3.54,3.54a1,1,0,0,1,0,1.41A1,1,0,0,1,40.48,23.48Z"/><path class="cls-8" d="M37,10.05a1,1,0,0,1-.71-.29,1,1,0,0,1,0-1.41l3.53-3.54a1,1,0,1,1,1.42,1.42L37.65,9.76A1,1,0,0,1,37,10.05Z"/><path class="cls-8" d="M23.52,23.48a1,1,0,0,1-.71-.29,1,1,0,0,1,0-1.41l3.54-3.54a1,1,0,0,1,1.41,1.41l-3.53,3.54A1,1,0,0,1,23.52,23.48Z"/><path class="cls-8" d="M28.47,15.29a2,2,0,0,1-1.42-3.41,2.06,2.06,0,0,1,2.83,0h0a2,2,0,0,1,0,2.83A2,2,0,0,1,28.47,15.29Zm0-2h0Z"/><circle class="cls-8" cx="34.83" cy="11.88" r="1.5"/><circle class="cls-8" cx="32" cy="18.24" r="1"/><path class="cls-10" d="M41.19,6.81a2,2,0,1,1,1.41-.58A2,2,0,0,1,41.19,6.81Zm0-2Z"/><path class="cls-11" d="M22.81,6.81a2,2,0,0,1-1.41-.58,2,2,0,1,1,1.41.58Zm0-2Z"/><path class="cls-12" d="M41.19,24.81a2,2,0,1,1,1.41-.58A2,2,0,0,1,41.19,24.81Zm0-2Z"/><path class="cls-13" d="M22.81,24.81a2,2,0,0,1-1.41-.58,2,2,0,1,1,1.41.58Zm0-2Z"/></g></svg>