<svg xmlns="http://www.w3.org/2000/svg" xmlns:xlink="http://www.w3.org/1999/xlink" viewBox="0 0 64 64"><defs><style>.cls-1{fill:url(#linear-gradient);}.cls-2{fill:url(#linear-gradient-2);}.cls-3{fill:#7ece67;}.cls-4{fill:url(#linear-gradient-3);}.cls-5{fill:#cf4055;}.cls-6{fill:url(#linear-gradient-4);}</style><linearGradient id="linear-gradient" x1="32" y1="63" x2="32" y2="42" gradientUnits="userSpaceOnUse"><stop offset="0" stop-color="#8cdd79"/><stop offset="1" stop-color="#d4e6b6"/></linearGradient><linearGradient id="linear-gradient-2" x1="32" y1="53" x2="32" y2="1" gradientUnits="userSpaceOnUse"><stop offset="0" stop-color="#7aa8d7"/><stop offset="1" stop-color="#c3d2e7"/></linearGradient><linearGradient id="linear-gradient-3" x1="32" y1="34" x2="32" y2="6" gradientUnits="userSpaceOnUse"><stop offset="0" stop-color="#d4d8e1"/><stop offset="1" stop-color="#f3f4f5"/></linearGradient><linearGradient id="linear-gradient-4" x1="32" y1="27" x2="32" y2="13" gradientUnits="userSpaceOnUse"><stop offset="0" stop-color="#da5466"/><stop offset="1" stop-color="#f4929c"/></linearGradient></defs><title>Location</title><g id="Location"><polygon class="cls-1" points="63 63 1 63 2.57 60 12 42 51 42 61.29 60 63 63"/><path class="cls-2" d="M13,20a19,19,0,0,1,38,0c0,15.83-19,33-19,33S13,35.83,13,20Z"/><polygon class="cls-3" points="63 63 1 63 2.57 60 61.29 60 63 63"/><circle class="cls-4" cx="32" cy="20" r="14"/><path class="cls-5" d="M37,16.05a1,1,0,0,1-.71-.29,1,1,0,0,1,0-1.42l2-2.05a1,1,0,0,1,1.42,1.42l-2.05,2A1,1,0,0,1,37,16.05Z"/><path class="cls-5" d="M25,28a1,1,0,0,1-.71-.29,1,1,0,0,1,0-1.42l2.05-2.05a1,1,0,0,1,1.42,1.42l-2.05,2.05A1,1,0,0,1,25,28Z"/><path class="cls-5" d="M39,28a1,1,0,0,1-.71-.29l-2-2.05a1,1,0,0,1,1.42-1.42l2.05,2.05a1,1,0,0,1,0,1.42A1,1,0,0,1,39,28Z"/><path class="cls-5" d="M27.05,16.05a1,1,0,0,1-.71-.29l-2.05-2a1,1,0,0,1,1.42-1.42l2.05,2.05a1,1,0,0,1,0,1.42A1,1,0,0,1,27.05,16.05Z"/><circle class="cls-6" cx="32" cy="20" r="7"/><path class="cls-5" d="M39,20a7,7,0,0,1-14,0,5.47,5.47,0,0,1,.08-1,7,7,0,0,0,13.84,0A5.47,5.47,0,0,1,39,20Z"/><path class="cls-5" d="M32,15a1,1,0,0,1-1-1V11a1,1,0,0,1,2,0v3A1,1,0,0,1,32,15Z"/><path class="cls-5" d="M32,30a1,1,0,0,1-1-1V26a1,1,0,0,1,2,0v3A1,1,0,0,1,32,30Z"/><path class="cls-5" d="M41,21H38a1,1,0,0,1,0-2h3a1,1,0,0,1,0,2Z"/><path class="cls-5" d="M26,21H23a1,1,0,0,1,0-2h3a1,1,0,0,1,0,2Z"/><circle class="cls-5" cx="29.5" cy="18.5" r="1.5"/><circle class="cls-5" cx="35" cy="19" r="1"/><circle class="cls-5" cx="32" cy="22" r="1"/></g></svg>