<svg xmlns="http://www.w3.org/2000/svg" xmlns:xlink="http://www.w3.org/1999/xlink" viewBox="0 0 64 64"><defs><style>.cls-1{fill:#dd8b37;}.cls-2{fill:url(#linear-gradient);}.cls-3{fill:url(#linear-gradient-2);}.cls-4{fill:url(#linear-gradient-3);}.cls-5{fill:url(#linear-gradient-4);}.cls-6{fill:url(#linear-gradient-5);}.cls-7{fill:url(#linear-gradient-6);}.cls-8{fill:url(#linear-gradient-7);}.cls-9{fill:url(#linear-gradient-8);}.cls-10{fill:url(#linear-gradient-9);}.cls-11{fill:url(#linear-gradient-10);}.cls-12{fill:#f6b756;}.cls-13{fill:#cf4055;}.cls-14{fill:url(#linear-gradient-11);}.cls-15{fill:url(#linear-gradient-12);}.cls-16{fill:url(#linear-gradient-13);}.cls-17{fill:url(#linear-gradient-14);}.cls-18{fill:url(#linear-gradient-15);}</style><linearGradient id="linear-gradient" x1="12" y1="63" x2="12" y2="41" gradientUnits="userSpaceOnUse"><stop offset="0" stop-color="#474f72"/><stop offset="1" stop-color="#878c9f"/></linearGradient><linearGradient id="linear-gradient-2" x1="52" x2="52" xlink:href="#linear-gradient"/><linearGradient id="linear-gradient-3" x1="14" y1="50" x2="50" y2="50" xlink:href="#linear-gradient"/><linearGradient id="linear-gradient-4" x1="32" y1="41" x2="32" y2="29" gradientUnits="userSpaceOnUse"><stop offset="0" stop-color="#e9a254"/><stop offset="1" stop-color="#f4bb79"/></linearGradient><linearGradient id="linear-gradient-5" x1="12" y1="26" x2="12" y2="22" gradientUnits="userSpaceOnUse"><stop offset="0" stop-color="#fbcc88"/><stop offset="1" stop-color="#ffe5c3"/></linearGradient><linearGradient id="linear-gradient-6" x1="52" x2="52" xlink:href="#linear-gradient-5"/><linearGradient id="linear-gradient-7" x1="11" y1="41" x2="11" y2="29" xlink:href="#linear-gradient-5"/><linearGradient id="linear-gradient-8" x1="25" y1="41" x2="25" y2="29" xlink:href="#linear-gradient-5"/><linearGradient id="linear-gradient-9" x1="39" y1="41" x2="39" y2="29" xlink:href="#linear-gradient-5"/><linearGradient id="linear-gradient-10" x1="53" y1="41" x2="53" y2="29" xlink:href="#linear-gradient-5"/><linearGradient id="linear-gradient-11" x1="32" y1="23" x2="32" y2="5" gradientUnits="userSpaceOnUse"><stop offset="0" stop-color="#da5466"/><stop offset="1" stop-color="#f4929c"/></linearGradient><linearGradient id="linear-gradient-12" x1="41.19" y1="6.81" x2="41.19" y2="2.81" xlink:href="#linear-gradient-11"/><linearGradient id="linear-gradient-13" x1="22.81" y1="25.19" x2="22.81" y2="21.19" xlink:href="#linear-gradient-11"/><linearGradient id="linear-gradient-14" x1="41.19" y1="25.19" x2="41.19" y2="21.19" xlink:href="#linear-gradient-11"/><linearGradient id="linear-gradient-15" x1="22.81" y1="6.81" x2="22.81" y2="2.81" xlink:href="#linear-gradient-11"/></defs><title>Lockdown Area</title><g id="Lockdown_Area" data-name="Lockdown Area"><path class="cls-1" d="M12,30a1,1,0,0,1-1-1V26a1,1,0,0,1,2,0v3A1,1,0,0,1,12,30Z"/><path class="cls-1" d="M52,30a1,1,0,0,1-1-1V26a1,1,0,0,1,2,0v3A1,1,0,0,1,52,30Z"/><rect class="cls-2" x="10" y="41" width="4" height="22"/><rect class="cls-3" x="50" y="41" width="4" height="22"/><rect class="cls-4" x="14" y="48" width="36" height="4"/><rect class="cls-5" x="5" y="29" width="54" height="12"/><rect class="cls-1" x="5" y="39" width="54" height="2"/><circle class="cls-6" cx="12" cy="24" r="2"/><circle class="cls-7" cx="52" cy="24" r="2"/><polygon class="cls-8" points="17 29 11 41 5 41 11 29 17 29"/><polygon class="cls-9" points="31 29 25 41 19 41 25 29 31 29"/><polygon class="cls-10" points="45 29 39 41 33 41 39 29 45 29"/><polygon class="cls-11" points="59 29 53 41 47 41 53 29 59 29"/><polygon class="cls-12" points="12 39 11 41 5 41 6 39 12 39"/><polygon class="cls-12" points="20 39 26 39 25 41 19 41 20 39"/><polygon class="cls-12" points="34 39 40 39 39 41 33 41 34 39"/><polygon class="cls-12" points="54 39 53 41 47 41 48 39 54 39"/><path class="cls-13" d="M23,15H20a1,1,0,1,1,0-2h3a1,1,0,1,1,0,2Z"/><path class="cls-13" d="M44,15H41a1,1,0,0,1,0-2h3a1,1,0,0,1,0,2Z"/><path class="cls-13" d="M32,6a1,1,0,0,1-1-1V2a1,1,0,0,1,2,0V5A1,1,0,0,1,32,6Z"/><path class="cls-13" d="M32,27a1,1,0,0,1-1-1V23a1,1,0,1,1,2,0v3A1,1,0,0,1,32,27Z"/><circle class="cls-14" cx="32" cy="14" r="9"/><path class="cls-13" d="M38.36,20.36A9,9,0,0,1,23.06,13a9,9,0,0,0,17.88,0A8.92,8.92,0,0,1,38.36,20.36Z"/><path class="cls-13" d="M27.05,10.05a1,1,0,0,1-.71-.29L22.81,6.22a1,1,0,0,1,1.41-1.41l3.54,3.53a1,1,0,0,1,0,1.42A1,1,0,0,1,27.05,10.05Z"/><path class="cls-13" d="M40.49,23.49a1,1,0,0,1-.71-.3l-3.54-3.53a1,1,0,0,1,1.42-1.42l3.53,3.54a1,1,0,0,1,0,1.41A1,1,0,0,1,40.49,23.49Z"/><path class="cls-13" d="M37,10.05a1,1,0,0,1-.71-.29,1,1,0,0,1,0-1.42l3.54-3.53a1,1,0,0,1,1.41,1.41L37.66,9.76A1,1,0,0,1,37,10.05Z"/><path class="cls-13" d="M23.51,23.49a1,1,0,0,1-.7-.3,1,1,0,0,1,0-1.41l3.53-3.54a1,1,0,0,1,1.42,1.42l-3.54,3.53A1,1,0,0,1,23.51,23.49Z"/><path class="cls-13" d="M28.46,15.29a2,2,0,0,1-1.41-.58,2,2,0,0,1,0-2.83,2,2,0,0,1,2.83,0h0a2,2,0,0,1,0,2.83A2,2,0,0,1,28.46,15.29Zm0-2Z"/><circle class="cls-13" cx="34.83" cy="11.88" r="1.5"/><circle class="cls-13" cx="32" cy="18.24" r="1"/><path class="cls-15" d="M41.19,6.81a2,2,0,1,1,1.42-.59A2,2,0,0,1,41.19,6.81Zm0-2Z"/><path class="cls-16" d="M22.81,25.19a2,2,0,1,1,1.41-.58A2,2,0,0,1,22.81,25.19Zm0-2Z"/><path class="cls-17" d="M41.19,25.19a2,2,0,0,1-1.41-.58,2,2,0,1,1,1.41.58Zm0-2Z"/><path class="cls-18" d="M22.81,6.81a2,2,0,1,1,1.41-.59A2,2,0,0,1,22.81,6.81Zm0-2Z"/></g></svg>