<svg xmlns="http://www.w3.org/2000/svg" xmlns:xlink="http://www.w3.org/1999/xlink" viewBox="0 0 64 64"><defs><style>.cls-1{fill:url(#linear-gradient);}.cls-2{fill:#d861b0;}.cls-3{fill:#cf4055;}.cls-4{fill:url(#linear-gradient-2);}.cls-5{fill:url(#linear-gradient-3);}.cls-6{fill:url(#linear-gradient-4);}.cls-7{fill:url(#linear-gradient-5);}.cls-8{fill:url(#linear-gradient-6);}.cls-9{fill:url(#linear-gradient-7);}.cls-10{fill:url(#linear-gradient-8);}.cls-11{fill:url(#linear-gradient-9);}</style><linearGradient id="linear-gradient" x1="32" y1="63" x2="32" y2="1" gradientUnits="userSpaceOnUse"><stop offset="0" stop-color="#d96bb0"/><stop offset="1" stop-color="#e49fc6"/></linearGradient><linearGradient id="linear-gradient-2" x1="53" y1="53" x2="53" y2="45" gradientUnits="userSpaceOnUse"><stop offset="0" stop-color="#da5466"/><stop offset="1" stop-color="#f4929c"/></linearGradient><linearGradient id="linear-gradient-3" x1="12" y1="41" x2="12" y2="33" xlink:href="#linear-gradient-2"/><linearGradient id="linear-gradient-4" x1="17.5" y1="53" x2="17.5" y2="48" xlink:href="#linear-gradient-2"/><linearGradient id="linear-gradient-5" x1="53.5" y1="38" x2="53.5" y2="33" xlink:href="#linear-gradient-2"/><linearGradient id="linear-gradient-6" x1="45" y1="42" x2="45" y2="38" xlink:href="#linear-gradient-2"/><linearGradient id="linear-gradient-7" x1="50" y1="25" x2="50" y2="21" xlink:href="#linear-gradient-2"/><linearGradient id="linear-gradient-8" x1="8" y1="54" x2="8" y2="50" xlink:href="#linear-gradient-2"/><linearGradient id="linear-gradient-9" x1="15" y1="26" x2="15" y2="22" xlink:href="#linear-gradient-2"/></defs><title>Lung Infected</title><g id="Lung_Infected" data-name="Lung Infected"><path class="cls-1" d="M50.28,15.11A7.87,7.87,0,0,0,44.91,13h0A5.89,5.89,0,0,0,39,18.89v4.34l-4-2.31V1H29V20.9l-4,2.31V18.89A5.89,5.89,0,0,0,19.13,13h0a7.87,7.87,0,0,0-5.37,2.12A40.13,40.13,0,0,0,1,44.41V56.93A6.08,6.08,0,0,0,7.07,63a6,6,0,0,0,1.82-.28l10.79-3.83A8,8,0,0,0,25,51.35V28.14l7-4,7,4v23.2a8,8,0,0,0,5.32,7.54l10.79,3.83a6,6,0,0,0,1.82.28A6.08,6.08,0,0,0,63,56.93V44.41A40.13,40.13,0,0,0,50.28,15.11Z"/><path class="cls-2" d="M43,31.46a1,1,0,0,1-.5-.13L32,25.26,21.5,31.32a1,1,0,0,1-1-1.74l11-6.34a1,1,0,0,1,1,0l11,6.35a1,1,0,0,1-.5,1.87Z"/><path class="cls-3" d="M12,34a1,1,0,0,1-1-1V31a1,1,0,0,1,2,0v2A1,1,0,0,1,12,34Z"/><path class="cls-3" d="M12,44a1,1,0,0,1-1-1V41a1,1,0,0,1,2,0v2A1,1,0,0,1,12,44Z"/><path class="cls-3" d="M8,38H6a1,1,0,0,1,0-2H8a1,1,0,0,1,0,2Z"/><path class="cls-3" d="M18,38H16a1,1,0,0,1,0-2h2a1,1,0,0,1,0,2Z"/><path class="cls-3" d="M53,46a1,1,0,0,1-1-1V43a1,1,0,0,1,2,0v2A1,1,0,0,1,53,46Z"/><path class="cls-3" d="M53,56a1,1,0,0,1-1-1V53a1,1,0,0,1,2,0v2A1,1,0,0,1,53,56Z"/><path class="cls-3" d="M49,50H47a1,1,0,0,1,0-2h2a1,1,0,0,1,0,2Z"/><path class="cls-3" d="M59,50H57a1,1,0,0,1,0-2h2a1,1,0,0,1,0,2Z"/><path class="cls-2" d="M25,48.35v3a8,8,0,0,1-5.32,7.54L8.89,62.72A6,6,0,0,1,7.07,63,6.08,6.08,0,0,1,1,56.93v-3A6.08,6.08,0,0,0,7.07,60a6,6,0,0,0,1.82-.28l10.79-3.83A8,8,0,0,0,25,48.35Z"/><path class="cls-2" d="M63,53.93v3A6.08,6.08,0,0,1,56.93,63a6,6,0,0,1-1.82-.28L44.32,58.89A8,8,0,0,1,39,51.35v-3a8,8,0,0,0,5.32,7.54l10.79,3.83a6,6,0,0,0,1.82.28A6.08,6.08,0,0,0,63,53.93Z"/><circle class="cls-4" cx="53" cy="49" r="4"/><path class="cls-3" d="M55.12,47.88a1,1,0,0,1-.71-.29,1,1,0,0,1,0-1.42l2.13-2.12A1,1,0,1,1,58,45.46l-2.12,2.13A1,1,0,0,1,55.12,47.88Z"/><path class="cls-3" d="M48.76,54.24a1,1,0,0,1-.71-.29,1,1,0,0,1,0-1.41l2.12-2.13a1,1,0,0,1,1.42,1.42L49.46,54A1,1,0,0,1,48.76,54.24Z"/><path class="cls-3" d="M50.88,47.88a1,1,0,0,1-.71-.29l-2.12-2.13a1,1,0,1,1,1.41-1.41l2.13,2.12a1,1,0,0,1,0,1.42A1,1,0,0,1,50.88,47.88Z"/><path class="cls-3" d="M57.24,54.24a1,1,0,0,1-.7-.29l-2.13-2.12a1,1,0,0,1,1.42-1.42L58,52.54A1,1,0,0,1,58,54,1,1,0,0,1,57.24,54.24Z"/><circle class="cls-5" cx="12" cy="37" r="4"/><path class="cls-3" d="M14.12,35.88a1,1,0,0,1-.71-.29,1,1,0,0,1,0-1.42l2.13-2.12A1,1,0,1,1,17,33.46l-2.12,2.13A1,1,0,0,1,14.12,35.88Z"/><path class="cls-3" d="M7.76,42.24A1,1,0,0,1,7.05,42a1,1,0,0,1,0-1.41l2.12-2.13a1,1,0,0,1,1.42,1.42L8.46,42A1,1,0,0,1,7.76,42.24Z"/><path class="cls-3" d="M9.88,35.88a1,1,0,0,1-.71-.29L7.05,33.46a1,1,0,1,1,1.41-1.41l2.13,2.12a1,1,0,0,1,0,1.42A1,1,0,0,1,9.88,35.88Z"/><path class="cls-3" d="M16.24,42.24a1,1,0,0,1-.7-.29l-2.13-2.12a1,1,0,0,1,1.42-1.42L17,40.54A1,1,0,0,1,17,42,1,1,0,0,1,16.24,42.24Z"/><circle class="cls-6" cx="17.5" cy="50.5" r="2.5"/><circle class="cls-7" cx="53.5" cy="35.5" r="2.5"/><path class="cls-8" d="M45,42a2,2,0,1,1,2-2A2,2,0,0,1,45,42Zm0-2h0Zm0,0h0Zm0,0h0Zm0,0h0Zm0,0h0Zm0,0h0Zm0,0h0Zm0,0h0Z"/><path class="cls-9" d="M50,25a2,2,0,1,1,2-2A2,2,0,0,1,50,25Zm0-2h0Zm0,0h0Zm0,0h0Zm0,0h0Zm0,0h0Zm0,0h0Zm0,0h0Zm0,0h0Z"/><path class="cls-10" d="M8,54a2,2,0,1,1,2-2A2,2,0,0,1,8,54Zm0-2H8Zm0,0H8Zm0,0H8Zm0,0H8Zm0,0H8Zm0,0H8Zm0,0H8Zm0,0H8Z"/><path class="cls-11" d="M15,26a2,2,0,1,1,2-2A2,2,0,0,1,15,26Zm0-2h0Zm0,0h0Zm0,0h0Zm0,0h0Zm0,0h0Zm0,0h0Zm0,0h0Zm0,0h0Z"/><path class="cls-2" d="M35,16.61V18.7a12.72,12.72,0,0,1-3,.3,12.72,12.72,0,0,1-3-.3V17a.6.6,0,0,0-.2-.48.77.77,0,0,0,.2.09A9.12,9.12,0,0,0,32,17,9.12,9.12,0,0,0,35,16.61Z"/><path class="cls-2" d="M35,11.61V13.7a12.72,12.72,0,0,1-3,.3,12.72,12.72,0,0,1-3-.3V11.61A9.12,9.12,0,0,0,32,12,9.12,9.12,0,0,0,35,11.61Z"/><path class="cls-2" d="M35,6.61V8.7A12.72,12.72,0,0,1,32,9a12.72,12.72,0,0,1-3-.3V6.61A9.12,9.12,0,0,0,32,7,9.12,9.12,0,0,0,35,6.61Z"/><path class="cls-2" d="M35,1.61V3.7A12.72,12.72,0,0,1,32,4a12.72,12.72,0,0,1-3-.3V1.61A9.12,9.12,0,0,0,32,2,9.12,9.12,0,0,0,35,1.61Z"/></g></svg>