<svg xmlns="http://www.w3.org/2000/svg" xmlns:xlink="http://www.w3.org/1999/xlink" viewBox="0 0 64 64"><defs><style>.cls-1{fill:url(#linear-gradient);}.cls-2{fill:url(#linear-gradient-2);}.cls-3{fill:url(#linear-gradient-3);}.cls-4{fill:#77cacb;}.cls-5{fill:url(#linear-gradient-4);}.cls-6{fill:#c7cdd8;}.cls-7{fill:url(#linear-gradient-5);}.cls-8{fill:url(#linear-gradient-6);}.cls-9{fill:#fff;}.cls-10{fill:url(#linear-gradient-7);}.cls-11{fill:#f6b756;}.cls-12{fill:#cf4055;}.cls-13{fill:url(#linear-gradient-8);}.cls-14{fill:url(#linear-gradient-9);}.cls-15{fill:url(#linear-gradient-10);}.cls-16{fill:url(#linear-gradient-11);}.cls-17{fill:url(#linear-gradient-12);}</style><linearGradient id="linear-gradient" x1="51.57" y1="63" x2="51.57" y2="47" gradientUnits="userSpaceOnUse"><stop offset="0" stop-color="#d4d8e1"/><stop offset="1" stop-color="#f3f4f5"/></linearGradient><linearGradient id="linear-gradient-2" x1="53.5" y1="58" x2="53.5" y2="47" gradientUnits="userSpaceOnUse"><stop offset="0" stop-color="#da5466"/><stop offset="1" stop-color="#f4929c"/></linearGradient><linearGradient id="linear-gradient-3" x1="1" y1="38" x2="37" y2="38" gradientUnits="userSpaceOnUse"><stop offset="0" stop-color="#9dd5df"/><stop offset="1" stop-color="#c3e1f5"/></linearGradient><linearGradient id="linear-gradient-4" x1="19" y1="13" x2="19" y2="1" xlink:href="#linear-gradient"/><linearGradient id="linear-gradient-5" x1="19" y1="54" x2="19" y2="32" xlink:href="#linear-gradient"/><linearGradient id="linear-gradient-6" x1="19" y1="50" x2="19" y2="36" gradientUnits="userSpaceOnUse"><stop offset="0" stop-color="#7aa8d7"/><stop offset="1" stop-color="#c3d2e7"/></linearGradient><linearGradient id="linear-gradient-7" x1="40" y1="63" x2="40" y2="49" gradientUnits="userSpaceOnUse"><stop offset="0" stop-color="#fbcc88"/><stop offset="1" stop-color="#ffe5c3"/></linearGradient><linearGradient id="linear-gradient-8" x1="51" y1="23" x2="51" y2="5" xlink:href="#linear-gradient-2"/><linearGradient id="linear-gradient-9" x1="60.19" y1="6.81" x2="60.19" y2="2.81" xlink:href="#linear-gradient-2"/><linearGradient id="linear-gradient-10" x1="41.81" y1="6.81" x2="41.81" y2="2.81" xlink:href="#linear-gradient-2"/><linearGradient id="linear-gradient-11" x1="60.19" y1="24.81" x2="60.19" y2="20.81" xlink:href="#linear-gradient-2"/><linearGradient id="linear-gradient-12" x1="41.81" y1="24.81" x2="41.81" y2="20.81" xlink:href="#linear-gradient-2"/></defs><title>Medicine</title><g id="Medicine"><path class="cls-1" d="M59,51.24a4.25,4.25,0,0,1-1.24,3l-7.52,7.52a4.24,4.24,0,0,1-6.11-.12l2.4-8.17,5.23-5.23a4.24,4.24,0,0,1,7.24,3Z"/><path class="cls-2" d="M59,51.24a4.25,4.25,0,0,1-1.24,3L54,58l-6-6,3.76-3.76a4.24,4.24,0,0,1,7.24,3Z"/><path class="cls-3" d="M36,61.7A4,4,0,0,1,33,63H5a4,4,0,0,1-4-4V27.26a4,4,0,0,1,1.94-3.43L11,19V13H27v6l8.06,4.83A4,4,0,0,1,37,27.26V49.68Z"/><rect class="cls-4" x="11" y="13" width="16" height="3"/><path class="cls-4" d="M37,46.68v3l-1,12A4,4,0,0,1,33,63H5a4,4,0,0,1-4-4V56a4,4,0,0,0,4,4H33a4,4,0,0,0,3-1.3Z"/><rect class="cls-5" x="9" y="1" width="20" height="12"/><path class="cls-6" d="M17,11a1,1,0,0,1-1-1V4a1,1,0,0,1,2,0v6A1,1,0,0,1,17,11Z"/><path class="cls-6" d="M21,11a1,1,0,0,1-1-1V4a1,1,0,0,1,2,0v6A1,1,0,0,1,21,11Z"/><path class="cls-6" d="M25,11a1,1,0,0,1-1-1V4a1,1,0,0,1,2,0v6A1,1,0,0,1,25,11Z"/><path class="cls-6" d="M13,11a1,1,0,0,1-1-1V4a1,1,0,0,1,2,0v6A1,1,0,0,1,13,11Z"/><polygon class="cls-7" points="37 54 1 54 1 32 37 32 37 49.68 37 54"/><circle class="cls-8" cx="19" cy="43" r="7"/><path class="cls-9" d="M22,42H20V40a1,1,0,0,0-2,0v2H16a1,1,0,0,0,0,2h2v2a1,1,0,0,0,2,0V44h2a1,1,0,0,0,0-2Z"/><rect class="cls-6" x="1" y="52" width="36" height="2"/><circle class="cls-10" cx="40" cy="56" r="7"/><path class="cls-11" d="M37,60a1,1,0,0,1-.71-.29,1,1,0,0,1,0-1.42l6-6a1,1,0,0,1,1.42,1.42l-6,6A1,1,0,0,1,37,60Z"/><path class="cls-12" d="M42,15H39a1,1,0,0,1,0-2h3a1,1,0,0,1,0,2Z"/><path class="cls-12" d="M63,15H60a1,1,0,0,1,0-2h3a1,1,0,0,1,0,2Z"/><path class="cls-12" d="M51,6a1,1,0,0,1-1-1V2a1,1,0,0,1,2,0V5A1,1,0,0,1,51,6Z"/><path class="cls-12" d="M51,26a1,1,0,0,1-1-1V22a1,1,0,1,1,2,0v3A1,1,0,0,1,51,26Z"/><circle class="cls-13" cx="51" cy="14" r="9"/><path class="cls-12" d="M57.36,20.36A9,9,0,0,1,42.06,13a9,9,0,0,0,17.88,0A8.92,8.92,0,0,1,57.36,20.36Z"/><path class="cls-12" d="M46.05,10.05a1,1,0,0,1-.7-.29L41.81,6.23a1,1,0,1,1,1.42-1.42l3.53,3.54a1,1,0,0,1,0,1.41A1,1,0,0,1,46.05,10.05Z"/><path class="cls-12" d="M59.48,23.48a1,1,0,0,1-.71-.29l-3.53-3.54a1,1,0,0,1,1.41-1.41l3.54,3.54a1,1,0,0,1,0,1.41A1,1,0,0,1,59.48,23.48Z"/><path class="cls-12" d="M56,10.05a1,1,0,0,1-.71-.29,1,1,0,0,1,0-1.41l3.53-3.54a1,1,0,1,1,1.42,1.42L56.65,9.76A1,1,0,0,1,56,10.05Z"/><path class="cls-12" d="M42.52,23.48a1,1,0,0,1-.71-.29,1,1,0,0,1,0-1.41l3.54-3.54a1,1,0,0,1,1.41,1.41l-3.53,3.54A1,1,0,0,1,42.52,23.48Z"/><path class="cls-12" d="M47.47,15.29a2,2,0,0,1-1.42-3.41,2.06,2.06,0,0,1,2.83,0h0a2,2,0,0,1,0,2.83A2,2,0,0,1,47.47,15.29Zm0-2h0Z"/><circle class="cls-12" cx="53.83" cy="11.88" r="1.5"/><circle class="cls-12" cx="51" cy="18.24" r="1"/><path class="cls-14" d="M60.19,6.81a2,2,0,1,1,1.41-.58A2,2,0,0,1,60.19,6.81Zm0-2Z"/><path class="cls-15" d="M41.81,6.81a2,2,0,0,1-1.41-.58,2,2,0,1,1,1.41.58Zm0-2Z"/><path class="cls-16" d="M60.19,24.81a2,2,0,1,1,1.41-.58A2,2,0,0,1,60.19,24.81Zm0-2Z"/><path class="cls-17" d="M41.81,24.81a2,2,0,0,1-1.41-.58,2,2,0,1,1,1.41.58Zm0-2Z"/></g></svg>