<svg xmlns="http://www.w3.org/2000/svg" xmlns:xlink="http://www.w3.org/1999/xlink" viewBox="0 0 64 64"><defs><style>.cls-1{fill:url(#linear-gradient);}.cls-2{fill:url(#linear-gradient-2);}.cls-3{fill:url(#linear-gradient-3);}.cls-4{fill:#c7cdd8;}.cls-5{fill:url(#linear-gradient-4);}.cls-6{fill:url(#linear-gradient-5);}.cls-7{fill:url(#linear-gradient-6);}.cls-8{fill:#5b8dc9;}.cls-9{fill:#8288a1;}.cls-10{fill:url(#linear-gradient-7);}.cls-11{fill:url(#linear-gradient-8);}.cls-12{fill:#9ca0ad;}.cls-13{fill:#cf4055;}.cls-14{fill:url(#linear-gradient-9);}.cls-15{fill:url(#linear-gradient-10);}.cls-16{fill:url(#linear-gradient-11);}.cls-17{fill:url(#linear-gradient-12);}.cls-18{fill:url(#linear-gradient-13);}.cls-19{fill:url(#linear-gradient-14);}.cls-20{fill:#42455e;}</style><linearGradient id="linear-gradient" x1="1.5" y1="6.25" x2="11" y2="6.25" gradientTransform="matrix(-0.71, -0.78, 0.71, -0.78, 7.25, 16.97)" gradientUnits="userSpaceOnUse"><stop offset="0" stop-color="#474f72"/><stop offset="1" stop-color="#878c9f"/></linearGradient><linearGradient id="linear-gradient-2" x1="28" y1="63" x2="28" y2="45" gradientUnits="userSpaceOnUse"><stop offset="0" stop-color="#7aa8d7"/><stop offset="1" stop-color="#c3d2e7"/></linearGradient><linearGradient id="linear-gradient-3" x1="25" y1="49" x2="45" y2="49" gradientTransform="translate(70 98) rotate(180)" gradientUnits="userSpaceOnUse"><stop offset="0" stop-color="#d4d8e1"/><stop offset="1" stop-color="#f3f4f5"/></linearGradient><linearGradient id="linear-gradient-4" x1="19.25" y1="31" x2="19.25" y2="6.5" xlink:href="#linear-gradient-2"/><linearGradient id="linear-gradient-5" x1="6.59" y1="10.8" x2="16" y2="10.8" gradientTransform="translate(10.85 24.5) rotate(-135)" gradientUnits="userSpaceOnUse"><stop offset="0" stop-color="#a0a6ba"/><stop offset="1" stop-color="#c6ccda"/></linearGradient><linearGradient id="linear-gradient-6" x1="23" y1="27.5" x2="33" y2="27.5" gradientTransform="translate(28.35 66.74) rotate(-135)" xlink:href="#linear-gradient-5"/><linearGradient id="linear-gradient-7" x1="1" y1="4.75" x2="8.5" y2="4.75" gradientTransform="matrix(1, 0, 0, 1, 0, 0)" xlink:href="#linear-gradient-5"/><linearGradient id="linear-gradient-8" x1="7.76" y1="54.44" x2="7.76" y2="22.31" gradientTransform="matrix(1, 0, 0, 1, 0, 0)" xlink:href="#linear-gradient-5"/><linearGradient id="linear-gradient-9" x1="50" y1="23" x2="50" y2="5" gradientUnits="userSpaceOnUse"><stop offset="0" stop-color="#da5466"/><stop offset="1" stop-color="#f4929c"/></linearGradient><linearGradient id="linear-gradient-10" x1="57.19" y1="4.81" x2="61.19" y2="4.81" xlink:href="#linear-gradient-9"/><linearGradient id="linear-gradient-11" x1="38.81" y1="23.19" x2="42.81" y2="23.19" xlink:href="#linear-gradient-9"/><linearGradient id="linear-gradient-12" x1="57.19" y1="23.19" x2="61.19" y2="23.19" xlink:href="#linear-gradient-9"/><linearGradient id="linear-gradient-13" x1="38.81" y1="4.81" x2="42.81" y2="4.81" xlink:href="#linear-gradient-9"/><linearGradient id="linear-gradient-14" x1="14" y1="29" x2="14" y2="19" gradientTransform="matrix(1, 0, 0, 1, 0, 0)" xlink:href="#linear-gradient"/></defs><title>Microscope</title><g id="Microscope"><rect class="cls-1" x="4.07" y="3.36" width="6.36" height="7.78" transform="translate(17.5 7.25) rotate(135)"/><path class="cls-2" d="M9,57v6H47V61a4,4,0,0,0-4-4H29a4,4,0,0,1-4-4V45H16l-1.31,2.24-3.21,5.5Z"/><rect class="cls-3" x="25" y="47" width="20" height="4" transform="translate(70 98) rotate(-180)"/><rect class="cls-4" x="25" y="49" width="20" height="2" transform="translate(70 100) rotate(-180)"/><polygon class="cls-5" points="31.5 21 21.5 31 19.75 29.25 17.78 27.28 10.72 20.22 7 16.5 17 6.5 31.5 21"/><path class="cls-6" d="M4.84,7.88H16.16a0,0,0,0,1,0,0v.4a3.84,3.84,0,0,1-3.84,3.84H8.69A3.84,3.84,0,0,1,4.84,8.28v-.4A0,0,0,0,1,4.84,7.88Z" transform="translate(25 9.65) rotate(135)"/><rect class="cls-7" x="23.05" y="25.38" width="9.9" height="4.24" transform="translate(67.24 27.15) rotate(135)"/><rect class="cls-8" x="18.55" y="23.89" width="14.14" height="2.47" transform="translate(-10.26 25.48) rotate(-45)"/><rect class="cls-9" x="28.17" y="28.38" width="5.66" height="4.24" transform="translate(74.49 30.15) rotate(135)"/><path class="cls-10" d="M2,8.5a1,1,0,0,1-.71-.29,1,1,0,0,1,0-1.42l5.5-5.5A1,1,0,0,1,8.21,2.71l-5.5,5.5A1,1,0,0,1,2,8.5Z"/><path class="cls-11" d="M14.52,47.54l-4,6.9a16.58,16.58,0,0,1-1.67-1.1A19,19,0,0,1,7,24.15a17.48,17.48,0,0,1,2.28-1.84h0L13.7,29a10.66,10.66,0,0,0-1.88,1.67,11,11,0,0,0,1.06,15.73A10.35,10.35,0,0,0,14.52,47.54Z"/><path class="cls-12" d="M13.7,29a10.66,10.66,0,0,0-1.88,1.67A7,7,0,0,1,7,24.15a17.48,17.48,0,0,1,2.28-1.84h0Z"/><path class="cls-13" d="M41,15H38a1,1,0,0,1,0-2h3a1,1,0,0,1,0,2Z"/><path class="cls-13" d="M62,15H59a1,1,0,0,1,0-2h3a1,1,0,0,1,0,2Z"/><path class="cls-13" d="M50,6a1,1,0,0,1-1-1V2a1,1,0,0,1,2,0V5A1,1,0,0,1,50,6Z"/><path class="cls-13" d="M50,27a1,1,0,0,1-1-1V23a1,1,0,1,1,2,0v3A1,1,0,0,1,50,27Z"/><circle class="cls-14" cx="50" cy="14" r="9"/><path class="cls-13" d="M56.36,20.36A9,9,0,0,1,41.06,13a9,9,0,0,0,17.88,0A8.92,8.92,0,0,1,56.36,20.36Z"/><path class="cls-13" d="M45.05,10.05a1,1,0,0,1-.71-.29L40.81,6.22a1,1,0,0,1,1.41-1.41l3.54,3.53a1,1,0,0,1,0,1.42A1,1,0,0,1,45.05,10.05Z"/><path class="cls-13" d="M58.49,23.49a1,1,0,0,1-.71-.3l-3.54-3.53a1,1,0,0,1,1.42-1.42l3.53,3.54a1,1,0,0,1,0,1.41A1,1,0,0,1,58.49,23.49Z"/><path class="cls-13" d="M55,10.05a1,1,0,0,1-.71-.29,1,1,0,0,1,0-1.42l3.54-3.53a1,1,0,0,1,1.41,1.41L55.66,9.76A1,1,0,0,1,55,10.05Z"/><path class="cls-13" d="M41.51,23.49a1,1,0,0,1-.7-.3,1,1,0,0,1,0-1.41l3.53-3.54a1,1,0,0,1,1.42,1.42l-3.54,3.53A1,1,0,0,1,41.51,23.49Z"/><path class="cls-13" d="M46.46,15.29a2,2,0,0,1-1.41-.58,2,2,0,0,1,0-2.83,2,2,0,0,1,2.83,0h0a2,2,0,0,1,0,2.83A2,2,0,0,1,46.46,15.29Zm0-2Z"/><circle class="cls-13" cx="52.83" cy="11.88" r="1.5"/><circle class="cls-13" cx="50" cy="18.24" r="1"/><path class="cls-15" d="M59.19,6.81a2,2,0,1,1,1.42-.59A2,2,0,0,1,59.19,6.81Zm0-2Z"/><path class="cls-16" d="M40.81,25.19a2,2,0,1,1,1.41-.58A2,2,0,0,1,40.81,25.19Zm0-2Z"/><path class="cls-17" d="M59.19,25.19a2,2,0,0,1-1.41-.58,2,2,0,1,1,1.41.58Zm0-2Z"/><path class="cls-18" d="M40.81,6.81a2,2,0,1,1,1.41-.59A2,2,0,0,1,40.81,6.81Zm0-2Z"/><circle class="cls-19" cx="14" cy="24" r="5"/><path class="cls-20" d="M14,26a2,2,0,1,1,2-2A2,2,0,0,1,14,26Zm0-2Z"/><rect class="cls-8" x="9" y="61" width="38" height="2"/><path class="cls-9" d="M14.52,47.54l-4,6.9a16.58,16.58,0,0,1-1.67-1.1l.93-1.61,3.13-5.35A10.35,10.35,0,0,0,14.52,47.54Z"/></g></svg>