<svg xmlns="http://www.w3.org/2000/svg" xmlns:xlink="http://www.w3.org/1999/xlink" viewBox="0 0 64 64"><defs><style>.cls-1{fill:url(#linear-gradient);}.cls-2{fill:url(#linear-gradient-2);}.cls-3{fill:#d861b0;}.cls-4{fill:url(#linear-gradient-3);}.cls-5{fill:#cf4055;}.cls-6{fill:url(#linear-gradient-4);}.cls-7{fill:url(#linear-gradient-5);}</style><linearGradient id="linear-gradient" x1="32" y1="19.6" x2="32" y2="10" gradientUnits="userSpaceOnUse"><stop offset="0" stop-color="#da5466"/><stop offset="1" stop-color="#f4929c"/></linearGradient><linearGradient id="linear-gradient-2" x1="32" y1="10.28" x2="32" y2="52" gradientUnits="userSpaceOnUse"><stop offset="0" stop-color="#d96bb0"/><stop offset="1" stop-color="#e49fc6"/></linearGradient><linearGradient id="linear-gradient-3" y1="13" y2="1" xlink:href="#linear-gradient"/><linearGradient id="linear-gradient-4" x1="49" y1="63" x2="49" y2="35" gradientUnits="userSpaceOnUse"><stop offset="0" stop-color="#9dd5df"/><stop offset="1" stop-color="#c3e1f5"/></linearGradient><linearGradient id="linear-gradient-5" x1="49" y1="56" x2="49" y2="42" xlink:href="#linear-gradient"/></defs><title>Mouth Infected</title><g id="Mouth_Infected" data-name="Mouth Infected"><path class="cls-1" d="M49,19.6A144.42,144.42,0,0,1,63,10c-17.86,5.18-43.94,5.24-62,0a139.52,139.52,0,0,1,14,9.6Z"/><path class="cls-2" d="M49,10.28V35L35.26,51.69A17,17,0,0,1,15,35V10.28Z"/><path class="cls-3" d="M32,39a1,1,0,0,1-1-1V13a1,1,0,0,1,2,0V38A1,1,0,0,1,32,39Z"/><path class="cls-3" d="M49,10.28v2c-9.81.48-12.15,1.43-13.58,2a8.59,8.59,0,0,1-6.84,0c-1.43-.59-3.77-1.54-13.58-2v-2Z"/><path class="cls-4" d="M63,10c-31,0-26.41,3-31,3s0-3-31-3c4.59,0,13.78-9,20.67-9S29.7,3,32,3s3.44-2,10.33-2S58.41,10,63,10Z"/><path class="cls-5" d="M15,10.28v3.78l-.12,0h-.06L1,10C6.82,10,11.39,10.11,15,10.28Z"/><path class="cls-5" d="M63,10,49.23,14l-.23.06V10.28C52.61,10.11,57.18,10,63,10Z"/><circle class="cls-6" cx="49" cy="49" r="14"/><path class="cls-5" d="M54,45.05a1,1,0,0,1-.71-.29,1,1,0,0,1,0-1.42l2-2.05a1,1,0,0,1,1.42,1.42l-2.05,2A1,1,0,0,1,54,45.05Z"/><path class="cls-5" d="M42,57a1,1,0,0,1-.71-.29,1,1,0,0,1,0-1.42l2.05-2a1,1,0,0,1,1.42,1.42l-2,2.05A1,1,0,0,1,42,57Z"/><path class="cls-5" d="M56,57a1,1,0,0,1-.71-.29l-2-2.05a1,1,0,0,1,1.42-1.42l2.05,2a1,1,0,0,1,0,1.42A1,1,0,0,1,56,57Z"/><path class="cls-5" d="M44.05,45.05a1,1,0,0,1-.71-.29l-2.05-2a1,1,0,0,1,1.42-1.42l2,2.05a1,1,0,0,1,0,1.42A1,1,0,0,1,44.05,45.05Z"/><circle class="cls-7" cx="49" cy="49" r="7"/><path class="cls-5" d="M56,49a7,7,0,0,1-14,0,5.47,5.47,0,0,1,.08-1,7,7,0,0,0,13.84,0A5.47,5.47,0,0,1,56,49Z"/><path class="cls-5" d="M49,44a1,1,0,0,1-1-1V40a1,1,0,0,1,2,0v3A1,1,0,0,1,49,44Z"/><path class="cls-5" d="M49,59a1,1,0,0,1-1-1V55a1,1,0,0,1,2,0v3A1,1,0,0,1,49,59Z"/><path class="cls-5" d="M58,50H55a1,1,0,0,1,0-2h3a1,1,0,0,1,0,2Z"/><path class="cls-5" d="M43,50H40a1,1,0,0,1,0-2h3a1,1,0,0,1,0,2Z"/><circle class="cls-5" cx="46.5" cy="47.5" r="1.5"/><circle class="cls-5" cx="52" cy="48" r="1"/><circle class="cls-5" cx="49" cy="51" r="1"/></g></svg>