<svg xmlns="http://www.w3.org/2000/svg" xmlns:xlink="http://www.w3.org/1999/xlink" viewBox="0 0 64 64"><defs><style>.cls-1{fill:#f6b756;}.cls-2{fill:url(#linear-gradient);}.cls-3{fill:url(#linear-gradient-2);}.cls-4{fill:#5b8dc9;}.cls-5{fill:url(#linear-gradient-3);}.cls-6{fill:url(#linear-gradient-4);}.cls-7{fill:url(#linear-gradient-5);}.cls-8{fill:url(#linear-gradient-6);}.cls-9{fill:url(#linear-gradient-7);}.cls-10{fill:url(#linear-gradient-8);}.cls-11{fill:url(#linear-gradient-9);}.cls-12{fill:#cf4055;}.cls-13{fill:url(#linear-gradient-10);}.cls-14{fill:url(#linear-gradient-11);}.cls-15{fill:url(#linear-gradient-12);}.cls-16{fill:url(#linear-gradient-13);}.cls-17{fill:url(#linear-gradient-14);}</style><linearGradient id="linear-gradient" x1="9.5" y1="63" x2="9.5" y2="32" gradientUnits="userSpaceOnUse"><stop offset="0" stop-color="#7aa8d7"/><stop offset="1" stop-color="#c3d2e7"/></linearGradient><linearGradient id="linear-gradient-2" x1="26.5" y1="32" x2="26.5" y2="1" xlink:href="#linear-gradient"/><linearGradient id="linear-gradient-3" x1="18" x2="18" y2="1" xlink:href="#linear-gradient"/><linearGradient id="linear-gradient-4" x1="12" y1="5" x2="12" y2="1" gradientUnits="userSpaceOnUse"><stop offset="0" stop-color="#da5466"/><stop offset="1" stop-color="#f4929c"/></linearGradient><linearGradient id="linear-gradient-5" x1="24" y1="13" x2="24" y2="9" xlink:href="#linear-gradient-4"/><linearGradient id="linear-gradient-6" x1="18" y1="21" x2="18" y2="17" xlink:href="#linear-gradient-4"/><linearGradient id="linear-gradient-7" x1="14" y1="47" x2="14" y2="43" xlink:href="#linear-gradient-4"/><linearGradient id="linear-gradient-8" x1="24" y1="55" x2="24" y2="51" xlink:href="#linear-gradient-4"/><linearGradient id="linear-gradient-9" x1="18" y1="63" x2="18" y2="59" xlink:href="#linear-gradient-4"/><linearGradient id="linear-gradient-10" x1="50" y1="41" x2="50" y2="23" xlink:href="#linear-gradient-4"/><linearGradient id="linear-gradient-11" x1="59.19" y1="24.81" x2="59.19" y2="20.81" xlink:href="#linear-gradient-4"/><linearGradient id="linear-gradient-12" x1="40.81" y1="24.81" x2="40.81" y2="20.81" xlink:href="#linear-gradient-4"/><linearGradient id="linear-gradient-13" x1="59.19" y1="42.81" x2="59.19" y2="38.81" xlink:href="#linear-gradient-4"/><linearGradient id="linear-gradient-14" x1="40.81" y1="42.81" x2="40.81" y2="38.81" xlink:href="#linear-gradient-4"/></defs><title>Mutation</title><g id="Mutation"><path class="cls-1" d="M31,2H14a1,1,0,0,0,0,2H31a1,1,0,1,0,0-2Z"/><path class="cls-1" d="M10,4a1,1,0,0,0,0-2H5A1,1,0,1,0,5,4Z"/><path class="cls-1" d="M23,11a1,1,0,0,0-1-1H5.41a1,1,0,0,0,0,2H22A1,1,0,0,0,23,11Z"/><path class="cls-1" d="M30.59,10H26a1,1,0,0,0,0,2h4.59a1,1,0,1,0,0-2Z"/><path class="cls-1" d="M16,18H7.25a1,1,0,0,0,0,2H16a1,1,0,0,0,0-2Z"/><path class="cls-1" d="M28.76,18H20a1,1,0,0,0,0,2h8.76a1,1,0,1,0,0-2Z"/><path class="cls-1" d="M28.75,46H16a1,1,0,0,1,0-2H28.75a1,1,0,0,1,0,2Z"/><path class="cls-1" d="M12,46H7.24a1,1,0,0,1,0-2H12a1,1,0,0,1,0,2Z"/><path class="cls-1" d="M22,54H5.41a1,1,0,1,1,0-2H22a1,1,0,0,1,0,2Z"/><path class="cls-1" d="M30.59,54H26a1,1,0,0,1,0-2h4.59a1,1,0,1,1,0,2Z"/><path class="cls-1" d="M16,62H5a1,1,0,1,1,0-2H16a1,1,0,0,1,0,2Z"/><path class="cls-1" d="M31,62H20a1,1,0,0,1,0-2H31a1,1,0,1,1,0,2Z"/><path class="cls-2" d="M18,32v2.2c-.81.37-1.56.76-2.27,1.17C5.83,41.09,5,50.56,5,63H1c0-12.18.9-22.94,10.68-29.79A20.68,20.68,0,0,1,13.55,32Z"/><path class="cls-3" d="M35,1c0,12.18-.9,22.94-10.68,29.79A20.68,20.68,0,0,1,22.45,32H18V29.8c.81-.37,1.56-.76,2.27-1.17C30.17,22.91,31,13.44,31,1Z"/><path class="cls-4" d="M13.55,32H18v2.2c-.81.37-1.56.76-2.27,1.17a32.72,32.72,0,0,1-4.05-2.16A20.68,20.68,0,0,1,13.55,32Z"/><path class="cls-4" d="M24.32,30.79A20.68,20.68,0,0,1,22.45,32H18V29.8c.81-.37,1.56-.76,2.27-1.17A32.72,32.72,0,0,1,24.32,30.79Z"/><path class="cls-5" d="M35,63H31c0-13.62-1-23.68-13.79-29.16C2.22,27.41,1,15.17,1,1H5C5,14.62,6,24.68,18.79,30.16,33.78,36.59,35,48.83,35,63Z"/><circle class="cls-6" cx="12" cy="3" r="2"/><circle class="cls-7" cx="24" cy="11" r="2"/><circle class="cls-8" cx="18" cy="19" r="2"/><circle class="cls-9" cx="14" cy="45" r="2"/><circle class="cls-10" cx="24" cy="53" r="2"/><circle class="cls-11" cx="18" cy="61" r="2"/><path class="cls-12" d="M41,33H38a1,1,0,0,1,0-2h3a1,1,0,0,1,0,2Z"/><path class="cls-12" d="M62,33H59a1,1,0,0,1,0-2h3a1,1,0,0,1,0,2Z"/><path class="cls-12" d="M50,24a1,1,0,0,1-1-1V20a1,1,0,0,1,2,0v3A1,1,0,0,1,50,24Z"/><path class="cls-12" d="M50,44a1,1,0,0,1-1-1V40a1,1,0,0,1,2,0v3A1,1,0,0,1,50,44Z"/><circle class="cls-13" cx="50" cy="32" r="9"/><path class="cls-12" d="M56.36,38.36A9,9,0,0,1,41.06,31a9,9,0,0,0,17.88,0A8.92,8.92,0,0,1,56.36,38.36Z"/><path class="cls-12" d="M45.05,28.05a1,1,0,0,1-.7-.29l-3.54-3.53a1,1,0,1,1,1.42-1.42l3.53,3.54a1,1,0,0,1,0,1.41A1,1,0,0,1,45.05,28.05Z"/><path class="cls-12" d="M58.48,41.48a1,1,0,0,1-.71-.29l-3.53-3.54a1,1,0,0,1,1.41-1.41l3.54,3.54a1,1,0,0,1,0,1.41A1,1,0,0,1,58.48,41.48Z"/><path class="cls-12" d="M55,28.05a1,1,0,0,1-.71-.29,1,1,0,0,1,0-1.41l3.53-3.54a1,1,0,1,1,1.42,1.42l-3.54,3.53A1,1,0,0,1,55,28.05Z"/><path class="cls-12" d="M41.52,41.48a1,1,0,0,1-.71-.29,1,1,0,0,1,0-1.41l3.54-3.54a1,1,0,0,1,1.41,1.41l-3.53,3.54A1,1,0,0,1,41.52,41.48Z"/><path class="cls-12" d="M46.47,33.29a2,2,0,0,1-1.42-3.41,2.06,2.06,0,0,1,2.83,0h0a2,2,0,0,1,0,2.83A2,2,0,0,1,46.47,33.29Zm0-2h0Z"/><circle class="cls-12" cx="52.83" cy="29.88" r="1.5"/><circle class="cls-12" cx="50" cy="36.24" r="1"/><path class="cls-14" d="M59.19,24.81a2,2,0,1,1,1.41-.58A2,2,0,0,1,59.19,24.81Zm0-2Z"/><path class="cls-15" d="M40.81,24.81a2,2,0,0,1-1.41-.58,2,2,0,1,1,1.41.58Zm0-2Z"/><path class="cls-16" d="M59.19,42.81a2,2,0,1,1,1.41-.58A2,2,0,0,1,59.19,42.81Zm0-2Z"/><path class="cls-17" d="M40.81,42.81a2,2,0,0,1-1.41-.58,2,2,0,1,1,1.41.58Zm0-2Z"/></g></svg>