<svg xmlns="http://www.w3.org/2000/svg" xmlns:xlink="http://www.w3.org/1999/xlink" viewBox="0 0 64 64"><defs><style>.cls-1{fill:url(#linear-gradient);}.cls-2{fill:url(#linear-gradient-2);}.cls-3{fill:url(#linear-gradient-3);}.cls-4{fill:#eab39b;}</style><linearGradient id="linear-gradient" x1="32" y1="25" x2="32" y2="1" gradientUnits="userSpaceOnUse"><stop offset="0" stop-color="#da5466"/><stop offset="1" stop-color="#f4929c"/></linearGradient><linearGradient id="linear-gradient-2" x1="47.64" y1="62.54" x2="47.64" y2="25.28" gradientUnits="userSpaceOnUse"><stop offset="0" stop-color="#f2c4b0"/><stop offset="1" stop-color="#ffe3d7"/></linearGradient><linearGradient id="linear-gradient-3" x1="16.36" y1="62.54" x2="16.36" y2="25.28" xlink:href="#linear-gradient-2"/></defs><title>No Contact</title><g id="No_Contact" data-name="No Contact"><path class="cls-1" d="M32,1A12,12,0,1,0,44,13,12,12,0,0,0,32,1ZM24,13A8,8,0,0,1,36.06,6.11l-11,11A8,8,0,0,1,24,13Zm8,8a8,8,0,0,1-4.06-1.11l11-11A8,8,0,0,1,32,21Z"/><path class="cls-2" d="M63,25.28V41.92l-.81.81a6.31,6.31,0,0,0-1.58,2.83A12.28,12.28,0,0,1,57.45,51L46.62,61.86a2.18,2.18,0,0,1-2.9.23A2.11,2.11,0,0,1,43,61a2.08,2.08,0,0,1,.55-2l-1.69,1.69a2.28,2.28,0,0,1-1.95.65,1.84,1.84,0,0,1-1-.41,2.1,2.1,0,0,1-.16-3.12l-1.7,1.7a2.25,2.25,0,0,1-2,.62,1.82,1.82,0,0,1-.86-.39,2.1,2.1,0,0,1-.16-3.12l1.48-1.48.3-.3a2.1,2.1,0,0,1-3.12-.16,2.19,2.19,0,0,1,.24-2.9l9.9-9.9,1-1-1,0L38.2,40.7a3.37,3.37,0,0,1-3.36-3.36,1.71,1.71,0,0,1,.49-1.19,1.67,1.67,0,0,1,1.19-.49l7.93-.15.73-.36a7.64,7.64,0,0,1,4.56-.72,6.89,6.89,0,0,0,6-1.86Z"/><path class="cls-3" d="M28.16,54.82l1.78,1.78a2.1,2.1,0,0,1-.16,3.12,1.82,1.82,0,0,1-.86.39,2.25,2.25,0,0,1-2-.62l-1.7-1.7A2.1,2.1,0,0,1,25,60.91a1.84,1.84,0,0,1-1,.41,2.28,2.28,0,0,1-1.95-.65L20.44,59A2.08,2.08,0,0,1,21,61a2.11,2.11,0,0,1-.71,1.14,2.18,2.18,0,0,1-2.9-.23L6.55,51a12.28,12.28,0,0,1-3.16-5.47,6.31,6.31,0,0,0-1.58-2.83L1,41.92V25.28l7.29,7.29a6.89,6.89,0,0,0,6,1.86,7.64,7.64,0,0,1,4.56.72l.73.36,7.93.15a1.67,1.67,0,0,1,1.19.49,1.71,1.71,0,0,1,.49,1.19A3.37,3.37,0,0,1,25.8,40.7l-5.66.16L31,51.76a2.19,2.19,0,0,1,.24,2.9,2.1,2.1,0,0,1-3.12.16Z"/><path class="cls-4" d="M49.32,54.63,43,61a2.08,2.08,0,0,1,.55-2l-1.69,1.69a2.28,2.28,0,0,1-1.95.65,1,1,0,0,1,.23-.35l7.76-7.75a1,1,0,0,1,1.41,1.41Z"/><path class="cls-4" d="M46.35,51.66l-8.1,8.1a2.11,2.11,0,0,1,.56-2l-1.7,1.7a2.25,2.25,0,0,1-2,.62l9.86-9.86a1,1,0,0,1,1.41,1.41Z"/><path class="cls-4" d="M43.38,48.69,33.5,58.57a2.11,2.11,0,0,1,.56-2l1.48-1.48.3-.3a2.11,2.11,0,0,1-2,.56L42,47.28a1,1,0,0,1,1.42,0A1,1,0,0,1,43.38,48.69Z"/><path class="cls-4" d="M54.56,43.25a8.81,8.81,0,0,1-10.66-.09l-.65-.51a1,1,0,0,1-.39-.79l1-1a1,1,0,0,1,.61.21l.66.51a6.8,6.8,0,0,0,8.23.07,1,1,0,1,1,1.2,1.6Z"/><path class="cls-4" d="M24.08,61.32a2.28,2.28,0,0,1-1.95-.65L20.44,59A2.08,2.08,0,0,1,21,61l-6.31-6.32a1,1,0,1,1,1.41-1.41L23.85,61A1,1,0,0,1,24.08,61.32Z"/><path class="cls-4" d="M28.92,60.11a2.25,2.25,0,0,1-2-.62l-1.7-1.7a2.11,2.11,0,0,1,.56,2l-8.1-8.1a1,1,0,1,1,1.41-1.41Z"/><path class="cls-4" d="M30.5,58.57l-9.88-9.88a1,1,0,0,1,0-1.41,1,1,0,0,1,1.42,0l8.09,8.1a2.11,2.11,0,0,1-2-.56l1.78,1.78A2.11,2.11,0,0,1,30.5,58.57Z"/></g></svg>