<svg xmlns="http://www.w3.org/2000/svg" xmlns:xlink="http://www.w3.org/1999/xlink" viewBox="0 0 64 64"><defs><style>.cls-1{fill:url(#linear-gradient);}.cls-2{fill:url(#linear-gradient-2);}.cls-3{fill:url(#linear-gradient-3);}.cls-4{fill:#5b8dc9;}.cls-5{fill:url(#linear-gradient-4);}.cls-6{fill:url(#linear-gradient-5);}.cls-7{fill:url(#linear-gradient-6);}.cls-8{fill:url(#linear-gradient-8);}</style><linearGradient id="linear-gradient" x1="32" y1="63" x2="32" y2="1" gradientUnits="userSpaceOnUse"><stop offset="0" stop-color="#da5466"/><stop offset="1" stop-color="#f4929c"/></linearGradient><linearGradient id="linear-gradient-2" x1="43" y1="52.56" x2="34.29" y2="52.56" gradientUnits="userSpaceOnUse"><stop offset="0" stop-color="#7aa8d7"/><stop offset="1" stop-color="#c3d2e7"/></linearGradient><linearGradient id="linear-gradient-3" x1="21" y1="52.56" x2="29.71" y2="52.56" xlink:href="#linear-gradient-2"/><linearGradient id="linear-gradient-4" x1="32" y1="56" x2="32" y2="6" gradientUnits="userSpaceOnUse"><stop offset="0" stop-color="#d4d8e1"/><stop offset="1" stop-color="#f3f4f5"/></linearGradient><linearGradient id="linear-gradient-5" x1="37" y1="30" x2="58" y2="30" xlink:href="#linear-gradient-2"/><linearGradient id="linear-gradient-6" x1="27" y1="30" x2="6" y2="30" xlink:href="#linear-gradient-2"/><linearGradient id="linear-gradient-8" x1="32" y1="51.26" x2="32" y2="12.74" xlink:href="#linear-gradient"/></defs><title>No Flight</title><g id="No_Flight" data-name="No Flight"><path class="cls-1" d="M32,1A31,31,0,1,0,63,32,31,31,0,0,0,32,1ZM9.15,24.65c5-15.54,24.07-21.78,37.16-11.91L12.74,46.31A23.89,23.89,0,0,1,9.15,24.65Zm46,13.52a24.61,24.61,0,0,1-1.6,4.31,24,24,0,0,1-35.9,8.78L51.26,17.69A24,24,0,0,1,55.19,38.17Z"/><polyline class="cls-2" points="35.66 48.11 43 53 43 57 34.29 55.06"/><polygon class="cls-3" points="29.71 55.06 21 57 21 53 28.34 48.11 29.71 55.06"/><polygon class="cls-4" points="43 55 43 57 34.29 55.06 34.67 53.14 43 55"/><polygon class="cls-4" points="29.71 55.06 21 57 21 55 29.33 53.14 29.71 55.06"/><path class="cls-5" d="M37,32V37L35.78,48.19,35.25,53a3.24,3.24,0,0,1-1,2.05l-.08.08A3.26,3.26,0,0,1,28.75,53l-.53-4.82-.73-6.73L27,32.05V14.66a11.24,11.24,0,0,1,3.29-7.95,2.41,2.41,0,0,1,3.42,0,10.77,10.77,0,0,1,1.23,1.47h0a11.23,11.23,0,0,1,2,6.48V32Z"/><path class="cls-4" d="M32,59a1,1,0,0,1-1-1V52a1,1,0,0,1,2,0v6A1,1,0,0,1,32,59Z"/><polygon class="cls-6" points="58 34 58 39 41 34 37 34 37 21 37.65 21.4 43.76 25.19 55.98 32.75 58 34"/><polygon class="cls-7" points="27 32.05 27 21 6 34 6 39 8.8 38.18 23 34 25.05 34 27 32.05"/><polygon class="cls-6" points="58 34 58 39 41 34 37 34 37 21 37.65 21.4 43.76 25.19 55.98 32.75 58 34"/><polygon class="cls-4" points="58 37 58 39 41 34 37 34 37 32 41 32 58 37"/><polygon class="cls-4" points="27 32.05 25.05 34 23 34 8.8 38.18 6 39 6 37 8.8 36.18 23 32 25.05 32 27 32.05"/><path class="cls-8" d="M51.26,17.69,17.69,51.26l-5-4.95L46.31,12.74Z"/></g></svg>