<svg xmlns="http://www.w3.org/2000/svg" xmlns:xlink="http://www.w3.org/1999/xlink" viewBox="0 0 64 64"><defs><style>.cls-1{fill:url(#linear-gradient);}.cls-2{fill:#c7cdd8;}.cls-3{fill:url(#linear-gradient-2);}.cls-4{fill:#d7f1ff;}.cls-5{fill:#42455e;}.cls-6{fill:url(#linear-gradient-3);}.cls-7{fill:#8a6762;}.cls-8{fill:#77cacb;}.cls-9{fill:url(#linear-gradient-4);}.cls-10{fill:url(#linear-gradient-5);}</style><linearGradient id="linear-gradient" x1="32" y1="55" x2="32" y2="1" gradientUnits="userSpaceOnUse"><stop offset="0" stop-color="#d4d8e1"/><stop offset="1" stop-color="#f3f4f5"/></linearGradient><linearGradient id="linear-gradient-2" x1="32" y1="50" x2="32" y2="21.77" gradientUnits="userSpaceOnUse"><stop offset="0" stop-color="#f2c4b0"/><stop offset="1" stop-color="#ffe3d7"/></linearGradient><linearGradient id="linear-gradient-3" x1="32" y1="63" x2="32" y2="55" xlink:href="#linear-gradient"/><linearGradient id="linear-gradient-4" x1="32" y1="37" x2="32" y2="21" gradientUnits="userSpaceOnUse"><stop offset="0" stop-color="#a0a6ba"/><stop offset="1" stop-color="#c6ccda"/></linearGradient><linearGradient id="linear-gradient-5" x1="32" y1="50" x2="32" y2="34" gradientUnits="userSpaceOnUse"><stop offset="0" stop-color="#9dd5df"/><stop offset="1" stop-color="#c3e1f5"/></linearGradient></defs><title>Paramedic</title><g id="Paramedic"><path class="cls-1" d="M29,1h6A20,20,0,0,1,55,21V47a8,8,0,0,1-8,8H17a8,8,0,0,1-8-8V21A20,20,0,0,1,29,1Z"/><path class="cls-2" d="M55,44v3a8,8,0,0,1-8,8H17a8,8,0,0,1-8-8V44a8,8,0,0,0,8,8H47A8,8,0,0,0,55,44Z"/><path class="cls-3" d="M48,25.77V34A16,16,0,0,1,32,50h0A16,16,0,0,1,16,34V26a4,4,0,0,1,4-4l24-.2A4,4,0,0,1,48,25.77Z"/><path class="cls-4" d="M48,23.84v6.32A5.83,5.83,0,0,1,42.16,36h-2a10.5,10.5,0,0,0-4.73-1.77l-.78-2.33a2.77,2.77,0,0,0-5.26,0l-.78,2.33A10.5,10.5,0,0,0,23.86,36h-2A5.83,5.83,0,0,1,16,30.16V23.84A5.83,5.83,0,0,1,21.84,18H42.16A5.83,5.83,0,0,1,48,23.84Z"/><ellipse class="cls-5" cx="24.5" cy="30" rx="1.5" ry="2"/><ellipse class="cls-5" cx="39.5" cy="30" rx="1.5" ry="2"/><path class="cls-6" d="M63,63H1a12.32,12.32,0,0,1,11.54-8H51.46A12.32,12.32,0,0,1,63,63Z"/><path class="cls-7" d="M27.14,27.17a1,1,0,0,1-.7-.29,2.75,2.75,0,0,0-3.9,0,1,1,0,1,1-1.42-1.42,4.77,4.77,0,0,1,6.73,0,1,1,0,0,1,0,1.42A1,1,0,0,1,27.14,27.17Z"/><path class="cls-7" d="M42.17,27.17a1,1,0,0,1-.71-.29,2.75,2.75,0,0,0-3.9,0,1,1,0,0,1-1.41,0,1,1,0,0,1,0-1.42,4.77,4.77,0,0,1,6.73,0,1,1,0,0,1,0,1.42A1,1,0,0,1,42.17,27.17Z"/><path class="cls-8" d="M48,23.84v4A5.83,5.83,0,0,0,42.16,22H21.84A5.83,5.83,0,0,0,16,27.84v-4A5.83,5.83,0,0,1,21.84,18H42.16A5.83,5.83,0,0,1,48,23.84Z"/><path class="cls-2" d="M33,55v8H31V55a1,1,0,0,1,2,0Z"/><path class="cls-9" d="M42.16,37h-2a1,1,0,0,1-.6-.2,9.61,9.61,0,0,0-4.28-1.58,1,1,0,0,1-.8-.67l-.78-2.33a1.77,1.77,0,0,0-3.36,0l-.78,2.33a1,1,0,0,1-.8.67,9.61,9.61,0,0,0-4.28,1.58,1,1,0,0,1-.6.2h-2A6.85,6.85,0,0,1,15,30.16V27.84A6.85,6.85,0,0,1,21.84,21H42.16A6.85,6.85,0,0,1,49,27.84v2.32A6.85,6.85,0,0,1,42.16,37Zm-1.7-2h1.7A4.84,4.84,0,0,0,47,30.16V27.84A4.84,4.84,0,0,0,42.16,23H21.84A4.84,4.84,0,0,0,17,27.84v2.32A4.84,4.84,0,0,0,21.84,35h1.7a11.29,11.29,0,0,1,4.29-1.65l.59-1.77a3.77,3.77,0,0,1,7.16,0l.59,1.77A11.29,11.29,0,0,1,40.46,35Z"/><path class="cls-10" d="M43,43c0,4-6,7-11,7s-11-3-11-7c0-2.83.65-5.35,2.86-7a10.5,10.5,0,0,1,4.73-1.77,25.39,25.39,0,0,1,6.82,0A10.5,10.5,0,0,1,40.14,36C42.35,37.65,43,40.17,43,43Z"/><path class="cls-8" d="M43,43c0,4-6,7-11,7s-11-3-11-7c0-.47,0-.92.06-1.37C21.64,45.31,27.29,48,32,48s10.36-2.69,10.94-6.37C43,42.08,43,42.53,43,43Z"/><path class="cls-8" d="M36,42H28a1,1,0,0,1,0-2h8a1,1,0,0,1,0,2Z"/><path class="cls-8" d="M36,46H28a1,1,0,0,1,0-2h8a1,1,0,0,1,0,2Z"/></g></svg>