<svg xmlns="http://www.w3.org/2000/svg" xmlns:xlink="http://www.w3.org/1999/xlink" viewBox="0 0 64 64"><defs><style>.cls-1{fill:#d7f1ff;}.cls-2{fill:url(#linear-gradient);}.cls-3{fill:#c7cdd8;}.cls-4{fill:#77cacb;}.cls-5{fill:#8288a1;}.cls-6{fill:url(#linear-gradient-2);}.cls-7{fill:url(#linear-gradient-3);}.cls-8{fill:url(#linear-gradient-4);}.cls-9{fill:url(#linear-gradient-5);}.cls-10{fill:url(#linear-gradient-6);}.cls-11{fill:url(#linear-gradient-7);}.cls-12{fill:url(#linear-gradient-8);}</style><linearGradient id="linear-gradient" x1="47" y1="63" x2="47" y2="13" gradientUnits="userSpaceOnUse"><stop offset="0" stop-color="#d4d8e1"/><stop offset="1" stop-color="#f3f4f5"/></linearGradient><linearGradient id="linear-gradient-2" x1="6.5" y1="63" x2="6.5" y2="50" gradientUnits="userSpaceOnUse"><stop offset="0" stop-color="#9dd5df"/><stop offset="1" stop-color="#c3e1f5"/></linearGradient><linearGradient id="linear-gradient-3" x1="21.5" x2="21.5" xlink:href="#linear-gradient-2"/><linearGradient id="linear-gradient-4" x1="7" y1="46" x2="7" y2="27" xlink:href="#linear-gradient-2"/><linearGradient id="linear-gradient-5" x1="21" y1="46" x2="21" y2="27" xlink:href="#linear-gradient-2"/><linearGradient id="linear-gradient-6" y1="13" y2="1" xlink:href="#linear-gradient"/><linearGradient id="linear-gradient-7" x1="14" y1="25" x2="14" xlink:href="#linear-gradient"/><linearGradient id="linear-gradient-8" x1="14" y1="11" x2="14" gradientUnits="userSpaceOnUse"><stop offset="0" stop-color="#a0a6ba"/><stop offset="1" stop-color="#c6ccda"/></linearGradient></defs><title>Protective Cloth</title><g id="Protective_Cloth" data-name="Protective Cloth"><path class="cls-1" d="M15,1H7A2,2,0,0,0,5,3V8a2,2,0,0,0,2,2h5l.66-1.32a1.5,1.5,0,0,1,2.68,0L16,10h5a2,2,0,0,0,2-2V3a2,2,0,0,0-2-2Z"/><path class="cls-2" d="M63,35l-4,2-.71-1.7L54,25l1,36,0,2H50l-.25-2h0L47,39,44.25,61h0L44,63H39l0-2,1-36L35.71,35.3,35,37l-4-2,.65-1.79,5.67-15.6A7,7,0,0,1,43.9,13h6.2a7,7,0,0,1,6.58,4.61l5.67,15.6Z"/><path class="cls-3" d="M63,35l-4,2-.71-1.7a.83.83,0,0,1,.26-.19l3.8-1.9Z"/><path class="cls-3" d="M55,63H50l-.25-2h0A1,1,0,0,1,50,61h5Z"/><path class="cls-3" d="M44.25,61h0L44,63H39l0-2h5A1,1,0,0,1,44.25,61Z"/><path class="cls-3" d="M35.71,35.3,35,37l-4-2,.65-1.79,3.8,1.9A.83.83,0,0,1,35.71,35.3Z"/><path class="cls-4" d="M47,33a1,1,0,0,1-1-1V13a1,1,0,0,1,2,0V32A1,1,0,0,1,47,33Z"/><path class="cls-3" d="M19,23a1,1,0,0,1,0-2c.51,0,5-.18,5-5a2.58,2.58,0,0,0-.52-1.79A.57.57,0,0,0,23,14c-1.25,0-3.44,1.83-4.3,2.7a1,1,0,1,1-1.42-1.4C17.62,15,20.57,12,23,12h0a2.68,2.68,0,0,1,1.87.78A4.37,4.37,0,0,1,26,16C26,21.54,21.42,23,19,23Z"/><path class="cls-3" d="M9,23c-2.42,0-7-1.46-7-7a4.37,4.37,0,0,1,1.11-3.22A2.75,2.75,0,0,1,5,12c2.42,0,5.37,3,5.7,3.3a1,1,0,1,1-1.42,1.4c-1-1-3.1-2.69-4.3-2.7a.57.57,0,0,0-.47.21A2.58,2.58,0,0,0,4,16c0,4.82,4.49,5,5,5a1,1,0,0,1,0,2Z"/><rect class="cls-5" x="23" y="3" width="4" height="5"/><rect class="cls-5" x="1" y="3" width="4" height="5"/><path class="cls-6" d="M5,50v7H5a4,4,0,0,0-4,4v2H12V50Z"/><path class="cls-7" d="M23,50v7h0a4,4,0,0,1,4,4v2H16V50Z"/><path class="cls-8" d="M14,34.24l-1,4s0,0,0,0a.07.07,0,0,0,0,0l-.29.88A6.39,6.39,0,0,1,10,42.58V45a1,1,0,0,1-1,1H3a1,1,0,0,1-1-1V42.57a4.58,4.58,0,0,1-2-3.81V31a1,1,0,0,1,2,0v3H3V29a1,1,0,0,1,2,0v5H6V28a1,1,0,0,1,2,0v6H9V30a1,1,0,0,1,2,0v6a1,1,0,0,0,.29.71l.74-3A1,1,0,0,1,13.24,33,1,1,0,0,1,14,34.24Z"/><path class="cls-9" d="M28,34.24V42a1,1,0,0,1-2,0V39H25v5a1,1,0,0,1-2,0V39H22v6a1,1,0,0,1-2,0V39H19v4a1,1,0,0,1-2,0V37a1,1,0,0,0-.29-.71l-.74,3A1,1,0,1,1,14,38.76l1-4s0,0,0,0a.07.07,0,0,0,0,0l.29-.88A6.39,6.39,0,0,1,18,30.42V28a1,1,0,0,1,1-1h6a1,1,0,0,1,1,1v2.43A4.58,4.58,0,0,1,28,34.24Z"/><path class="cls-10" d="M47,1h0a5,5,0,0,1,5,5v5a2,2,0,0,1-2,2H44a2,2,0,0,1-2-2V6a5,5,0,0,1,5-5Z"/><path class="cls-3" d="M52,9v2a2,2,0,0,1-2,2H44a2,2,0,0,1-2-2V9a2,2,0,0,0,2,2h6A2,2,0,0,0,52,9Z"/><path class="cls-11" d="M20,20c0,3-2.36,5-6,5s-6-2-6-5c0-3.24,2.62-7,6-7S20,16.76,20,20Z"/><path class="cls-3" d="M20,20c0,3-2.36,5-6,5s-6-2-6-5a6,6,0,0,1,.09-1c.45,2.48,2.67,4,5.91,4s5.46-1.55,5.91-4A6,6,0,0,1,20,20Z"/><rect class="cls-4" x="1" y="61" width="11" height="2"/><rect class="cls-4" x="16" y="61" width="11" height="2"/><path class="cls-12" d="M21,11H16a1,1,0,0,1-.89-.55l-.66-1.32a.5.5,0,0,0-.9,0l-.66,1.32A1,1,0,0,1,12,11H7A3,3,0,0,1,4,8V3A3,3,0,0,1,7,0H21a3,3,0,0,1,3,3V8A3,3,0,0,1,21,11ZM16.62,9H21a1,1,0,0,0,1-1V3a1,1,0,0,0-1-1H7A1,1,0,0,0,6,3V8A1,1,0,0,0,7,9h4.38l.38-.76a2.5,2.5,0,0,1,4.48,0Z"/></g></svg>