<svg xmlns="http://www.w3.org/2000/svg" xmlns:xlink="http://www.w3.org/1999/xlink" viewBox="0 0 64 64"><defs><style>.cls-1{fill:url(#linear-gradient);}.cls-2{fill:url(#linear-gradient-2);}.cls-3{fill:#77cacb;}.cls-4{fill:url(#linear-gradient-3);}.cls-5{fill:#cf4055;}.cls-6{fill:url(#linear-gradient-4);}</style><linearGradient id="linear-gradient" x1="23" y1="45" x2="23" y2="1" gradientUnits="userSpaceOnUse"><stop offset="0" stop-color="#a0a6ba"/><stop offset="1" stop-color="#c6ccda"/></linearGradient><linearGradient id="linear-gradient-2" x1="23" y1="40" x2="23" y2="6" gradientUnits="userSpaceOnUse"><stop offset="0" stop-color="#9dd5df"/><stop offset="1" stop-color="#c3e1f5"/></linearGradient><linearGradient id="linear-gradient-3" x1="51.73" y1="63" x2="51.73" y2="40.46" gradientUnits="userSpaceOnUse"><stop offset="0" stop-color="#474f72"/><stop offset="1" stop-color="#878c9f"/></linearGradient><linearGradient id="linear-gradient-4" x1="23" y1="30" x2="23" y2="16" gradientUnits="userSpaceOnUse"><stop offset="0" stop-color="#da5466"/><stop offset="1" stop-color="#f4929c"/></linearGradient></defs><title>Searching</title><g id="Searching"><path class="cls-1" d="M43.5,40.5,40,37a22,22,0,1,0-3,3L40.5,43.5"/><circle class="cls-2" cx="23" cy="23" r="17"/><path class="cls-3" d="M6,23a17,17,0,0,1,34,0c0,.33,0,.67,0,1A17,17,0,0,0,6,24C6,23.67,6,23.33,6,23Z"/><path class="cls-4" d="M63,59.46h0A3.53,3.53,0,0,1,59.46,63h0A3.54,3.54,0,0,1,57,62L41.5,46.5a3.54,3.54,0,0,1,0-5h0a3.54,3.54,0,0,1,5,0L62,57A3.54,3.54,0,0,1,63,59.46Z"/><path class="cls-5" d="M28,19.05a1,1,0,0,1-.71-.29,1,1,0,0,1,0-1.42l2.05-2.05a1,1,0,0,1,1.42,1.42l-2.05,2.05A1,1,0,0,1,28,19.05Z"/><path class="cls-5" d="M16,31a1,1,0,0,1-.71-.29,1,1,0,0,1,0-1.42l2.05-2.05a1,1,0,0,1,1.42,1.42l-2.05,2.05A1,1,0,0,1,16,31Z"/><path class="cls-5" d="M30,31a1,1,0,0,1-.71-.29l-2.05-2.05a1,1,0,0,1,1.42-1.42l2.05,2.05a1,1,0,0,1,0,1.42A1,1,0,0,1,30,31Z"/><path class="cls-5" d="M18.05,19.05a1,1,0,0,1-.71-.29l-2.05-2.05a1,1,0,0,1,1.42-1.42l2.05,2.05a1,1,0,0,1,0,1.42A1,1,0,0,1,18.05,19.05Z"/><circle class="cls-6" cx="23" cy="23" r="7"/><path class="cls-5" d="M30,23a7,7,0,0,1-14,0,5.47,5.47,0,0,1,.08-1,7,7,0,0,0,13.84,0A5.47,5.47,0,0,1,30,23Z"/><path class="cls-5" d="M23,18a1,1,0,0,1-1-1V14a1,1,0,0,1,2,0v3A1,1,0,0,1,23,18Z"/><path class="cls-5" d="M23,33a1,1,0,0,1-1-1V29a1,1,0,0,1,2,0v3A1,1,0,0,1,23,33Z"/><path class="cls-5" d="M32,24H29a1,1,0,0,1,0-2h3a1,1,0,0,1,0,2Z"/><path class="cls-5" d="M17,24H14a1,1,0,0,1,0-2h3a1,1,0,0,1,0,2Z"/><circle class="cls-5" cx="20.5" cy="21.5" r="1.5"/><circle class="cls-5" cx="26" cy="22" r="1"/><circle class="cls-5" cx="23" cy="25" r="1"/></g></svg>