<svg xmlns="http://www.w3.org/2000/svg" xmlns:xlink="http://www.w3.org/1999/xlink" viewBox="0 0 64 64"><defs><style>.cls-1{fill:url(#linear-gradient);}.cls-2{fill:#42455e;}.cls-3{fill:url(#linear-gradient-2);}.cls-4{fill:url(#linear-gradient-3);}.cls-5{fill:url(#linear-gradient-4);}.cls-6{fill:#cf4055;}.cls-7{fill:url(#linear-gradient-5);}.cls-8{fill:url(#linear-gradient-6);}.cls-9{fill:url(#linear-gradient-7);}.cls-10{fill:url(#linear-gradient-8);}.cls-11{fill:#77cacb;}.cls-12{fill:url(#linear-gradient-9);}.cls-13{fill:#eab39b;}.cls-14{fill:none;stroke:#231f20;stroke-linecap:round;stroke-linejoin:round;stroke-width:2px;}.cls-15{fill:url(#linear-gradient-10);}</style><linearGradient id="linear-gradient" x1="32" y1="63" x2="32" y2="57" gradientUnits="userSpaceOnUse"><stop offset="0" stop-color="#474f72"/><stop offset="1" stop-color="#878c9f"/></linearGradient><linearGradient id="linear-gradient-2" x1="32" y1="57" x2="32" y2="1" gradientUnits="userSpaceOnUse"><stop offset="0" stop-color="#9dd5df"/><stop offset="1" stop-color="#c3e1f5"/></linearGradient><linearGradient id="linear-gradient-3" x1="59.5" y1="26" x2="59.5" y2="21" gradientUnits="userSpaceOnUse"><stop offset="0" stop-color="#da5466"/><stop offset="1" stop-color="#f4929c"/></linearGradient><linearGradient id="linear-gradient-4" x1="58" y1="51" x2="58" y2="47" xlink:href="#linear-gradient-3"/><linearGradient id="linear-gradient-5" x1="53" y1="5" x2="53" y2="1" xlink:href="#linear-gradient-3"/><linearGradient id="linear-gradient-6" x1="5.5" y1="51" x2="5.5" y2="46" xlink:href="#linear-gradient-3"/><linearGradient id="linear-gradient-7" x1="5" y1="31" x2="5" y2="27" xlink:href="#linear-gradient-3"/><linearGradient id="linear-gradient-8" x1="9" y1="6" x2="9" y2="2" xlink:href="#linear-gradient-3"/><linearGradient id="linear-gradient-9" x1="32" y1="20" x2="32" y2="7" gradientUnits="userSpaceOnUse"><stop offset="0" stop-color="#f2c4b0"/><stop offset="1" stop-color="#ffe3d7"/></linearGradient><linearGradient id="linear-gradient-10" y1="57" y2="20" xlink:href="#linear-gradient-9"/></defs><title>Self Quarantine</title><g id="Self_Quarantine" data-name="Self Quarantine"><rect class="cls-1" x="9" y="57" width="46" height="6"/><rect class="cls-2" x="9" y="61" width="46" height="2"/><path class="cls-3" d="M32,1h0A20,20,0,0,1,52,21V57a0,0,0,0,1,0,0H12a0,0,0,0,1,0,0V21A20,20,0,0,1,32,1Z"/><circle class="cls-4" cx="59.5" cy="23.5" r="2.5"/><circle class="cls-5" cx="58" cy="49" r="2"/><circle class="cls-6" cx="62" cy="42" r="1"/><circle class="cls-6" cx="56.5" cy="34.5" r="1.5"/><circle class="cls-7" cx="53" cy="3" r="2"/><path class="cls-6" d="M60,13a2,2,0,1,1,2-2A2,2,0,0,1,60,13Zm0-2h0Zm0,0h0Zm0,0h0Zm0,0h0Zm0,0h0Zm0,0h0Zm0,0h0Zm0,0h0Z"/><circle class="cls-8" cx="5.5" cy="48.5" r="2.5"/><circle class="cls-9" cx="5" cy="29" r="2"/><circle class="cls-6" cx="7" cy="19" r="1"/><circle class="cls-6" cx="8.5" cy="37.5" r="1.5"/><circle class="cls-10" cx="9" cy="4" r="2"/><circle class="cls-6" cx="3" cy="11" r="2"/><rect class="cls-11" x="12" y="55" width="40" height="2"/><rect class="cls-12" x="27" y="7" width="10" height="13" rx="5"/><path class="cls-13" d="M37,13v2a5,5,0,0,1-10,0V13a5,5,0,0,0,10,0Z"/><polyline class="cls-14" points="26 38 26 36 26 25"/><line class="cls-14" x1="26" y1="38" x2="26" y2="36"/><path class="cls-15" d="M42,26V38a2,2,0,0,1-2,2,1.85,1.85,0,0,1-.81-.18h0A2,2,0,0,1,38,38V54l.21.11A3.21,3.21,0,0,1,40,57H33L32,38,31,57H24a3.21,3.21,0,0,1,1.79-2.89L26,54V38a2,2,0,0,1-1.18,1.82h0A1.85,1.85,0,0,1,24,40a2,2,0,0,1-2-2V26a6,6,0,0,1,6-6h8A6,6,0,0,1,42,26Z"/><path class="cls-13" d="M26,54V24h0a1.88,1.88,0,0,1,1.87,2Z"/><path class="cls-13" d="M38,54V24h0a1.88,1.88,0,0,0-1.87,2Z"/><path class="cls-13" d="M31.11,55,31,57H24a3.18,3.18,0,0,1,.7-2Z"/><path class="cls-13" d="M40,57H33l-.11-2H39.3A3.18,3.18,0,0,1,40,57Z"/></g></svg>