<svg xmlns="http://www.w3.org/2000/svg" xmlns:xlink="http://www.w3.org/1999/xlink" viewBox="0 0 64 64"><defs><style>.cls-1{fill:url(#linear-gradient);}.cls-2{fill:url(#linear-gradient-2);}.cls-3{fill:url(#linear-gradient-3);}.cls-4{fill:url(#linear-gradient-4);}.cls-5{fill:url(#linear-gradient-5);}.cls-6{fill:url(#linear-gradient-6);}</style><linearGradient id="linear-gradient" x1="52" y1="55" x2="52" y2="44" gradientUnits="userSpaceOnUse"><stop offset="0" stop-color="#8cdd79"/><stop offset="1" stop-color="#d4e6b6"/></linearGradient><linearGradient id="linear-gradient-2" x1="24.45" y1="63" x2="24.45" y2="1" gradientUnits="userSpaceOnUse"><stop offset="0" stop-color="#f2c4b0"/><stop offset="1" stop-color="#ffe3d7"/></linearGradient><linearGradient id="linear-gradient-3" x1="50" y1="26" x2="52" y2="26" gradientUnits="userSpaceOnUse"><stop offset="0" stop-color="#9dd5df"/><stop offset="1" stop-color="#c3e1f5"/></linearGradient><linearGradient id="linear-gradient-4" x1="58" y1="36" x2="64" y2="36" xlink:href="#linear-gradient-3"/><linearGradient id="linear-gradient-5" x1="55.66" y1="28.93" x2="60.49" y2="28.93" xlink:href="#linear-gradient-3"/><linearGradient id="linear-gradient-6" x1="55.66" y1="43.07" x2="60.49" y2="43.07" xlink:href="#linear-gradient-3"/></defs><title>Sneeze</title><g id="Sneeze"><path class="cls-1" d="M55.67,51.33a3.67,3.67,0,0,1-7.34,0C48.33,48.28,52,44,52,44S55.67,48.28,55.67,51.33Z"/><path class="cls-2" d="M28,63V55l6.17,1.76a6.05,6.05,0,0,0,1.69.24h0A6.14,6.14,0,0,0,42,50.86V49l1.81-.6A1.75,1.75,0,0,0,45,46.74h0A1.74,1.74,0,0,0,43.26,45h0A1.74,1.74,0,0,0,45,43.26v-.18a1.74,1.74,0,0,0-1-1.56L43,41V39l2.89-.58A2.63,2.63,0,0,0,48,35.84h0a2.63,2.63,0,0,0-.49-1.53l-3.58-5a2.69,2.69,0,0,1-.21-2.75h0A2.74,2.74,0,0,0,44,25.37V22.5A21.51,21.51,0,0,0,22.5,1h0A21.59,21.59,0,0,0,.91,22.5v1a30.87,30.87,0,0,0,2.38,12l.06.16A31,31,0,0,1,5.69,49.21C5.37,55.22,5,63,5,63"/><path class="cls-3" d="M51,29a1,1,0,0,1-1-1V24a1,1,0,0,1,2,0v4A1,1,0,0,1,51,29Z"/><path class="cls-4" d="M63,37H59a1,1,0,0,1,0-2h4a1,1,0,0,1,0,2Z"/><path class="cls-5" d="M56.66,31.34a1,1,0,0,1-.71-.29,1,1,0,0,1,0-1.41l2.83-2.83a1,1,0,0,1,1.41,1.41l-2.83,2.83A1,1,0,0,1,56.66,31.34Z"/><path class="cls-6" d="M59.49,45.49a1,1,0,0,1-.71-.3L56,42.36A1,1,0,0,1,57.36,41l2.83,2.83a1,1,0,0,1,0,1.41A1,1,0,0,1,59.49,45.49Z"/></g></svg>