<svg xmlns="http://www.w3.org/2000/svg" xmlns:xlink="http://www.w3.org/1999/xlink" viewBox="0 0 64 64"><defs><style>.cls-1{fill:url(#linear-gradient);}.cls-2{fill:none;stroke:#231f20;stroke-linecap:round;stroke-linejoin:round;stroke-width:2px;}.cls-3{fill:#cf4055;}.cls-4{fill:url(#linear-gradient-2);}.cls-5{fill:url(#linear-gradient-3);}.cls-6{fill:#eab39b;}.cls-7{fill:url(#linear-gradient-4);}.cls-8{fill:#f6b756;}</style><linearGradient id="linear-gradient" x1="11" y1="26" x2="11" y2="13" gradientUnits="userSpaceOnUse"><stop offset="0" stop-color="#f2c4b0"/><stop offset="1" stop-color="#ffe3d7"/></linearGradient><linearGradient id="linear-gradient-2" y1="63" y2="26" xlink:href="#linear-gradient"/><linearGradient id="linear-gradient-3" x1="53" y1="26" x2="53" y2="13" xlink:href="#linear-gradient"/><linearGradient id="linear-gradient-4" x1="53" y1="63" x2="53" y2="26" xlink:href="#linear-gradient"/></defs><title>Social Distance 2m</title><g id="Social_Distance_2m" data-name="Social Distance 2m"><rect class="cls-1" x="6" y="13" width="10" height="13" rx="5"/><polyline class="cls-2" points="5 44 5 42 5 31"/><path class="cls-3" d="M32,33a1,1,0,0,1-1-1V30a1,1,0,0,1,2,0v2A1,1,0,0,1,32,33Z"/><path class="cls-3" d="M32,27a1,1,0,0,1-1-1V24a1,1,0,0,1,2,0v2A1,1,0,0,1,32,27Z"/><path class="cls-3" d="M32,39a1,1,0,0,1-1-1V36a1,1,0,0,1,2,0v2A1,1,0,0,1,32,39Z"/><path class="cls-3" d="M32,45a1,1,0,0,1-1-1V42a1,1,0,0,1,2,0v2A1,1,0,0,1,32,45Z"/><path class="cls-3" d="M32,51a1,1,0,0,1-1-1V48a1,1,0,0,1,2,0v2A1,1,0,0,1,32,51Z"/><path class="cls-3" d="M32,57a1,1,0,0,1-1-1V54a1,1,0,0,1,2,0v2A1,1,0,0,1,32,57Z"/><path class="cls-3" d="M32,63a1,1,0,0,1-1-1V60a1,1,0,0,1,2,0v2A1,1,0,0,1,32,63Z"/><path class="cls-3" d="M53.92,4.38a1,1,0,0,0,0-.76,1,1,0,0,0-.21-.33l-3-3a1,1,0,0,0-1.42,1.42L50.59,3H13.41l1.3-1.29A1,1,0,1,0,13.29.29l-3,3a1,1,0,0,0-.21.33,1,1,0,0,0,0,.76,1,1,0,0,0,.21.33l3,3a1,1,0,0,0,1.42,0,1,1,0,0,0,0-1.42L13.41,5H50.59l-1.3,1.29a1,1,0,0,0,0,1.42,1,1,0,0,0,1.42,0l3-3A1,1,0,0,0,53.92,4.38Z"/><line class="cls-2" x1="5" y1="44" x2="5" y2="42"/><path class="cls-4" d="M21,32V44a2,2,0,0,1-2,2,1.85,1.85,0,0,1-.81-.18h0A2,2,0,0,1,17,44V60l.21.11A3.21,3.21,0,0,1,19,63H12L11,44,10,63H3a3.21,3.21,0,0,1,1.79-2.89L5,60V44a2,2,0,0,1-1.18,1.82h0A1.85,1.85,0,0,1,3,46a2,2,0,0,1-2-2V32a6,6,0,0,1,6-6h8A6,6,0,0,1,21,32Z"/><rect class="cls-5" x="48" y="13" width="10" height="13" rx="5"/><path class="cls-6" d="M16,19v2A5,5,0,0,1,6,21V19a5,5,0,0,0,10,0Z"/><path class="cls-6" d="M58,19v2a5,5,0,0,1-10,0V19a5,5,0,0,0,10,0Z"/><polyline class="cls-2" points="47 44 47 42 47 31"/><line class="cls-2" x1="47" y1="44" x2="47" y2="42"/><path class="cls-7" d="M63,32V44a2,2,0,0,1-2,2,1.85,1.85,0,0,1-.81-.18h0A2,2,0,0,1,59,44V60l.21.11A3.21,3.21,0,0,1,61,63H54L53,44,52,63H45a3.21,3.21,0,0,1,1.79-2.89L47,60V44a2,2,0,0,1-1.18,1.82h0A1.85,1.85,0,0,1,45,46a2,2,0,0,1-2-2V32a6,6,0,0,1,6-6h8A6,6,0,0,1,63,32Z"/><path class="cls-8" d="M26,12H25a3,3,0,0,0-1,.18V11a1,1,0,0,1,1-1h1a1,1,0,0,1,.87.5,1,1,0,1,0,1.72-1A3,3,0,0,0,26,8H25a3,3,0,0,0-3,3v4a3,3,0,0,0,3,3h1a3,3,0,0,0,0-6Zm0,4H25a1,1,0,0,1,0-2h1a1,1,0,0,1,0,2Z"/><path class="cls-8" d="M36,8H35a3,3,0,0,0-3,3v1a1,1,0,0,0,0,2v3a1,1,0,0,0,2,0V14h1a1,1,0,0,0,0-2H34V11a1,1,0,0,1,1-1h1a1,1,0,0,0,0-2Z"/><path class="cls-8" d="M41,16a1,1,0,0,1-1-1V14h1a1,1,0,0,0,0-2H40V11a1,1,0,0,0-2,0v1a1,1,0,0,0,0,2v1a3,3,0,0,0,3,3,1,1,0,0,0,0-2Z"/><path class="cls-6" d="M5,60V30H5a1.88,1.88,0,0,1,1.87,2Z"/><path class="cls-6" d="M17,60V30h0a1.88,1.88,0,0,0-1.87,2Z"/><path class="cls-6" d="M47,60V30h0a1.88,1.88,0,0,1,1.87,2Z"/><path class="cls-6" d="M59,60V30h0a1.88,1.88,0,0,0-1.87,2Z"/><path class="cls-6" d="M10.11,61,10,63H3a3.18,3.18,0,0,1,.7-2Z"/><path class="cls-6" d="M19,63H12l-.11-2H18.3A3.18,3.18,0,0,1,19,63Z"/><path class="cls-6" d="M52.11,61,52,63H45a3.18,3.18,0,0,1,.7-2Z"/><path class="cls-6" d="M61,63H54l-.11-2H60.3A3.18,3.18,0,0,1,61,63Z"/></g></svg>