<svg xmlns="http://www.w3.org/2000/svg" xmlns:xlink="http://www.w3.org/1999/xlink" viewBox="0 0 64 64"><defs><style>.cls-1{fill:url(#linear-gradient);}.cls-2{fill:#cf4055;}.cls-3{fill:#eab39b;}.cls-4{fill:url(#linear-gradient-2);}</style><linearGradient id="linear-gradient" x1="32" y1="63" x2="32" y2="1" gradientUnits="userSpaceOnUse"><stop offset="0" stop-color="#f2c4b0"/><stop offset="1" stop-color="#ffe3d7"/></linearGradient><linearGradient id="linear-gradient-2" x1="24.55" y1="58" x2="24.55" y2="48" gradientUnits="userSpaceOnUse"><stop offset="0" stop-color="#da5466"/><stop offset="1" stop-color="#f4929c"/></linearGradient></defs><title>Sore Troath</title><g id="Sore_Troath" data-name="Sore Troath"><path class="cls-1" d="M55.55,35.84a2.63,2.63,0,0,1-2.12,2.58L50.55,39v3l.18.27A1.72,1.72,0,0,1,50.85,44a1.74,1.74,0,0,1-1.59,1h-.95a1.74,1.74,0,0,1,1.59,1,1.84,1.84,0,0,1,.17.77A1.72,1.72,0,0,1,49.55,48v2.86a6.13,6.13,0,0,1-7.83,5.9L35.55,55v8h-23s.37-7.78.69-13.79a31,31,0,0,0-2.35-13.59l-.07-.16a30.86,30.86,0,0,1-2.37-12v-1a21.55,21.55,0,0,1,43.09,0v2.87a2.74,2.74,0,0,1-.28,1.19,2.67,2.67,0,0,0,.21,2.75l3.58,5A2.63,2.63,0,0,1,55.55,35.84Z"/><path class="cls-2" d="M28.09,50.46a1,1,0,0,1-.71-.29,1,1,0,0,1,0-1.42l1.41-1.41a1,1,0,1,1,1.42,1.42l-1.42,1.41A1,1,0,0,1,28.09,50.46Z"/><path class="cls-2" d="M19.6,59a1,1,0,0,1-.71-.29,1,1,0,0,1,0-1.42l1.41-1.41a1,1,0,0,1,1.42,1.42l-1.41,1.41A1,1,0,0,1,19.6,59Z"/><path class="cls-2" d="M29.5,59a1,1,0,0,1-.71-.29l-1.41-1.41a1,1,0,0,1,0-1.42,1,1,0,0,1,1.41,0l1.42,1.41a1,1,0,0,1,0,1.42A1,1,0,0,1,29.5,59Z"/><path class="cls-2" d="M21,50.46a1,1,0,0,1-.71-.29l-1.41-1.41a1,1,0,1,1,1.42-1.42l1.41,1.41a1,1,0,0,1,0,1.42A1,1,0,0,1,21,50.46Z"/><path class="cls-3" d="M49.26,45h-.95a1.74,1.74,0,0,1,1.59,1H45a2.37,2.37,0,0,0-1.7.71,1,1,0,0,1-.71.29,1,1,0,0,1-.71-.29,1,1,0,0,1,0-1.42A4.39,4.39,0,0,1,45,44h5.89A1.74,1.74,0,0,1,49.26,45Z"/><circle class="cls-4" cx="24.55" cy="53" r="5"/><path class="cls-2" d="M24.55,50a1,1,0,0,1-1-1V46a1,1,0,0,1,2,0v3A1,1,0,0,1,24.55,50Z"/><path class="cls-2" d="M24.55,61a1,1,0,0,1-1-1V57a1,1,0,0,1,2,0v3A1,1,0,0,1,24.55,61Z"/><path class="cls-2" d="M24.55,50a1,1,0,0,1-1-1V46a1,1,0,0,1,2,0v3A1,1,0,0,1,24.55,50Z"/><path class="cls-2" d="M24.55,61a1,1,0,0,1-1-1V57a1,1,0,0,1,2,0v3A1,1,0,0,1,24.55,61Z"/><path class="cls-2" d="M31.55,54h-3a1,1,0,1,1,0-2h3a1,1,0,0,1,0,2Z"/><path class="cls-2" d="M20.55,54h-3a1,1,0,1,1,0-2h3a1,1,0,0,1,0,2Z"/><path class="cls-2" d="M31.55,54h-3a1,1,0,1,1,0-2h3a1,1,0,0,1,0,2Z"/><path class="cls-2" d="M20.55,54h-3a1,1,0,1,1,0-2h3a1,1,0,0,1,0,2Z"/></g></svg>