<svg xmlns="http://www.w3.org/2000/svg" xmlns:xlink="http://www.w3.org/1999/xlink" viewBox="0 0 64 64"><defs><style>.cls-1{fill:#cf4055;}.cls-2{fill:url(#linear-gradient);}.cls-3{fill:url(#linear-gradient-2);}.cls-4{fill:url(#linear-gradient-3);}.cls-5{fill:url(#linear-gradient-4);}.cls-6{fill:url(#linear-gradient-5);}.cls-7{fill:url(#linear-gradient-6);}.cls-8{fill:url(#linear-gradient-7);}.cls-9{fill:url(#linear-gradient-8);}.cls-10{fill:url(#linear-gradient-9);}.cls-11{fill:url(#linear-gradient-10);}.cls-12{fill:url(#linear-gradient-11);}.cls-13{fill:url(#linear-gradient-12);}.cls-14{fill:url(#linear-gradient-13);}.cls-15{fill:url(#linear-gradient-14);}</style><linearGradient id="linear-gradient" x1="7" y1="13" x2="35" y2="13" gradientUnits="userSpaceOnUse"><stop offset="0" stop-color="#9dd5df"/><stop offset="1" stop-color="#c3e1f5"/></linearGradient><linearGradient id="linear-gradient-2" x1="29" y1="25" x2="64" y2="25" xlink:href="#linear-gradient"/><linearGradient id="linear-gradient-3" x1="21" y1="50" x2="53" y2="50" xlink:href="#linear-gradient"/><linearGradient id="linear-gradient-4" x1="10" y1="42" x2="10" y2="28" gradientUnits="userSpaceOnUse"><stop offset="0" stop-color="#da5466"/><stop offset="1" stop-color="#f4929c"/></linearGradient><linearGradient id="linear-gradient-5" x1="26" y1="57" x2="26" y2="47" xlink:href="#linear-gradient-4"/><linearGradient id="linear-gradient-6" x1="40" y1="29" x2="40" y2="21" xlink:href="#linear-gradient-4"/><linearGradient id="linear-gradient-7" x1="22" y1="28" x2="32" y2="28" xlink:href="#linear-gradient"/><linearGradient id="linear-gradient-8" x1="21" y1="16" x2="21" y2="12" xlink:href="#linear-gradient-4"/><linearGradient id="linear-gradient-9" x1="59" y1="50" x2="59" y2="46" xlink:href="#linear-gradient-4"/><linearGradient id="linear-gradient-10" x1="40" y1="49" x2="40" y2="45" xlink:href="#linear-gradient-4"/><linearGradient id="linear-gradient-11" x1="42" y1="13" x2="42" y2="9" xlink:href="#linear-gradient-4"/><linearGradient id="linear-gradient-12" x1="9" y1="54" x2="9" y2="50" xlink:href="#linear-gradient-4"/><linearGradient id="linear-gradient-13" x1="25" y1="35" x2="27" y2="35" xlink:href="#linear-gradient"/><linearGradient id="linear-gradient-14" x1="3" y1="21" x2="5" y2="21" xlink:href="#linear-gradient"/></defs><title>Spread</title><g id="Spread"><path class="cls-1" d="M40,22.17a1,1,0,0,1-1-1v-2a1,1,0,0,1,2,0v2A1,1,0,0,1,40,22.17Z"/><path class="cls-1" d="M40,32.17a1,1,0,0,1-1-1v-2a1,1,0,0,1,2,0v2A1,1,0,0,1,40,32.17Z"/><path class="cls-1" d="M36.17,26h-2a1,1,0,0,1,0-2h2a1,1,0,0,1,0,2Z"/><path class="cls-1" d="M46.17,26h-2a1,1,0,0,1,0-2h2a1,1,0,0,1,0,2Z"/><path class="cls-1" d="M29.54,49.46a1,1,0,0,1-.71-.29,1,1,0,0,1,0-1.42l1.41-1.41a1,1,0,1,1,1.42,1.42l-1.41,1.41A1,1,0,0,1,29.54,49.46Z"/><path class="cls-1" d="M21.05,58a1,1,0,0,1-.71-.29,1,1,0,0,1,0-1.42l1.41-1.41a1,1,0,0,1,1.42,1.42l-1.41,1.41A1,1,0,0,1,21.05,58Z"/><path class="cls-1" d="M31,58a1,1,0,0,1-.71-.29l-1.41-1.41a1,1,0,0,1,1.42-1.42l1.41,1.41a1,1,0,0,1,0,1.42A1,1,0,0,1,31,58Z"/><path class="cls-1" d="M22.46,49.46a1,1,0,0,1-.71-.29l-1.41-1.41a1,1,0,1,1,1.42-1.42l1.41,1.41a1,1,0,0,1,0,1.42A1,1,0,0,1,22.46,49.46Z"/><path class="cls-1" d="M15,31.05a1,1,0,0,1-.71-.29,1,1,0,0,1,0-1.42l2-2.05a1,1,0,0,1,1.42,1.42l-2.05,2.05A1,1,0,0,1,15,31.05Z"/><path class="cls-1" d="M3,43a1,1,0,0,1-.71-.29,1,1,0,0,1,0-1.42l2.05-2a1,1,0,0,1,1.42,1.42l-2,2.05A1,1,0,0,1,3,43Z"/><path class="cls-1" d="M17,43a1,1,0,0,1-.71-.29l-2-2.05a1,1,0,0,1,1.42-1.42l2.05,2a1,1,0,0,1,0,1.42A1,1,0,0,1,17,43Z"/><path class="cls-1" d="M5.05,31.05a1,1,0,0,1-.71-.29l-2-2.05a1,1,0,0,1,1.42-1.42l2.05,2.05a1,1,0,0,1,0,1.42A1,1,0,0,1,5.05,31.05Z"/><path class="cls-2" d="M26,22H8a1,1,0,0,1,0-2H26A7,7,0,1,0,21,8.05a1,1,0,1,1-1.4-1.42A9,9,0,1,1,26,22Z"/><path class="cls-3" d="M53,36H30a1,1,0,0,1,0-2H53a9,9,0,1,0-6.36-15.36,1,1,0,0,1-1.42-1.42A11,11,0,1,1,53,36Z"/><path class="cls-4" d="M43,60a9.9,9.9,0,0,1-7.07-2.93,1,1,0,0,1,0-1.42,1,1,0,0,1,1.41,0A7.91,7.91,0,0,0,43,58a8,8,0,0,0,8-8,8,8,0,0,0-8-8H22a1,1,0,0,1,0-2H43A10,10,0,0,1,53,50,10,10,0,0,1,43,60Z"/><circle class="cls-5" cx="10" cy="35" r="7"/><path class="cls-1" d="M17,35A7,7,0,0,1,3,35a5.47,5.47,0,0,1,.08-1,7,7,0,0,0,13.84,0A5.47,5.47,0,0,1,17,35Z"/><path class="cls-1" d="M10,30a1,1,0,0,1-1-1V26a1,1,0,0,1,2,0v3A1,1,0,0,1,10,30Z"/><path class="cls-1" d="M10,45a1,1,0,0,1-1-1V41a1,1,0,0,1,2,0v3A1,1,0,0,1,10,45Z"/><path class="cls-1" d="M19,36H16a1,1,0,0,1,0-2h3a1,1,0,0,1,0,2Z"/><path class="cls-1" d="M4,36H1a1,1,0,0,1,0-2H4a1,1,0,0,1,0,2Z"/><circle class="cls-1" cx="7.5" cy="33.5" r="1.5"/><circle class="cls-1" cx="13" cy="34" r="1"/><circle class="cls-1" cx="10" cy="37" r="1"/><circle class="cls-6" cx="26" cy="52" r="5"/><path class="cls-1" d="M26,49a1,1,0,0,1-1-1V45a1,1,0,0,1,2,0v3A1,1,0,0,1,26,49Z"/><path class="cls-1" d="M26,60a1,1,0,0,1-1-1V56a1,1,0,0,1,2,0v3A1,1,0,0,1,26,60Z"/><path class="cls-1" d="M26,49a1,1,0,0,1-1-1V45a1,1,0,0,1,2,0v3A1,1,0,0,1,26,49Z"/><path class="cls-1" d="M26,60a1,1,0,0,1-1-1V56a1,1,0,0,1,2,0v3A1,1,0,0,1,26,60Z"/><path class="cls-1" d="M33,53H30a1,1,0,0,1,0-2h3a1,1,0,0,1,0,2Z"/><path class="cls-1" d="M22,53H19a1,1,0,0,1,0-2h3a1,1,0,0,1,0,2Z"/><path class="cls-1" d="M33,53H30a1,1,0,0,1,0-2h3a1,1,0,0,1,0,2Z"/><path class="cls-1" d="M22,53H19a1,1,0,0,1,0-2h3a1,1,0,0,1,0,2Z"/><circle class="cls-7" cx="40" cy="25" r="4"/><path class="cls-1" d="M42.3,24.05a1,1,0,0,1-.71-.3,1,1,0,0,1,0-1.41l2.12-2.12a1,1,0,1,1,1.41,1.41L43,23.75A1,1,0,0,1,42.3,24.05Z"/><path class="cls-1" d="M35.93,30.41a1,1,0,0,1-.71-.29,1,1,0,0,1,0-1.42l2.13-2.12a1,1,0,0,1,1.41,0,1,1,0,0,1,0,1.42l-2.12,2.12A1,1,0,0,1,35.93,30.41Z"/><path class="cls-1" d="M38.05,24.05a1,1,0,0,1-.7-.3l-2.13-2.12a1,1,0,0,1,0-1.41,1,1,0,0,1,1.42,0l2.12,2.12a1,1,0,0,1-.71,1.71Z"/><path class="cls-1" d="M44.42,30.41a1,1,0,0,1-.71-.29L41.59,28a1,1,0,0,1,0-1.42,1,1,0,0,1,1.41,0l2.12,2.12a1,1,0,0,1-.7,1.71Z"/><path class="cls-8" d="M31,29H23a1,1,0,0,1,0-2h8a1,1,0,0,1,0,2Z"/><circle class="cls-9" cx="21" cy="14" r="2"/><circle class="cls-10" cx="59" cy="48" r="2"/><path class="cls-11" d="M40,49a2,2,0,1,1,2-2A2,2,0,0,1,40,49Zm0-2h0Zm0,0h0Zm0,0h0Zm0,0h0Zm0,0h0Zm0,0h0Zm0,0h0Zm0,0h0Z"/><path class="cls-12" d="M42,13a2,2,0,1,1,2-2A2,2,0,0,1,42,13Zm0-2h0Zm0,0h0Zm0,0h0Zm0,0h0Zm0,0h0Zm0,0h0Zm0,0h0Zm0,0h0Z"/><path class="cls-13" d="M9,54a2,2,0,1,1,2-2A2,2,0,0,1,9,54Zm0-2H9Zm0,0H9Zm0,0H9Zm0,0H9Zm0,0H9Zm0,0H9Zm0,0H9Zm0,0H9Z"/><circle class="cls-14" cx="26" cy="35" r="1"/><circle class="cls-15" cx="4" cy="21" r="1"/></g></svg>