<svg xmlns="http://www.w3.org/2000/svg" xmlns:xlink="http://www.w3.org/1999/xlink" viewBox="0 0 64 64"><defs><style>.cls-1{fill:url(#linear-gradient);}.cls-2{fill:#77cacb;}.cls-3{fill:url(#linear-gradient-2);}.cls-4{fill:#cf4055;}.cls-5{fill:url(#linear-gradient-4);}.cls-6{fill:url(#linear-gradient-5);}.cls-7{fill:url(#linear-gradient-6);}.cls-8{fill:url(#linear-gradient-7);}.cls-9{fill:url(#linear-gradient-8);}.cls-10{fill:url(#linear-gradient-9);}</style><linearGradient id="linear-gradient" x1="32" y1="63" x2="32" y2="1" gradientUnits="userSpaceOnUse"><stop offset="0" stop-color="#9dd5df"/><stop offset="1" stop-color="#c3e1f5"/></linearGradient><linearGradient id="linear-gradient-2" x1="32" y1="58" x2="32" y2="16" gradientUnits="userSpaceOnUse"><stop offset="0" stop-color="#da5466"/><stop offset="1" stop-color="#f4929c"/></linearGradient><linearGradient id="linear-gradient-4" x1="57" y1="59" x2="57" y2="55" xlink:href="#linear-gradient-2"/><linearGradient id="linear-gradient-5" x1="19" y1="13" x2="19" y2="9" xlink:href="#linear-gradient-2"/><linearGradient id="linear-gradient-6" x1="60.5" y1="6" x2="60.5" y2="1" xlink:href="#linear-gradient-2"/><linearGradient id="linear-gradient-7" x1="53" y1="32" x2="53" y2="18" xlink:href="#linear-gradient-2"/><linearGradient id="linear-gradient-8" x1="15" y1="34" x2="15" y2="24" xlink:href="#linear-gradient-2"/><linearGradient id="linear-gradient-9" x1="7.83" y1="58.83" x2="7.83" y2="50.83" xlink:href="#linear-gradient-2"/></defs><title>Themperature</title><g id="Themperature"><path class="cls-1" d="M38,45V7A6,6,0,0,0,26,7V45a10,10,0,1,0,12,0Z"/><path class="cls-2" d="M42,53a10,10,0,0,1-20,0,9.42,9.42,0,0,1,.12-1.51,10,10,0,0,0,19.76,0A9.42,9.42,0,0,1,42,53Z"/><path class="cls-3" d="M34,48.42V18a2,2,0,0,0-2-2h0a2,2,0,0,0-2,2V48.42a5,5,0,1,0,4,0Z"/><path class="cls-3" d="M34,48.42V18a2,2,0,0,0-2-2h0a2,2,0,0,0-2,2V48.42a5,5,0,1,0,4,0Z"/><path class="cls-4" d="M37,53a5,5,0,1,1-9.77-1.49,5,5,0,0,0,9.54,0A5,5,0,0,1,37,53Z"/><circle class="cls-5" cx="57" cy="57" r="2"/><circle class="cls-6" cx="19" cy="11" r="2"/><circle class="cls-7" cx="60.5" cy="3.5" r="2.5"/><circle class="cls-4" cx="4" cy="4" r="2"/><circle class="cls-4" cx="47" cy="39" r="2"/><circle class="cls-4" cx="14.5" cy="43.5" r="1.5"/><path class="cls-4" d="M58,21.05a1,1,0,0,1-.71-.29,1,1,0,0,1,0-1.42l2-2.05a1,1,0,0,1,1.42,1.42l-2.05,2.05A1,1,0,0,1,58,21.05Z"/><path class="cls-4" d="M46,33a1,1,0,0,1-.71-.29,1,1,0,0,1,0-1.42l2.05-2.05a1,1,0,0,1,1.42,1.42l-2,2.05A1,1,0,0,1,46,33Z"/><path class="cls-4" d="M60,33a1,1,0,0,1-.71-.29l-2-2.05a1,1,0,0,1,1.42-1.42l2.05,2.05a1,1,0,0,1,0,1.42A1,1,0,0,1,60,33Z"/><path class="cls-4" d="M48.05,21.05a1,1,0,0,1-.71-.29l-2.05-2.05a1,1,0,0,1,1.42-1.42l2,2.05a1,1,0,0,1,0,1.42A1,1,0,0,1,48.05,21.05Z"/><circle class="cls-8" cx="53" cy="25" r="7"/><path class="cls-4" d="M60,25a7,7,0,0,1-14,0,5.47,5.47,0,0,1,.08-1,7,7,0,0,0,13.84,0A5.47,5.47,0,0,1,60,25Z"/><path class="cls-4" d="M53,20a1,1,0,0,1-1-1V16a1,1,0,0,1,2,0v3A1,1,0,0,1,53,20Z"/><path class="cls-4" d="M53,35a1,1,0,0,1-1-1V31a1,1,0,0,1,2,0v3A1,1,0,0,1,53,35Z"/><path class="cls-4" d="M62,26H59a1,1,0,0,1,0-2h3a1,1,0,0,1,0,2Z"/><path class="cls-4" d="M47,26H44a1,1,0,0,1,0-2h3a1,1,0,0,1,0,2Z"/><circle class="cls-4" cx="50.5" cy="23.5" r="1.5"/><circle class="cls-4" cx="56" cy="24" r="1"/><circle class="cls-4" cx="53" cy="27" r="1"/><path class="cls-4" d="M18.54,26.46a1,1,0,0,1-.71-.29,1,1,0,0,1,0-1.42l1.41-1.41a1,1,0,0,1,1.42,1.42l-1.41,1.41A1,1,0,0,1,18.54,26.46Z"/><path class="cls-4" d="M10.05,35a1,1,0,0,1-.71-.29,1,1,0,0,1,0-1.42l1.41-1.41a1,1,0,1,1,1.42,1.42l-1.41,1.41A1,1,0,0,1,10.05,35Z"/><path class="cls-4" d="M20,35a1,1,0,0,1-.71-.29l-1.41-1.41a1,1,0,0,1,1.42-1.42l1.41,1.41a1,1,0,0,1,0,1.42A1,1,0,0,1,20,35Z"/><path class="cls-4" d="M11.46,26.46a1,1,0,0,1-.71-.29L9.34,24.76a1,1,0,0,1,1.42-1.42l1.41,1.41a1,1,0,0,1,0,1.42A1,1,0,0,1,11.46,26.46Z"/><circle class="cls-9" cx="15" cy="29" r="5"/><path class="cls-4" d="M15,26a1,1,0,0,1-1-1V22a1,1,0,0,1,2,0v3A1,1,0,0,1,15,26Z"/><path class="cls-4" d="M15,37a1,1,0,0,1-1-1V33a1,1,0,0,1,2,0v3A1,1,0,0,1,15,37Z"/><path class="cls-4" d="M15,26a1,1,0,0,1-1-1V22a1,1,0,0,1,2,0v3A1,1,0,0,1,15,26Z"/><path class="cls-4" d="M15,37a1,1,0,0,1-1-1V33a1,1,0,0,1,2,0v3A1,1,0,0,1,15,37Z"/><path class="cls-4" d="M22,30H19a1,1,0,0,1,0-2h3a1,1,0,0,1,0,2Z"/><path class="cls-4" d="M11,30H8a1,1,0,0,1,0-2h3a1,1,0,0,1,0,2Z"/><path class="cls-4" d="M22,30H19a1,1,0,0,1,0-2h3a1,1,0,0,1,0,2Z"/><path class="cls-4" d="M11,30H8a1,1,0,0,1,0-2h3a1,1,0,0,1,0,2Z"/><path class="cls-4" d="M7.83,52a1,1,0,0,1-1-1V49a1,1,0,0,1,2,0v2A1,1,0,0,1,7.83,52Z"/><path class="cls-4" d="M7.83,62a1,1,0,0,1-1-1V59a1,1,0,0,1,2,0v2A1,1,0,0,1,7.83,62Z"/><path class="cls-4" d="M4,55.83H2a1,1,0,0,1,0-2H4a1,1,0,0,1,0,2Z"/><path class="cls-4" d="M14,55.83H12a1,1,0,0,1,0-2h2a1,1,0,0,1,0,2Z"/><circle class="cls-10" cx="7.83" cy="54.83" r="4"/><path class="cls-4" d="M10.12,53.88a1,1,0,0,1-.71-.29,1,1,0,0,1,0-1.42l2.13-2.12A1,1,0,1,1,13,51.46l-2.12,2.13A1,1,0,0,1,10.12,53.88Z"/><path class="cls-4" d="M3.76,60.24A1,1,0,0,1,3.05,60a1,1,0,0,1,0-1.41l2.12-2.13a1,1,0,0,1,1.42,1.42L4.46,60A1,1,0,0,1,3.76,60.24Z"/><path class="cls-4" d="M5.88,53.88a1,1,0,0,1-.71-.29L3.05,51.46a1,1,0,1,1,1.41-1.41l2.13,2.12a1,1,0,0,1,0,1.42A1,1,0,0,1,5.88,53.88Z"/><path class="cls-4" d="M12.24,60.24a1,1,0,0,1-.7-.29L9.41,57.83a1,1,0,0,1,1.42-1.42L13,58.54A1,1,0,0,1,13,60,1,1,0,0,1,12.24,60.24Z"/></g></svg>