<svg xmlns="http://www.w3.org/2000/svg" xmlns:xlink="http://www.w3.org/1999/xlink" viewBox="0 0 64 64"><defs><style>.cls-1{fill:url(#linear-gradient);}.cls-2{fill:#42455e;}.cls-3{fill:url(#linear-gradient-2);}.cls-4{fill:#77cacb;}.cls-5{fill:#cf4055;}.cls-6{fill:url(#linear-gradient-3);}.cls-7{fill:url(#linear-gradient-4);}.cls-8{fill:url(#linear-gradient-5);}.cls-9{fill:url(#linear-gradient-6);}.cls-10{fill:url(#linear-gradient-7);}.cls-11{fill:url(#linear-gradient-8);}.cls-12{fill:url(#linear-gradient-9);}</style><linearGradient id="linear-gradient" x1="32" y1="63" x2="32" y2="57" gradientUnits="userSpaceOnUse"><stop offset="0" stop-color="#474f72"/><stop offset="1" stop-color="#878c9f"/></linearGradient><linearGradient id="linear-gradient-2" x1="32" y1="57" x2="32" y2="1" gradientUnits="userSpaceOnUse"><stop offset="0" stop-color="#9dd5df"/><stop offset="1" stop-color="#c3e1f5"/></linearGradient><linearGradient id="linear-gradient-3" x1="45" y1="50" x2="45" y2="46" gradientUnits="userSpaceOnUse"><stop offset="0" stop-color="#da5466"/><stop offset="1" stop-color="#f4929c"/></linearGradient><linearGradient id="linear-gradient-4" x1="25" y1="15" x2="25" y2="9" xlink:href="#linear-gradient-3"/><linearGradient id="linear-gradient-5" x1="32" y1="41" x2="32" y2="23" xlink:href="#linear-gradient-3"/><linearGradient id="linear-gradient-6" x1="41.19" y1="24.81" x2="41.19" y2="20.81" xlink:href="#linear-gradient-3"/><linearGradient id="linear-gradient-7" x1="22.81" y1="43.19" x2="22.81" y2="39.19" xlink:href="#linear-gradient-3"/><linearGradient id="linear-gradient-8" x1="41.19" y1="43.19" x2="41.19" y2="39.19" xlink:href="#linear-gradient-3"/><linearGradient id="linear-gradient-9" x1="22.81" y1="24.81" x2="22.81" y2="20.81" xlink:href="#linear-gradient-3"/></defs><title>Virus Quarantine</title><g id="Virus_Quarantine" data-name="Virus Quarantine"><rect class="cls-1" x="9" y="57" width="46" height="6"/><rect class="cls-2" x="9" y="61" width="46" height="2"/><path class="cls-3" d="M32,1h0A20,20,0,0,1,52,21V57a0,0,0,0,1,0,0H12a0,0,0,0,1,0,0V21A20,20,0,0,1,32,1Z"/><rect class="cls-4" x="12" y="55" width="40" height="2"/><circle class="cls-5" cx="20" cy="50" r="2"/><path class="cls-6" d="M45,50a2,2,0,1,1,2-2A2,2,0,0,1,45,50Zm0-2h0Zm0,0h0Zm0,0h0Zm0,0h0Zm0,0h0Zm0,0h0Zm0,0h0Zm0,0h0Z"/><circle class="cls-7" cx="25" cy="12" r="3"/><path class="cls-5" d="M42,18a2,2,0,1,1,2-2A2,2,0,0,1,42,18Zm0-2Z"/><path class="cls-5" d="M23,33H20a1,1,0,1,1,0-2h3a1,1,0,1,1,0,2Z"/><path class="cls-5" d="M44,33H41a1,1,0,0,1,0-2h3a1,1,0,0,1,0,2Z"/><path class="cls-5" d="M32,24a1,1,0,0,1-1-1V20a1,1,0,1,1,2,0v3A1,1,0,0,1,32,24Z"/><path class="cls-5" d="M32,45a1,1,0,0,1-1-1V41a1,1,0,0,1,2,0v3A1,1,0,0,1,32,45Z"/><circle class="cls-8" cx="32" cy="32" r="9"/><path class="cls-5" d="M38.36,38.36A9,9,0,0,1,23.06,31a9,9,0,0,0,17.88,0A8.92,8.92,0,0,1,38.36,38.36Z"/><path class="cls-5" d="M27.05,28.05a1,1,0,0,1-.71-.29l-3.53-3.54a1,1,0,0,1,1.41-1.41l3.54,3.53a1,1,0,0,1,0,1.42A1,1,0,0,1,27.05,28.05Z"/><path class="cls-5" d="M40.49,41.49a1,1,0,0,1-.71-.3l-3.54-3.53a1,1,0,0,1,1.42-1.42l3.53,3.54a1,1,0,0,1,0,1.41A1,1,0,0,1,40.49,41.49Z"/><path class="cls-5" d="M37,28.05a1,1,0,0,1-.71-.29,1,1,0,0,1,0-1.42l3.54-3.53a1,1,0,0,1,1.41,1.41l-3.53,3.54A1,1,0,0,1,37,28.05Z"/><path class="cls-5" d="M23.51,41.49a1,1,0,0,1-.7-.3,1,1,0,0,1,0-1.41l3.53-3.54a1,1,0,0,1,1.42,1.42l-3.54,3.53A1,1,0,0,1,23.51,41.49Z"/><path class="cls-5" d="M28.46,33.29a2,2,0,0,1-1.41-.58,2,2,0,0,1,0-2.83,2,2,0,0,1,2.83,0h0a2,2,0,0,1,0,2.83A2,2,0,0,1,28.46,33.29Zm0-2Z"/><circle class="cls-5" cx="34.83" cy="29.88" r="1.5"/><circle class="cls-5" cx="32" cy="36.24" r="1"/><path class="cls-9" d="M41.19,24.81a2,2,0,1,1,1.42-.59A2,2,0,0,1,41.19,24.81Zm0-2Z"/><path class="cls-10" d="M22.81,43.19a2,2,0,1,1,1.41-.58A2,2,0,0,1,22.81,43.19Zm0-2Z"/><path class="cls-11" d="M41.19,43.19a2,2,0,0,1-1.41-.58,2,2,0,1,1,1.41.58Zm0-2Z"/><path class="cls-12" d="M22.81,24.81a2,2,0,1,1,1.41-.59A2,2,0,0,1,22.81,24.81Zm0-2Z"/></g></svg>