<svg xmlns="http://www.w3.org/2000/svg" xmlns:xlink="http://www.w3.org/1999/xlink" viewBox="0 0 64 64"><defs><style>.cls-1{fill:#f6b756;}.cls-2{fill:url(#linear-gradient);}.cls-3{fill:none;stroke:#231f20;stroke-linecap:round;stroke-linejoin:round;stroke-width:2px;}.cls-4{fill:url(#linear-gradient-2);}.cls-5{fill:url(#linear-gradient-3);}.cls-6{fill:#eab39b;}.cls-7{fill:url(#linear-gradient-4);}.cls-8{fill:#cf4055;}.cls-9{fill:url(#linear-gradient-5);}</style><linearGradient id="linear-gradient" x1="11" y1="26" x2="11" y2="13" gradientUnits="userSpaceOnUse"><stop offset="0" stop-color="#f2c4b0"/><stop offset="1" stop-color="#ffe3d7"/></linearGradient><linearGradient id="linear-gradient-2" y1="63" y2="26" xlink:href="#linear-gradient"/><linearGradient id="linear-gradient-3" x1="53" y1="26" x2="53" y2="13" xlink:href="#linear-gradient"/><linearGradient id="linear-gradient-4" x1="53" y1="63" x2="53" y2="26" xlink:href="#linear-gradient"/><linearGradient id="linear-gradient-5" x1="32" y1="18" x2="32" y2="4" gradientUnits="userSpaceOnUse"><stop offset="0" stop-color="#da5466"/><stop offset="1" stop-color="#f4929c"/></linearGradient></defs><title>Virus Transmission</title><g id="Virus_Transmission" data-name="Virus Transmission"><path class="cls-1" d="M43.92,24.38a1,1,0,0,0,0-.76,1,1,0,0,0-.21-.33l-3-3a1,1,0,0,0-1.42,1.42L40.59,23H21a1,1,0,0,0,0,2H40.59l-1.3,1.29a1,1,0,0,0,0,1.42,1,1,0,0,0,1.42,0l3-3A1,1,0,0,0,43.92,24.38Z"/><rect class="cls-2" x="6" y="13" width="10" height="13" rx="5"/><polyline class="cls-3" points="5 44 5 42 5 31"/><line class="cls-3" x1="5" y1="44" x2="5" y2="42"/><path class="cls-4" d="M21,32V44a2,2,0,0,1-2,2,1.85,1.85,0,0,1-.81-.18h0A2,2,0,0,1,17,44V60l.21.11A3.21,3.21,0,0,1,19,63H12L11,44,10,63H3a3.21,3.21,0,0,1,1.79-2.89L5,60V44a2,2,0,0,1-1.18,1.82h0A1.85,1.85,0,0,1,3,46a2,2,0,0,1-2-2V32a6,6,0,0,1,6-6h8A6,6,0,0,1,21,32Z"/><rect class="cls-5" x="48" y="13" width="10" height="13" rx="5"/><path class="cls-6" d="M16,19v2A5,5,0,0,1,6,21V19a5,5,0,0,0,10,0Z"/><path class="cls-6" d="M58,19v2a5,5,0,0,1-10,0V19a5,5,0,0,0,10,0Z"/><polyline class="cls-3" points="47 44 47 42 47 31"/><line class="cls-3" x1="47" y1="44" x2="47" y2="42"/><path class="cls-7" d="M63,32V44a2,2,0,0,1-2,2,1.85,1.85,0,0,1-.81-.18h0A2,2,0,0,1,59,44V60l.21.11A3.21,3.21,0,0,1,61,63H54L53,44,52,63H45a3.21,3.21,0,0,1,1.79-2.89L47,60V44a2,2,0,0,1-1.18,1.82h0A1.85,1.85,0,0,1,45,46a2,2,0,0,1-2-2V32a6,6,0,0,1,6-6h8A6,6,0,0,1,63,32Z"/><path class="cls-6" d="M5,60V30H5a1.88,1.88,0,0,1,1.87,2Z"/><path class="cls-6" d="M17,60V30h0a1.88,1.88,0,0,0-1.87,2Z"/><path class="cls-6" d="M47,60V30h0a1.88,1.88,0,0,1,1.87,2Z"/><path class="cls-6" d="M59,60V30h0a1.88,1.88,0,0,0-1.87,2Z"/><path class="cls-8" d="M37,7.05a1,1,0,0,1-.71-.29,1,1,0,0,1,0-1.42l2-2a1,1,0,1,1,1.42,1.42L37.66,6.76A1,1,0,0,1,37,7.05Z"/><path class="cls-8" d="M25,19a1,1,0,0,1-.71-.29,1,1,0,0,1,0-1.42l2.05-2a1,1,0,1,1,1.42,1.42l-2.05,2.05A1,1,0,0,1,25,19Z"/><path class="cls-8" d="M39,19a1,1,0,0,1-.71-.29l-2-2.05a1,1,0,0,1,1.42-1.42l2.05,2a1,1,0,0,1,0,1.42A1,1,0,0,1,39,19Z"/><path class="cls-8" d="M27.05,7.05a1,1,0,0,1-.71-.29l-2.05-2a1,1,0,0,1,1.42-1.42l2.05,2.05a1,1,0,0,1,0,1.42A1,1,0,0,1,27.05,7.05Z"/><circle class="cls-9" cx="32" cy="11" r="7"/><path class="cls-8" d="M39,11a7,7,0,0,1-14,0,5.47,5.47,0,0,1,.08-1,7,7,0,0,0,13.84,0A5.47,5.47,0,0,1,39,11Z"/><path class="cls-8" d="M32,6a1,1,0,0,1-1-1V2a1,1,0,0,1,2,0V5A1,1,0,0,1,32,6Z"/><path class="cls-8" d="M32,21a1,1,0,0,1-1-1V17a1,1,0,0,1,2,0v3A1,1,0,0,1,32,21Z"/><path class="cls-8" d="M41,12H38a1,1,0,0,1,0-2h3a1,1,0,0,1,0,2Z"/><path class="cls-8" d="M26,12H23a1,1,0,0,1,0-2h3a1,1,0,0,1,0,2Z"/><circle class="cls-8" cx="29.5" cy="9.5" r="1.5"/><circle class="cls-8" cx="35" cy="10" r="1"/><circle class="cls-8" cx="32" cy="13" r="1"/><path class="cls-6" d="M10.11,61,10,63H3a3.18,3.18,0,0,1,.7-2Z"/><path class="cls-6" d="M19,63H12l-.11-2H18.3A3.18,3.18,0,0,1,19,63Z"/><path class="cls-6" d="M52.11,61,52,63H45a3.18,3.18,0,0,1,.7-2Z"/><path class="cls-6" d="M61,63H54l-.11-2H60.3A3.18,3.18,0,0,1,61,63Z"/></g></svg>