<svg xmlns="http://www.w3.org/2000/svg" xmlns:xlink="http://www.w3.org/1999/xlink" viewBox="0 0 64 64"><defs><style>.cls-1{fill:url(#linear-gradient);}.cls-2{fill:#dd8b37;}.cls-3{fill:url(#linear-gradient-2);}.cls-4{fill:#cf4055;}.cls-5{fill:url(#linear-gradient-3);}</style><linearGradient id="linear-gradient" x1="32" y1="58" x2="32" y2="6" gradientUnits="userSpaceOnUse"><stop offset="0" stop-color="#e9a254"/><stop offset="1" stop-color="#f4bb79"/></linearGradient><linearGradient id="linear-gradient-2" x1="32" y1="53" x2="32" y2="12.28" gradientUnits="userSpaceOnUse"><stop offset="0" stop-color="#fbcc88"/><stop offset="1" stop-color="#ffe5c3"/></linearGradient><linearGradient id="linear-gradient-3" x1="32" y1="46" x2="32" y2="32" gradientUnits="userSpaceOnUse"><stop offset="0" stop-color="#da5466"/><stop offset="1" stop-color="#f4929c"/></linearGradient></defs><title>Warning</title><g id="Warning"><path class="cls-1" d="M32,6h0A3.58,3.58,0,0,0,29,7.7L1.58,52.06a3.86,3.86,0,0,0-.58,2H1A3.89,3.89,0,0,0,4.9,58H59.1A3.89,3.89,0,0,0,63,54.1h0a3.86,3.86,0,0,0-.58-2L35.05,7.7A3.58,3.58,0,0,0,32,6Z"/><path class="cls-2" d="M63,54.1A3.89,3.89,0,0,1,59.1,58H4.9A3.89,3.89,0,0,1,1,54.1a3.36,3.36,0,0,1,.14-1,3.78,3.78,0,0,0,1,1.76A3.9,3.9,0,0,0,4.9,56H59.1a3.88,3.88,0,0,0,3.76-2.9A3.36,3.36,0,0,1,63,54.1Z"/><polygon class="cls-3" points="6.88 53 32 12.28 57.13 53 6.88 53"/><path class="cls-4" d="M37,35.05a1,1,0,0,1-.71-.29,1,1,0,0,1,0-1.42l2-2.05a1,1,0,0,1,1.42,1.42l-2.05,2A1,1,0,0,1,37,35.05Z"/><path class="cls-4" d="M25,47a1,1,0,0,1-.71-.29,1,1,0,0,1,0-1.42l2.05-2a1,1,0,0,1,1.42,1.42l-2.05,2.05A1,1,0,0,1,25,47Z"/><path class="cls-4" d="M39,47a1,1,0,0,1-.71-.29l-2-2.05a1,1,0,0,1,1.42-1.42l2.05,2a1,1,0,0,1,0,1.42A1,1,0,0,1,39,47Z"/><path class="cls-4" d="M27.05,35.05a1,1,0,0,1-.71-.29l-2.05-2a1,1,0,0,1,1.42-1.42l2.05,2.05a1,1,0,0,1,0,1.42A1,1,0,0,1,27.05,35.05Z"/><circle class="cls-5" cx="32" cy="39" r="7"/><path class="cls-4" d="M39,39a7,7,0,0,1-14,0,5.47,5.47,0,0,1,.08-1,7,7,0,0,0,13.84,0A5.47,5.47,0,0,1,39,39Z"/><path class="cls-4" d="M32,34a1,1,0,0,1-1-1V30a1,1,0,0,1,2,0v3A1,1,0,0,1,32,34Z"/><path class="cls-4" d="M32,49a1,1,0,0,1-1-1V45a1,1,0,0,1,2,0v3A1,1,0,0,1,32,49Z"/><path class="cls-4" d="M41,40H38a1,1,0,0,1,0-2h3a1,1,0,0,1,0,2Z"/><path class="cls-4" d="M26,40H23a1,1,0,0,1,0-2h3a1,1,0,0,1,0,2Z"/><circle class="cls-4" cx="29.5" cy="37.5" r="1.5"/><circle class="cls-4" cx="35" cy="38" r="1"/><circle class="cls-4" cx="32" cy="41" r="1"/></g></svg>