<svg xmlns="http://www.w3.org/2000/svg" xmlns:xlink="http://www.w3.org/1999/xlink" viewBox="0 0 64 64"><defs><style>.cls-1{fill:url(#linear-gradient);}.cls-2{fill:#cf4055;}.cls-3{fill:url(#linear-gradient-2);}.cls-4{fill:url(#linear-gradient-3);}.cls-5{fill:#c7cdd8;}.cls-6{fill:url(#linear-gradient-4);}.cls-7{fill:#eab39b;}.cls-8{fill:url(#linear-gradient-5);}.cls-9{fill:#8288a1;}.cls-10{fill:url(#linear-gradient-6);}.cls-11{fill:#d7dbe2;}</style><linearGradient id="linear-gradient" x1="32" y1="29" x2="32" y2="1" gradientUnits="userSpaceOnUse"><stop offset="0" stop-color="#da5466"/><stop offset="1" stop-color="#f4929c"/></linearGradient><linearGradient id="linear-gradient-2" x1="32" y1="63" x2="32" y2="57" gradientUnits="userSpaceOnUse"><stop offset="0" stop-color="#474f72"/><stop offset="1" stop-color="#878c9f"/></linearGradient><linearGradient id="linear-gradient-3" x1="32" y1="57" x2="32" y2="7" gradientUnits="userSpaceOnUse"><stop offset="0" stop-color="#d4d8e1"/><stop offset="1" stop-color="#f3f4f5"/></linearGradient><linearGradient id="linear-gradient-4" x1="22" y1="40" x2="22" y2="27" gradientUnits="userSpaceOnUse"><stop offset="0" stop-color="#f2c4b0"/><stop offset="1" stop-color="#ffe3d7"/></linearGradient><linearGradient id="linear-gradient-5" x1="22" y1="57" x2="22" y2="40" xlink:href="#linear-gradient-4"/><linearGradient id="linear-gradient-6" x1="40" y1="53" x2="40" y2="37" gradientUnits="userSpaceOnUse"><stop offset="0" stop-color="#a0a6ba"/><stop offset="1" stop-color="#c6ccda"/></linearGradient></defs><title>Work From home</title><g id="Work_From_home" data-name="Work From home"><polygon class="cls-1" points="63 29 32 7 1 29 1 23 32 1 63 23 63 29"/><polygon class="cls-2" points="63 26 63 29 32 7 1 29 1 26 32 4 63 26"/><rect class="cls-3" x="1" y="57" width="62" height="6"/><polygon class="cls-4" points="56 24.03 56 57 8 57 8 24.03 32 7 56 24.03"/><rect class="cls-5" x="8" y="54" width="48" height="3"/><rect class="cls-6" x="17" y="27" width="10" height="13" rx="5"/><path class="cls-7" d="M27,33v2a5,5,0,0,1-10,0V33a5,5,0,0,0,10,0Z"/><path class="cls-8" d="M32,57H12l.35-3,.72-6A9,9,0,0,1,28,42.27a8.08,8.08,0,0,1,1,1.09L31.34,54Z"/><polygon class="cls-7" points="32 57 12 57 12.35 54 31.34 54 32 57"/><rect class="cls-9" x="25" y="53" width="25" height="4" rx="2"/><path class="cls-10" d="M47.61,53H30.79A2.79,2.79,0,0,1,28,50.21h0a3,3,0,0,1,0-.42l1.61-10.43A2.78,2.78,0,0,1,32.39,37H49.21A2.79,2.79,0,0,1,52,39.79h0a3,3,0,0,1,0,.42L50.36,50.64A2.78,2.78,0,0,1,47.61,53Z"/><circle class="cls-11" cx="40" cy="45" r="2"/></g></svg>